<svg xmlns="http://www.w3.org/2000/svg" width="431.2" height="37.88" viewBox="0 0 431.2 37.88">
  <path id="Path_93" data-name="Path 93" d="M4.72,12.28l-3-.52V9.28H7.56q1.32,0,3.56-.16.52-.04,1.58-.08T14.6,9q7.36,0,11.02,3.68t3.66,10.44a18.7,18.7,0,0,1-1.82,8.4,13.689,13.689,0,0,1-5.18,5.74,14.7,14.7,0,0,1-7.84,2.06q-1.16,0-3.64-.16Q8.48,39,7.64,39H1.56V36.6l3.16-.4Zm5.8,24.04a15.593,15.593,0,0,0,3.8.36,7.538,7.538,0,0,0,6.28-3.22q2.28-3.14,2.28-9.42,0-5.96-2.24-9.22t-6.96-3.26a14.383,14.383,0,0,0-1.9.12q-.9.12-1.26.16ZM32,36.6l3.16-.4V12.28l-3-.56V9.28h5.8q.76,0,1.68-.04t1.4-.08Q43.12,9,44.48,9a21.13,21.13,0,0,1,6.6.84,6.642,6.642,0,0,1,3.6,2.56,8.164,8.164,0,0,1,1.12,4.52,9.457,9.457,0,0,1-1.48,5.12,7.534,7.534,0,0,1-4.28,3.24,6.69,6.69,0,0,1,2.84,2.48,36.614,36.614,0,0,1,2.64,4.68q1,1.96,1.54,2.82a1.974,1.974,0,0,0,1.06.98l1.32.4V39h-6.8Q52,39,51.3,37.7a43.481,43.481,0,0,1-1.82-4.1q-1.32-3.28-2.28-5.12a4.6,4.6,0,0,0-2.04-2.28H41.04v10l3.68.4V39H32ZM44.72,23.76a4.262,4.262,0,0,0,3.56-1.64,7.915,7.915,0,0,0,1.28-4.92,6.309,6.309,0,0,0-1.26-4.32q-1.26-1.4-4.34-1.4a15.271,15.271,0,0,0-1.9.1q-.78.1-1.02.1v12a19.451,19.451,0,0,0,2.32.08ZM64,12.28l-3.2-.52V9.28H82.12L82.64,16h-2.8l-1.32-3.96-8.64-.36V22.44l5.56-.12.64-3.28h2.56v9.68H76.08l-.64-3.44-5.56-.12V36.44l9.68-.48,2.32-5.12,3,.84L83.84,39h-23V36.6L64,36.2ZM97.36,39.44a19.021,19.021,0,0,1-3.88-.36q-1.72-.36-3.84-.96a12.4,12.4,0,0,0-1.88-.44l.36-7.4h3.24l.88,5.16a4.467,4.467,0,0,0,1.86,1,9.8,9.8,0,0,0,3.06.44,5.932,5.932,0,0,0,4.02-1.18,4.166,4.166,0,0,0,1.34-3.3,3.8,3.8,0,0,0-.8-2.42,7.682,7.682,0,0,0-2.2-1.84,39.65,39.65,0,0,0-3.84-1.9,19.6,19.6,0,0,1-5.5-3.62A7.544,7.544,0,0,1,88,16.92a7.4,7.4,0,0,1,1.16-4.06,7.865,7.865,0,0,1,3.46-2.88,13.378,13.378,0,0,1,5.62-1.06,19.02,19.02,0,0,1,3.46.28q1.5.28,3.26.76a15.964,15.964,0,0,0,1.56.36l-.24,7h-3.2l-.84-4.92a3.744,3.744,0,0,0-1.44-.7,7.968,7.968,0,0,0-2.4-.34,5.248,5.248,0,0,0-3.62,1.1,3.764,3.764,0,0,0-1.22,2.94,3.872,3.872,0,0,0,.9,2.56,8.054,8.054,0,0,0,2.18,1.82q1.28.74,4.04,2.1A34.951,34.951,0,0,1,104.52,24a10.018,10.018,0,0,1,2.76,2.7,6.636,6.636,0,0,1,1.16,3.9,8.593,8.593,0,0,1-1.1,4.2,8.43,8.43,0,0,1-3.6,3.32A13.6,13.6,0,0,1,97.36,39.44Zm24.12,0a19.021,19.021,0,0,1-3.88-.36q-1.72-.36-3.84-.96a12.4,12.4,0,0,0-1.88-.44l.36-7.4h3.24l.88,5.16a4.467,4.467,0,0,0,1.86,1,9.8,9.8,0,0,0,3.06.44,5.932,5.932,0,0,0,4.02-1.18,4.166,4.166,0,0,0,1.34-3.3,3.8,3.8,0,0,0-.8-2.42,7.682,7.682,0,0,0-2.2-1.84,39.65,39.65,0,0,0-3.84-1.9,19.6,19.6,0,0,1-5.5-3.62,7.544,7.544,0,0,1-2.18-5.7,7.4,7.4,0,0,1,1.16-4.06,7.865,7.865,0,0,1,3.46-2.88,13.378,13.378,0,0,1,5.62-1.06,19.02,19.02,0,0,1,3.46.28q1.5.28,3.26.76a15.966,15.966,0,0,0,1.56.36l-.24,7h-3.2l-.84-4.92a3.744,3.744,0,0,0-1.44-.7,7.968,7.968,0,0,0-2.4-.34,5.248,5.248,0,0,0-3.62,1.1,3.764,3.764,0,0,0-1.22,2.94,3.872,3.872,0,0,0,.9,2.56,8.054,8.054,0,0,0,2.18,1.82q1.28.74,4.04,2.1A34.95,34.95,0,0,1,128.64,24a10.018,10.018,0,0,1,2.76,2.7,6.636,6.636,0,0,1,1.16,3.9,8.593,8.593,0,0,1-1.1,4.2,8.43,8.43,0,0,1-3.6,3.32A13.6,13.6,0,0,1,121.48,39.44Zm33.6,0a19.021,19.021,0,0,1-3.88-.36q-1.72-.36-3.84-.96a12.4,12.4,0,0,0-1.88-.44l.36-7.4h3.24l.88,5.16a4.467,4.467,0,0,0,1.86,1,9.8,9.8,0,0,0,3.06.44,5.932,5.932,0,0,0,4.02-1.18,4.166,4.166,0,0,0,1.34-3.3,3.8,3.8,0,0,0-.8-2.42,7.682,7.682,0,0,0-2.2-1.84,39.651,39.651,0,0,0-3.84-1.9,19.6,19.6,0,0,1-5.5-3.62,7.544,7.544,0,0,1-2.18-5.7,7.4,7.4,0,0,1,1.16-4.06,7.865,7.865,0,0,1,3.46-2.88,13.378,13.378,0,0,1,5.62-1.06,19.02,19.02,0,0,1,3.46.28q1.5.28,3.26.76a15.966,15.966,0,0,0,1.56.36l-.24,7h-3.2l-.84-4.92a3.744,3.744,0,0,0-1.44-.7,7.968,7.968,0,0,0-2.4-.34,5.248,5.248,0,0,0-3.62,1.1,3.764,3.764,0,0,0-1.22,2.94,3.872,3.872,0,0,0,.9,2.56,8.054,8.054,0,0,0,2.18,1.82q1.28.74,4.04,2.1A34.952,34.952,0,0,1,162.24,24,10.018,10.018,0,0,1,165,26.7a6.636,6.636,0,0,1,1.16,3.9,8.593,8.593,0,0,1-1.1,4.2,8.43,8.43,0,0,1-3.6,3.32A13.6,13.6,0,0,1,155.08,39.44Zm17-27.16-2.96-.52V9.28h12.16v2.48l-3.36.52V22.32h12.16V12.28L187,11.76V9.28h12v2.48l-3.04.52V36.2l3.04.4V39H186.96V36.6l3.12-.4V25.36H177.92V36.2l3.36.4V39H169.04V36.6l3.04-.4Zm42.84,27.16q-6.52,0-9.76-4.08t-3.24-11.12a18.2,18.2,0,0,1,1.7-8.08,12.568,12.568,0,0,1,4.78-5.36,13.315,13.315,0,0,1,7.08-1.88q6.6,0,9.9,3.9t3.3,10.9a18.578,18.578,0,0,1-1.74,8.22,12.858,12.858,0,0,1-12.02,7.5Zm.4-28.08a5.663,5.663,0,0,0-5.12,3.24q-1.84,3.24-1.84,9.6,0,6.28,1.78,9.54a5.563,5.563,0,0,0,5.1,3.26q3.24,0,5.08-3.42t1.84-9.86q0-6.24-1.76-9.3A5.559,5.559,0,0,0,215.32,11.36Zm19.28.92-3-.52V9.28h6.04q.84,0,2.6-.08,2.32-.16,4.2-.16a17.318,17.318,0,0,1,6.58,1.02,6.634,6.634,0,0,1,3.44,2.92,10.127,10.127,0,0,1,1.02,4.82,9.959,9.959,0,0,1-3.14,7.84q-3.14,2.8-8.7,2.8a28.827,28.827,0,0,1-3.16-.12V36.2l5.36.4V39h-14.4V36.6l3.16-.4Zm5.84,13.48a16.691,16.691,0,0,0,3.12.2,5.42,5.42,0,0,0,4.3-1.86q1.62-1.86,1.62-6.18,0-3.36-1.46-4.9a5.876,5.876,0,0,0-4.46-1.54,17.558,17.558,0,0,0-2.32.16,6.494,6.494,0,0,1-.8.08Zm28.92,16.88q1.52.08,2.32.08a11.149,11.149,0,0,0,5.02-1.12,9.137,9.137,0,0,0,3.58-3.06,7.477,7.477,0,0,0,1.32-4.3q0-3-1.44-4.32A5.947,5.947,0,0,0,276,28.6a13.135,13.135,0,0,0-2.9.36,13.493,13.493,0,0,0-2.62.84l-1.32-.92,1.92-14.76h12.36l.4-.76h2.76l-.84,5H274.8l-1.64,8.32a15,15,0,0,1,2.78-1.06,12.615,12.615,0,0,1,3.46-.46,8.616,8.616,0,0,1,6.26,2.12,7.985,7.985,0,0,1,2.18,6,10.329,10.329,0,0,1-2.02,6.22,13.441,13.441,0,0,1-5.6,4.36,19.761,19.761,0,0,1-8.06,1.58,13.108,13.108,0,0,1-2.8-.28Zm34.44-3.16a9.94,9.94,0,0,1-9.54-6.12,15.621,15.621,0,0,1-1.26-6.4,18.084,18.084,0,0,1,2.52-9.38,20.987,20.987,0,0,1,6.44-6.88,18.515,18.515,0,0,1,7.88-3.14L311,9.72a15.691,15.691,0,0,0-7.18,4.42,17.574,17.574,0,0,0-4.06,7.26,8.249,8.249,0,0,1,2.6-1.62,9.588,9.588,0,0,1,3.68-.66,8.154,8.154,0,0,1,6.26,2.46,9.478,9.478,0,0,1,2.3,6.74,12.172,12.172,0,0,1-1.28,5.52,10.115,10.115,0,0,1-3.72,4.1A10.64,10.64,0,0,1,303.8,39.48Zm.28-17.32a6.1,6.1,0,0,0-2.94.7,6.426,6.426,0,0,0-1.98,1.54,21.385,21.385,0,0,0-.12,2.28,19,19,0,0,0,1.1,7.6A4,4,0,0,0,304,37.04a3.825,3.825,0,0,0,3.5-2.18,10.973,10.973,0,0,0,1.22-5.42q0-3.8-1.24-5.54A3.952,3.952,0,0,0,304.08,22.16Zm28.44,17.28a14.275,14.275,0,0,1-7.58-1.94,12.461,12.461,0,0,1-4.82-5.34,17.455,17.455,0,0,1-1.64-7.68,17.536,17.536,0,0,1,1.9-8.44,12.555,12.555,0,0,1,5.38-5.32,17.439,17.439,0,0,1,8.12-1.8,44.538,44.538,0,0,1,9.8,1.24l-.44,7.44H339.2l-1.08-5.12a3.79,3.79,0,0,0-1.52-.74,10.31,10.31,0,0,0-2.92-.34,7.131,7.131,0,0,0-6.16,3.18q-2.24,3.18-2.24,9.18a20.277,20.277,0,0,0,1.92,9.5,6.23,6.23,0,0,0,5.84,3.62,10.876,10.876,0,0,0,3-.4,5.418,5.418,0,0,0,2.12-1.04v-8.6l-4.24-.4V23.76h12.16v2.68l-2.12.36V37.4a15.928,15.928,0,0,0-3.04.68q-2.56.68-4.38,1.02A21.951,21.951,0,0,1,332.52,39.44Zm28.52,0q-6.52,0-9.76-4.08t-3.24-11.12a18.2,18.2,0,0,1,1.7-8.08,12.568,12.568,0,0,1,4.78-5.36,13.315,13.315,0,0,1,7.08-1.88q6.6,0,9.9,3.9t3.3,10.9a18.578,18.578,0,0,1-1.74,8.22,12.858,12.858,0,0,1-12.02,7.5Zm.4-28.08a5.663,5.663,0,0,0-5.12,3.24q-1.84,3.24-1.84,9.6,0,6.28,1.78,9.54a5.563,5.563,0,0,0,5.1,3.26q3.24,0,5.08-3.42t1.84-9.86q0-6.24-1.76-9.3A5.559,5.559,0,0,0,361.44,11.36ZM377.52,36.6l3.16-.4V12.28l-3-.56V9.28h5.8q.76,0,1.68-.04t1.4-.08Q388.64,9,390,9a21.13,21.13,0,0,1,6.6.84,6.642,6.642,0,0,1,3.6,2.56,8.165,8.165,0,0,1,1.12,4.52,9.457,9.457,0,0,1-1.48,5.12,7.534,7.534,0,0,1-4.28,3.24,6.69,6.69,0,0,1,2.84,2.48,36.613,36.613,0,0,1,2.64,4.68q1,1.96,1.54,2.82a1.974,1.974,0,0,0,1.06.98l1.32.4V39h-6.8q-.64,0-1.34-1.3A43.481,43.481,0,0,1,395,33.6q-1.32-3.28-2.28-5.12a4.6,4.6,0,0,0-2.04-2.28h-4.12v10l3.68.4V39H377.52Zm12.72-12.84a4.262,4.262,0,0,0,3.56-1.64,7.915,7.915,0,0,0,1.28-4.92,6.309,6.309,0,0,0-1.26-4.32q-1.26-1.4-4.34-1.4a15.271,15.271,0,0,0-1.9.1q-.78.1-1.02.1v12a19.45,19.45,0,0,0,2.32.08ZM419,39.44q-6.52,0-9.76-4.08T406,24.24a18.2,18.2,0,0,1,1.7-8.08,12.568,12.568,0,0,1,4.78-5.36,13.315,13.315,0,0,1,7.08-1.88q6.6,0,9.9,3.9t3.3,10.9a18.578,18.578,0,0,1-1.74,8.22A12.858,12.858,0,0,1,419,39.44Zm.4-28.08a5.663,5.663,0,0,0-5.12,3.24q-1.84,3.24-1.84,9.6,0,6.28,1.78,9.54a5.563,5.563,0,0,0,5.1,3.26q3.24,0,5.08-3.42t1.84-9.86q0-6.24-1.76-9.3A5.559,5.559,0,0,0,419.4,11.36Z" transform="translate(-1.56 -7.56)" fill="#000"/>
</svg>
