<svg xmlns="http://www.w3.org/2000/svg" width="140.501" height="40.192" viewBox="0 0 140.501 40.192">
  <g id="logo" transform="translate(-264.129 -406.258)">
    <path id="Path_14" data-name="Path 14" d="M3.944-9.55A20.414,20.414,0,0,1,1.5-9.684,15,15,0,0,1-.631-10.1a17.174,17.174,0,0,1-2.053-.7q-1.027-.424-2.187-1.027l1.9-4.6h.8q.692.714,1.562,1.462a14.8,14.8,0,0,0,1.841,1.35,10.9,10.9,0,0,0,2.009.982,6.039,6.039,0,0,0,2.087.379,5.893,5.893,0,0,0,2.9-.692,6.585,6.585,0,0,0,2.1-1.819A7.972,7.972,0,0,0,11.6-17.327a10.41,10.41,0,0,0,.424-2.957,5.488,5.488,0,0,0-.536-2.522,4.741,4.741,0,0,0-1.439-1.707,6.026,6.026,0,0,0-2.1-.96,10.32,10.32,0,0,0-2.533-.3,11.758,11.758,0,0,0-1.205.067q-.647.067-1.317.19t-1.294.29a10.8,10.8,0,0,0-1.138.368l-.781-.2,5-15.622H21.329l-1.138,4.954H5.752L3.632-29.1a13.317,13.317,0,0,1,2.276-.547,16.089,16.089,0,0,1,2.343-.167,14.7,14.7,0,0,1,3.7.469,9.758,9.758,0,0,1,3.214,1.462,7.609,7.609,0,0,1,2.265,2.522,7.381,7.381,0,0,1,.859,3.671,10.6,10.6,0,0,1-.58,3.56,11.1,11.1,0,0,1-1.6,2.99,12.1,12.1,0,0,1-2.388,2.388A15.2,15.2,0,0,1,10.762-11,16.5,16.5,0,0,1,7.425-9.918,16.78,16.78,0,0,1,3.944-9.55Zm28.521-8.324a10.487,10.487,0,0,1-4.285-.8A7.916,7.916,0,0,1,25.2-20.92a9.379,9.379,0,0,1-1.73-3.4,15.722,15.722,0,0,1-.558-4.307,25.937,25.937,0,0,1,.491-4.988,23.911,23.911,0,0,1,1.484-4.832,21.151,21.151,0,0,1,2.5-4.341,17.327,17.327,0,0,1,3.537-3.537A19.079,19.079,0,0,1,35.333-48.8a13.242,13.242,0,0,1,4.943-.937,17.768,17.768,0,0,1,1.852.089,14.7,14.7,0,0,1,1.651.268,15.44,15.44,0,0,1,1.6.446q.792.268,1.707.625l-1.9,4.4h-.8q-.87-.536-1.73-1.015a18.16,18.16,0,0,0-1.752-.859,11.228,11.228,0,0,0-1.852-.6,8.841,8.841,0,0,0-2.009-.223,3.442,3.442,0,0,0-1.8.446,7.042,7.042,0,0,0-1.439,1.16,6.988,6.988,0,0,0-.882,1.261,14.612,14.612,0,0,0-.815,1.707q-.379.937-.725,1.964t-.625,2.009q-.279.982-.5,1.852t-.357,1.5l-.2.826a18.156,18.156,0,0,1,1.718-1.674A10.891,10.891,0,0,1,33.3-36.865a9.47,9.47,0,0,1,2.1-.826,9.331,9.331,0,0,1,2.377-.29,7.288,7.288,0,0,1,3.124.647,7.1,7.1,0,0,1,2.354,1.752,7.674,7.674,0,0,1,1.484,2.589,9.525,9.525,0,0,1,.513,3.136,11.824,11.824,0,0,1-.469,3.37,11.561,11.561,0,0,1-1.317,2.923,11.312,11.312,0,0,1-2.02,2.388,12.4,12.4,0,0,1-2.6,1.785A13.565,13.565,0,0,1,35.8-18.264,14.169,14.169,0,0,1,32.465-17.874Zm.67-2.343a4.284,4.284,0,0,0,1.942-.424,5.144,5.144,0,0,0,1.5-1.127,6.722,6.722,0,0,0,1.094-1.618,12.051,12.051,0,0,0,.736-1.908,12.538,12.538,0,0,0,.413-2,15.508,15.508,0,0,0,.123-1.875,9.441,9.441,0,0,0-.212-2.02,4.823,4.823,0,0,0-.714-1.707,3.741,3.741,0,0,0-1.317-1.183,4.159,4.159,0,0,0-2.02-.446,5.736,5.736,0,0,0-1.417.179,8.344,8.344,0,0,0-1.372.48,7.687,7.687,0,0,0-1.272.725,8.281,8.281,0,0,0-1.094.915q-.268,1.272-.413,2.555a22.928,22.928,0,0,0-.145,2.578,15.921,15.921,0,0,0,.167,2.2,8.391,8.391,0,0,0,.625,2.232,4.844,4.844,0,0,0,1.272,1.741A3.113,3.113,0,0,0,33.134-20.217Z" transform="translate(269 456)"/>
    <path id="Path_13" data-name="Path 13" d="M10.3-11.226A9.688,9.688,0,0,1,6.688-11.9,8.623,8.623,0,0,1,3.71-13.869a9.307,9.307,0,0,1-2.015-3.145,11.3,11.3,0,0,1-.739-4.212,10.946,10.946,0,0,1,.739-4.087,9.527,9.527,0,0,1,2.036-3.18,9.1,9.1,0,0,1,3.076-2.057,10.067,10.067,0,0,1,3.871-.732q1.227,0,2.253.091t1.876.244q.851.153,1.555.342t1.29.384v4.728h-.962l-.99-2.5a.784.784,0,0,0-.244-.335,2.954,2.954,0,0,0-.356-.237A5.663,5.663,0,0,0,14.074-29a10.788,10.788,0,0,0-1.2-.314,12.569,12.569,0,0,0-1.255-.188q-.635-.063-1.193-.063a4.023,4.023,0,0,0-1.918.5,5,5,0,0,0-1.66,1.492A8,8,0,0,0,5.677-25.1a12.267,12.267,0,0,0-.439,3.466,16.737,16.737,0,0,0,.342,3.487,9.541,9.541,0,0,0,1,2.762,5.281,5.281,0,0,0,1.646,1.813,3.991,3.991,0,0,0,2.267.656,5.5,5.5,0,0,0,1.081-.1,8.026,8.026,0,0,0,.962-.251,6.34,6.34,0,0,0,.781-.314,5.524,5.524,0,0,0,.537-.293v-4.212a.793.793,0,0,0-.167-.523.986.986,0,0,0-.488-.3l-1.939-.516v-.851h8.955v.851l-1.771.516a.9.9,0,0,0-.481.3.807.807,0,0,0-.174.523V-14q0,.809.028,1.339a15.866,15.866,0,0,1-1.6.551q-.886.258-1.869.46t-2.015.314A18.938,18.938,0,0,1,10.3-11.226Zm19.96,0a10.056,10.056,0,0,1-3.989-.746,8.221,8.221,0,0,1-2.936-2.078,8.911,8.911,0,0,1-1.806-3.18,12.792,12.792,0,0,1-.614-4.052A11.864,11.864,0,0,1,21.55-25.2a9.382,9.382,0,0,1,1.841-3.187,8.571,8.571,0,0,1,2.95-2.141,9.556,9.556,0,0,1,3.947-.781,9.939,9.939,0,0,1,4.156.8,8.168,8.168,0,0,1,2.908,2.169,9.054,9.054,0,0,1,1.716,3.187,12.988,12.988,0,0,1,.565,3.871,12.628,12.628,0,0,1-.237,2.427,11.107,11.107,0,0,1-.725,2.329,9.768,9.768,0,0,1-1.241,2.085,7.85,7.85,0,0,1-1.8,1.681,8.816,8.816,0,0,1-2.385,1.123A10.138,10.138,0,0,1,30.26-11.226Zm.223-1.492a3.72,3.72,0,0,0,2.148-.628,4.928,4.928,0,0,0,1.527-1.723,8.958,8.958,0,0,0,.907-2.58,16.174,16.174,0,0,0,.3-3.2,19.407,19.407,0,0,0-.314-3.626,9.512,9.512,0,0,0-.969-2.831,5.164,5.164,0,0,0-1.653-1.848,4.2,4.2,0,0,0-2.378-.663,3.691,3.691,0,0,0-2.232.67,5.067,5.067,0,0,0-1.506,1.792,9.051,9.051,0,0,0-.851,2.58,16.933,16.933,0,0,0-.265,3.034,19.7,19.7,0,0,0,.307,3.592,9.932,9.932,0,0,0,.948,2.859A5.162,5.162,0,0,0,28.1-13.4,4.136,4.136,0,0,0,30.483-12.718Zm10.28.209,1.771-.516a.98.98,0,0,0,.467-.3.769.769,0,0,0,.188-.523V-28.689a.8.8,0,0,0-.2-.544.912.912,0,0,0-.46-.293l-1.771-.5v-.851h8.4a15.907,15.907,0,0,1,2.65.2,9.34,9.34,0,0,1,1.974.537,5.265,5.265,0,0,1,1.374.8,3.951,3.951,0,0,1,.865.983,3.746,3.746,0,0,1,.453,1.109,5.143,5.143,0,0,1,.132,1.151,4.664,4.664,0,0,1-.418,2.05,5.2,5.2,0,0,1-1.039,1.472A5.642,5.642,0,0,1,53.8-21.6a8.9,8.9,0,0,1-1.325.572l4.659,6.89a2.558,2.558,0,0,0,.286.349,3.78,3.78,0,0,0,.377.342,3.852,3.852,0,0,0,.411.286A1.371,1.371,0,0,0,58.6-13l1.8.488v.851H55.938a5.053,5.053,0,0,1-1.046-.091,2.2,2.2,0,0,1-.732-.293,2.3,2.3,0,0,1-.572-.537q-.258-.335-.565-.823l-4.031-6.346-1.841-.5v6.4a.876.876,0,0,0,.16.537.756.756,0,0,0,.439.286l2.064.516v.851H40.763Zm8.243-8.955a3.046,3.046,0,0,0,1.478-.342,3.173,3.173,0,0,0,1.046-.907A3.909,3.909,0,0,0,52.152-24a5.479,5.479,0,0,0,.2-1.478,4.039,4.039,0,0,0-.935-2.964,3.581,3.581,0,0,0-2.636-.928H47.151V-21.6a3.025,3.025,0,0,0,.37.049l.523.042q.279.021.544.035T49.006-21.464ZM68.8-11.226a10.056,10.056,0,0,1-3.989-.746,8.221,8.221,0,0,1-2.936-2.078,8.911,8.911,0,0,1-1.806-3.18,12.792,12.792,0,0,1-.614-4.052,11.864,11.864,0,0,1,.635-3.919,9.382,9.382,0,0,1,1.841-3.187,8.571,8.571,0,0,1,2.95-2.141,9.556,9.556,0,0,1,3.947-.781,9.939,9.939,0,0,1,4.156.8,8.168,8.168,0,0,1,2.908,2.169,9.054,9.054,0,0,1,1.716,3.187,12.988,12.988,0,0,1,.565,3.871,12.627,12.627,0,0,1-.237,2.427,11.107,11.107,0,0,1-.725,2.329,9.768,9.768,0,0,1-1.241,2.085,7.85,7.85,0,0,1-1.8,1.681,8.816,8.816,0,0,1-2.385,1.123A10.138,10.138,0,0,1,68.8-11.226Zm.223-1.492a3.72,3.72,0,0,0,2.148-.628A4.928,4.928,0,0,0,72.7-15.069a8.959,8.959,0,0,0,.907-2.58,16.173,16.173,0,0,0,.3-3.2,19.407,19.407,0,0,0-.314-3.626,9.512,9.512,0,0,0-.969-2.831,5.164,5.164,0,0,0-1.653-1.848,4.2,4.2,0,0,0-2.378-.663,3.691,3.691,0,0,0-2.232.67,5.067,5.067,0,0,0-1.506,1.792A9.051,9.051,0,0,0,64-24.776a16.933,16.933,0,0,0-.265,3.034,19.7,19.7,0,0,0,.307,3.592,9.932,9.932,0,0,0,.948,2.859,5.162,5.162,0,0,0,1.646,1.89A4.136,4.136,0,0,0,69.022-12.718Z" transform="translate(326.458 444.116)"/>
  </g>
</svg>
