<svg xmlns="http://www.w3.org/2000/svg" width="522.75" height="100.35" viewBox="0 0 522.75 100.35">
  <path id="Path_1" data-name="Path 1" d="M20.25,103.15q9.15-6.6,19.125-6.6a25.22,25.22,0,0,1,17.7,7.2q7.725,7.2,7.725,20.475t-9.975,23.4a32.478,32.478,0,0,1-24,10.125Q16.8,157.75,5.55,147.7a13.123,13.123,0,0,1,3.9-5.85A30.544,30.544,0,0,0,27.9,148q10.05,0,16.125-6.3A21.789,21.789,0,0,0,50.1,125.95q0-9.45-4.65-14.55t-12.525-5.1q-7.875,0-18.825,7.5l-2.7-1.35L16.2,64h30q9.9,0,12.75-6.45a8.968,8.968,0,0,1,3.75.75,79.448,79.448,0,0,1-3.6,17.55H23.4Zm78.6,38.925q4.05,7.125,10.95,7.125t11.4-6q4.5-6,4.5-15.75,0-9.15-4.2-14.775t-11.85-5.625A22.659,22.659,0,0,0,95.55,112a75.836,75.836,0,0,0-.75,8.85Q94.8,134.95,98.85,142.075ZM139.5,125.2a31.785,31.785,0,0,1-9.225,22.8q-9.225,9.6-21.3,9.6a25.233,25.233,0,0,1-20.025-9.3q-8.55-10.05-8.55-27.9T91.875,85.975Q103.35,69.4,124.5,60.25q4.35,2.7,4.35,5.7-24.3,12-31.65,38.25,7.35-6.45,18.15-6.45t17.325,7.425Q139.2,112.6,139.5,123.55Zm100.8-15.9a11.866,11.866,0,0,1,.15,2.175,13.648,13.648,0,0,1-.75,3.825q-5.25.9-7.5,2.4t-2.25,5.25V155.8h-7.5l-3.15-4.95a41.909,41.909,0,0,1-22.95,6.9,40.523,40.523,0,0,1-30.3-12.9q-12.45-12.9-12.45-34.8t14.475-35.775A48.4,48.4,0,0,1,202.8,60.4a80.967,80.967,0,0,1,27.6,4.8,114.617,114.617,0,0,1-2.7,21.3q-3.15,0-4.65-.15-.9-8.25-6.45-12.75a21.2,21.2,0,0,0-13.8-4.5q-15.45,0-24.225,10.65t-8.775,29.7q0,19.05,8.025,29.175T199.2,148.75a37.541,37.541,0,0,0,17.7-4.5V117.4a42.609,42.609,0,0,0-11.4-2.1,33.369,33.369,0,0,1,.45-6Zm27.9-2.4q0,43.8,26.25,43.8,12.15,0,18.375-10.05T319.05,112v-2.7q-.3-21.15-7.35-31.5T292.65,67.45q-12,0-18.225,10.65T268.2,106.9Zm56.325,37.5q-11.775,13.5-30.975,13.5t-30.825-13.425Q251.1,131.05,251.1,109.375T262.725,74.05Q274.35,60.4,293.475,60.4T324.45,74.125q11.85,13.725,11.85,35.25T324.525,144.4ZM374.4,106.15h11.1q19.05,0,19.05-18.675T385.5,68.8H374.4Zm58.2,43.8a25.676,25.676,0,0,1-.6,5.85H411.15L393,119.35a14.93,14.93,0,0,0-3.825-5.175Q387.15,112.6,382.8,112.6h-8.4v34.8a43.889,43.889,0,0,0,12.45,2.85v1.65a26.968,26.968,0,0,1-.45,3.9H349.8v-2.25a10.511,10.511,0,0,1,.6-3.3q5.1-.75,7.275-2.25t2.175-5.4V70.15a31.106,31.106,0,0,0-10.5-2.25,18.2,18.2,0,0,1,.6-5.4H388.5q15.3,0,23.625,6.75t8.325,18.3a23.4,23.4,0,0,1-4.8,14.85q-4.8,6.15-14.1,8.55,4.05,2.1,7.65,9l11.25,21.3q2.55,5.1,5.1,6.9A12.056,12.056,0,0,0,432.6,149.95Zm27.6-43.05q0,43.8,26.25,43.8,12.15,0,18.375-10.05T511.05,112v-2.7q-.3-21.15-7.35-31.5T484.65,67.45q-12,0-18.225,10.65T460.2,106.9Zm56.325,37.5q-11.775,13.5-30.975,13.5t-30.825-13.425Q443.1,131.05,443.1,109.375T454.725,74.05Q466.35,60.4,485.475,60.4T516.45,74.125q11.85,13.725,11.85,35.25T516.525,144.4Z" transform="translate(-5.55 -57.55)" fill="#fff"/>
</svg>
