<svg xmlns="http://www.w3.org/2000/svg" width="57.899" height="60.746" viewBox="0 0 57.899 60.746">
  <g id="Group_507" data-name="Group 507" transform="translate(-477.488 -8148.009)">
    <path id="Path_55" data-name="Path 55" d="M506.438,8204.83l-27.08-56.821h-1.87l28.95,60.746,28.95-60.746h-1.87Z" fill="#fff"/>
    <path id="Path_56" data-name="Path 56" d="M480.821,8148.009l25.617,53.751,25.617-53.751Z" fill="#fff"/>
    <g id="Group_506" data-name="Group 506">
      <path id="Path_57" data-name="Path 57" d="M498.549,8158.705c-.9.271-2.055.787-2.144,1.872a.288.288,0,0,0,.271.271,2.861,2.861,0,0,0,2.415-1.963C499,8158.614,498.8,8158.678,498.549,8158.705Z" fill="#df67a0"/>
      <path id="Path_58" data-name="Path 58" d="M497.941,8157.591a1.837,1.837,0,0,0-2.351,1c-.272.361,0,.9.271,1.267a6.948,6.948,0,0,1,1.9-1.267A.985.985,0,0,0,497.941,8157.591Z" fill="#df67a0"/>
      <path id="Path_59" data-name="Path 59" d="M508.587,8153.126c.27.363.543,0,.995,0-.273-.18.09-.36.181-.542-.091-.452-.181-1.176-.814-1.176-.452.092-.724.634-.9,1C507.954,8152.856,508.4,8152.766,508.587,8153.126Z" fill="#fff"/>
      <path id="Path_60" data-name="Path 60" d="M506.528,8173.26c.452.092.633-.452.995-.634.181-.542.9-.994.453-1.447a12.261,12.261,0,0,0-3.167.181A3,3,0,0,0,506.528,8173.26Z" fill="#df67a0"/>
      <path id="Path_61" data-name="Path 61" d="M507.682,8153.126c-.18-.36.543-.36.091-.632.181-.633-.633-.815-.815-1.267-.181.273-.452.543-.27.9C506.958,8152.494,507.23,8153.036,507.682,8153.126Z" fill="#fff"/>
      <path id="Path_62" data-name="Path 62" d="M506.438,8149.056a15.278,15.278,0,1,0,15.278,15.277A15.278,15.278,0,0,0,506.438,8149.056Zm8.412,11.632c-.181.452-.543,1.084-.995,1.175a7.953,7.953,0,0,0-6.965-4.34,2.778,2.778,0,0,0-1.537.27,1.981,1.981,0,0,1,0,.724c-.723.271-1.629.09-2.262.542-1.266.906-2.714,2.081-4.432,1.357l-1.446,1v.272c4.7,2.351,9.948,3.076,14.38,6.06a6.953,6.953,0,0,1,2.353,6.059,5.546,5.546,0,0,1-3.89,4.071c-3.346.452-7.6.9-9.859-2.081-1.176-1.446-1.086-4.07-.271-5.7,1.446-2.081,3.8-2.624,6.241-2.8,1.447.09.543,1.808.9,2.712a26.546,26.546,0,0,0,3.8.182.6.6,0,0,1,.27.815c-.27.36-.813.089-1.266.18a31.76,31.76,0,0,1-2.081,2.8c0,.543.816.634,1.268.814.542.272,1.718-.089,1.628.905a.331.331,0,0,1-.362.361,7.13,7.13,0,0,1-3.618-1.176c-1.448.453-2.9,1.358-4.433.815-.271-.18-.09-.362,0-.543.9-.362,2.261-.272,3.076-.994v-.271a12.919,12.919,0,0,1-2.171-2.805c-.453-.18-1.538.362-1.357-.542-.09-.182.09-.272.272-.362h3.527v-2.171c-.724-.543-1.628,0-2.442.09a5.124,5.124,0,0,0-3.527,3.98,4.718,4.718,0,0,0,1.446,4.251c2.081,1.719,4.975,1.719,7.78,1.538,1.627-.361,3.526-1.176,4.251-2.894a5.6,5.6,0,0,0-.452-5.337c-1.539-2.351-4.161-3.075-6.423-4.07-3.528-1.538-7.507-1.9-10.492-4.432a3.056,3.056,0,0,1-.453-2.894,2.971,2.971,0,0,1,2.986-1c1.628-.813,3.527-1.357,4.341-3.255.543-.363.452,1.085,1.085.452a3.144,3.144,0,0,0,.995-2.893l-.271-.725c.543-.091.994.362,1.628.452.361-.181.091-.633.271-.814a7.635,7.635,0,0,1,1.447.905c.453,0,.092-.634.543-.724a2.1,2.1,0,0,1,1.448.906,1.257,1.257,0,0,1,.362.542c.361.452-.091,1.9.994,1.446a3.3,3.3,0,0,1,2.171,1.808l.181,1.267A3.6,3.6,0,0,1,514.85,8160.688Z" fill="#df67a0"/>
      <path id="Path_63" data-name="Path 63" d="M512.928,8157.2c-.272-.814.272-1.99-.723-2.442a4.27,4.27,0,0,0-4.161-.544c-.363,0-.633.454-.815.544,0,.181-.18.181-.361.181s-.271-.181-.18-.362c-.725-.363.18-.724,0-1.266-.363-.542-.544-1.176-1.087-1.538-.633.272-.451,1.175-.542,1.9-.272,1.266-1.99,1.537-1.9,2.894.351.96,1.9.453,2.895.453a8.136,8.136,0,0,1,7.87,3.707c.723-.271.452-1.447.452-2.17A2.661,2.661,0,0,0,512.928,8157.2Z" fill="#df67a0"/>
    </g>
  </g>
</svg>
