<svg xmlns="http://www.w3.org/2000/svg" width="32.833" height="32.832" viewBox="0 0 32.833 32.832">
  <g id="Group_231" data-name="Group 231" transform="translate(-1376.4 -109.36)">
    <g id="Group_230" data-name="Group 230">
      <path id="Path_34" data-name="Path 34" d="M1399.117,109.36h-12.6a10.116,10.116,0,0,0-10.117,10.117v12.6a10.116,10.116,0,0,0,10.117,10.115h12.6a10.115,10.115,0,0,0,10.116-10.115v-12.6A10.116,10.116,0,0,0,1399.117,109.36Zm6.965,21.508a8.175,8.175,0,0,1-8.174,8.174h-10.182a8.174,8.174,0,0,1-8.175-8.174V120.685a8.175,8.175,0,0,1,8.175-8.174h10.182a8.176,8.176,0,0,1,8.174,8.174Z" fill="#df67a0"/>
      <path id="Path_35" data-name="Path 35" d="M1393.257,117.186a8.648,8.648,0,1,0,8.648,8.648A8.647,8.647,0,0,0,1393.257,117.186Zm0,13.85a5.2,5.2,0,1,1,5.2-5.2A5.2,5.2,0,0,1,1393.257,131.036Z" fill="#df67a0"/>
      <path id="Path_36" data-name="Path 36" d="M1403.506,117.051a2.2,2.2,0,1,1-2.2-2.2A2.2,2.2,0,0,1,1403.506,117.051Z" fill="#df67a0"/>
    </g>
  </g>
</svg>
