<svg xmlns="http://www.w3.org/2000/svg" width="22.339" height="33.507" viewBox="0 0 22.339 33.507">
  <path id="iphone_クリッピングパス" data-name="iphone クリッピングパス" d="M1291.3,142.192h-16.753a2.8,2.8,0,0,1-2.793-2.792V111.477a2.8,2.8,0,0,1,2.793-2.792H1291.3a2.8,2.8,0,0,1,2.793,2.792V139.4A2.8,2.8,0,0,1,1291.3,142.192Zm-8.407-4.886a1.4,1.4,0,1,0,1.4,1.4A1.4,1.4,0,0,0,1282.9,137.306Zm-8.318-24.433-.031,22.339H1291.3V112.873h-16.725Zm4.16-2.792v1.4h7.068l-.087-1.4Z" transform="translate(-1271.756 -108.685)" fill="#5f5e5e"/>
</svg>
