<svg xmlns="http://www.w3.org/2000/svg" width="57.899" height="60.745" viewBox="0 0 57.899 60.745">
  <g id="Group_19" data-name="Group 19" transform="translate(-357.512 -37.555)">
    <path id="Path_29" data-name="Path 29" d="M386.462,94.376l-27.08-56.821h-1.87L386.462,98.3l28.95-60.745h-1.87Z" fill="#55192b"/>
    <path id="Path_30" data-name="Path 30" d="M360.845,37.555l25.617,53.752,25.617-53.752Z" fill="#55192b"/>
    <path id="Path_31" data-name="Path 31" d="M401.74,53.879A15.278,15.278,0,1,1,386.462,38.6,15.278,15.278,0,0,1,401.74,53.879" fill="#fff"/>
    <path id="Path_32" data-name="Path 32" d="M393.517,46.162l-.181-1.266a3.3,3.3,0,0,0-2.171-1.808c-1.085.452-.633-1-.994-1.447a1.273,1.273,0,0,0-.362-.542,2.111,2.111,0,0,0-1.448-.906c-.451.091-.091.724-.543.724a7.751,7.751,0,0,0-1.447-.9c-.18.181.09.633-.271.815-.634-.091-1.085-.543-1.628-.453l.271.725a3.144,3.144,0,0,1-1,2.893c-.633.633-.542-.814-1.085-.452-.814,1.9-2.714,2.442-4.341,3.256a2.97,2.97,0,0,0-2.986.995,3.055,3.055,0,0,0,.453,2.894c2.984,2.533,6.964,2.894,10.492,4.432,2.262.995,4.884,1.719,6.422,4.07a5.6,5.6,0,0,1,.453,5.337c-.725,1.719-2.624,2.533-4.252,2.895-2.8.18-5.7.18-7.779-1.539a4.718,4.718,0,0,1-1.447-4.251,5.127,5.127,0,0,1,3.528-3.979c.813-.091,1.718-.633,2.441-.091v2.172h-3.526c-.183.09-.362.179-.272.361-.181.905.9.362,1.357.542a12.925,12.925,0,0,0,2.17,2.805v.272c-.814.722-2.17.632-3.075.993-.09.181-.271.363,0,.543,1.537.543,2.985-.362,4.433-.814a7.137,7.137,0,0,0,3.617,1.176.332.332,0,0,0,.363-.362c.09-.994-1.086-.633-1.628-.9-.453-.181-1.268-.272-1.268-.815a31.784,31.784,0,0,0,2.081-2.8c.452-.091,1,.18,1.266-.18a.6.6,0,0,0-.27-.814,26.58,26.58,0,0,1-3.8-.183c-.36-.9.544-2.621-.9-2.712-2.443.181-4.8.723-6.242,2.8-.814,1.627-.9,4.251.271,5.7,2.261,2.985,6.514,2.534,9.86,2.082a5.549,5.549,0,0,0,3.89-4.072,6.954,6.954,0,0,0-2.353-6.059c-4.432-2.984-9.679-3.709-14.38-6.06v-.272l1.446-1c1.718.724,3.166-.45,4.432-1.356.633-.452,1.538-.272,2.261-.542a1.964,1.964,0,0,0,0-.725,2.781,2.781,0,0,1,1.538-.27,7.956,7.956,0,0,1,6.965,4.34c.452-.09.813-.723.995-1.175a3.6,3.6,0,0,0-1.357-4.071M388,60.724c.452.454-.271.905-.452,1.448-.362.181-.543.725-.995.633a3,3,0,0,1-1.719-1.9A12.253,12.253,0,0,1,388,60.724M375.613,48.132a1.838,1.838,0,0,1,2.352-.995.983.983,0,0,1-.181.995,6.92,6.92,0,0,0-1.9,1.267c-.272-.362-.543-.9-.272-1.267m1.086,2.262a.289.289,0,0,1-.271-.271c.09-1.086,1.239-1.6,2.144-1.873.254-.027.452-.09.542.181a2.86,2.86,0,0,1-2.415,1.963m11.369-8.445c.181-.362.453-.9.9-1,.633,0,.723.723.814,1.176-.091.181-.454.361-.181.542-.452,0-.725.362-.995,0-.182-.361-.633-.27-.543-.723m-1.086-1.177c.182.452,1,.634.814,1.267.453.272-.271.272-.09.633-.452-.091-.724-.633-.994-1-.182-.362.089-.632.27-.9m6.965,9.5a8.135,8.135,0,0,0-7.869-3.708c-.995,0-2.544.507-2.895-.453-.09-1.357,1.628-1.628,1.9-2.894.09-.724-.091-1.628.542-1.9.543.363.724,1,1.087,1.538.179.543-.725.9,0,1.267-.092.18,0,.361.179.361s.362,0,.362-.181c.182-.09.452-.543.815-.543a4.268,4.268,0,0,1,4.161.543c.994.452.451,1.628.723,2.443A2.653,2.653,0,0,1,394.4,48.1c0,.723.271,1.9-.452,2.17" fill="#55192b"/>
  </g>
</svg>
