<svg xmlns="http://www.w3.org/2000/svg" width="32.833" height="32.832" viewBox="0 0 32.833 32.832">
  <g id="Group_521" data-name="Group 521" transform="translate(-4227.625 -1659.943)">
    <g id="Group_520" data-name="Group 520">
      <g id="Group_519" data-name="Group 519">
        <path id="Path_77" data-name="Path 77" d="M4250.342,1659.943h-12.6a10.117,10.117,0,0,0-10.117,10.118v12.6a10.115,10.115,0,0,0,10.117,10.114h12.6a10.114,10.114,0,0,0,10.116-10.114v-12.6A10.116,10.116,0,0,0,4250.342,1659.943Zm6.965,21.508a8.175,8.175,0,0,1-8.174,8.174h-10.182a8.174,8.174,0,0,1-8.175-8.174v-10.183a8.175,8.175,0,0,1,8.175-8.174h10.182a8.176,8.176,0,0,1,8.174,8.174Z" fill="#4a3c2d"/>
        <path id="Path_78" data-name="Path 78" d="M4244.482,1667.769a8.648,8.648,0,1,0,8.648,8.648A8.648,8.648,0,0,0,4244.482,1667.769Zm0,13.85a5.2,5.2,0,1,1,5.2-5.2A5.2,5.2,0,0,1,4244.482,1681.619Z" fill="#4a3c2d"/>
        <path id="Path_79" data-name="Path 79" d="M4254.731,1667.634a2.2,2.2,0,1,1-2.2-2.2A2.2,2.2,0,0,1,4254.731,1667.634Z" fill="#4a3c2d"/>
      </g>
    </g>
  </g>
</svg>
