<svg xmlns="http://www.w3.org/2000/svg" width="32.833" height="32.832" viewBox="0 0 32.833 32.832">
  <g id="Group_494" data-name="Group 494" transform="translate(-1550.843 -8277.465)">
    <g id="Group_493" data-name="Group 493">
      <path id="Path_45" data-name="Path 45" d="M1573.56,8277.465h-12.6a10.116,10.116,0,0,0-10.116,10.117v12.6a10.116,10.116,0,0,0,10.116,10.115h12.6a10.116,10.116,0,0,0,10.116-10.115v-12.6A10.116,10.116,0,0,0,1573.56,8277.465Zm6.964,21.508a8.173,8.173,0,0,1-8.173,8.174h-10.183a8.173,8.173,0,0,1-8.174-8.174V8288.79a8.174,8.174,0,0,1,8.174-8.174h10.183a8.175,8.175,0,0,1,8.173,8.174Z" fill="#fff"/>
      <path id="Path_46" data-name="Path 46" d="M1567.7,8285.291a8.647,8.647,0,1,0,8.648,8.647A8.646,8.646,0,0,0,1567.7,8285.291Zm0,13.85a5.2,5.2,0,1,1,5.2-5.2A5.2,5.2,0,0,1,1567.7,8299.141Z" fill="#fff"/>
      <path id="Path_47" data-name="Path 47" d="M1577.948,8285.156a2.2,2.2,0,1,1-2.2-2.2A2.2,2.2,0,0,1,1577.948,8285.156Z" fill="#fff"/>
    </g>
  </g>
</svg>
