<svg id="arrow_1_svg" xmlns="http://www.w3.org/2000/svg" xmlns:xlink="http://www.w3.org/1999/xlink" width="173.032" height="87.241" viewBox="0 0 173.032 87.241">
  <defs>
    <clipPath id="clip-path">
      <rect id="Rectangle_444" data-name="Rectangle 444" width="173.032" height="87.241" fill="#fff"/>
    </clipPath>
  </defs>
  <g id="Group_157" data-name="Group 157" transform="translate(0 0)" clip-path="url(#clip-path)">
    <path id="Path_308" data-name="Path 308" d="M130.88,53.577a3.527,3.527,0,0,0-3.52,3.52c0,9.2.064,12.882.346,16.541.383,4.966,1.164,8.207,2.851,10.473,2.181,2.931,5.5,3.731,9.5,2.7,3.047-.786,6.8-2.649,12.137-5.9,3.276-1.993,7.131-4.481,12.784-8.249a3.513,3.513,0,0,0-3.887-5.852c-5.578,3.718-9.373,6.167-12.547,8.1-4.787,2.911-8.036,4.529-10.236,5.1-1.464.377-1.835.291-2.116-.086-1.426-1.916-1.815-6.888-1.815-22.826a3.508,3.508,0,0,0-3.5-3.52M2.931,58.047c.044-.011.106.01.151,0A3.314,3.314,0,0,0,2.5,58.2a2.253,2.253,0,0,1,.432-.151M148.113,0c-8.543-.012-17.951,2.983-28.355,8.53-7.927,4.227-15.988,9.638-26.3,17.341-2.291,1.711-15.084,11.461-18.42,13.907-6.265,4.591-10.791,7.481-14.4,9.113-3.479,1.571-5.581,1.737-6.587.994-1.336-.989-2.289-4.131-2.289-9.869,0-10.351-4.186-15.93-11.7-15.051-5.165.6-11.406,4.4-18.549,10.6A142.8,142.8,0,0,0,5.587,52a56.893,56.893,0,0,0-4.449,6.047A6.475,6.475,0,0,0,.015,60.919a3.607,3.607,0,0,0,2.808,3.952,3.8,3.8,0,0,0,2.807-.389,3.525,3.525,0,0,0,1.943-3.369,51.308,51.308,0,0,1,3.455-4.664A135.57,135.57,0,0,1,26.1,40.879c6.139-5.33,11.426-8.55,14.771-8.941a2.274,2.274,0,0,1,2.419.777c.885,1.178,1.447,3.591,1.447,7.3,0,15.395,7.024,20.58,18.787,15.267C67.7,53.4,72.55,50.3,79.182,45.435c3.4-2.493,16.222-12.276,18.463-13.95,10.055-7.509,17.869-12.754,25.418-16.779,14.843-7.915,26.793-9.872,36.387-5.075,5.651,2.826,7.527,7.966,6.133,15.807-1.288,7.244-5.371,16.208-11.532,25.979A175.561,175.561,0,0,1,137.51,73.466a55.677,55.677,0,0,1-4.168,4.254,3.448,3.448,0,0,0-2.893,1.857,5.843,5.843,0,0,0-.6,1.706,3.563,3.563,0,0,0,3.023,4.3c1.657.267,2.433-.209,3.973-1.468a60.139,60.139,0,0,0,5.917-5.982A182.326,182.326,0,0,0,159.99,55.175c6.6-10.471,11.027-20.2,12.5-28.505,1.892-10.645-1.151-18.942-9.912-23.322A31.962,31.962,0,0,0,148.113,0" transform="translate(0 0)" fill="#fff"/>
  </g>
</svg>
