<svg xmlns="http://www.w3.org/2000/svg" xmlns:xlink="http://www.w3.org/1999/xlink" width="175.033" height="62" viewBox="0 0 175.033 62">
  <defs>
    <clipPath id="clip-path">
      <rect id="Rectangle_445" data-name="Rectangle 445" width="175.033" height="62" fill="#fff"/>
    </clipPath>
  </defs>
  <g id="arrow_2_svg" transform="translate(0 0)">
    <g id="Group_159" data-name="Group 159" transform="translate(0 0)" clip-path="url(#clip-path)">
      <path id="Path_309" data-name="Path 309" d="M143.112,33.292c-.019.006-.025.017-.044.023-.042.013-.087-.012-.13,0,.056-.015.118-.005.173-.023m-2.036,0a3.241,3.241,0,0,0,.412.09,3.121,3.121,0,0,1-.412-.09m1.819-7a3.381,3.381,0,0,0-1.862.045,3.486,3.486,0,0,0-1.516.942,4.136,4.136,0,0,0-.671.92,9.74,9.74,0,0,0-.5,1.1c-.285.714-.612,1.7-.974,2.85-.811,2.573-1.648,5.683-2.3,8.682-2.02,9.347-2.223,15.565,1.17,18.578,2.762,2.453,6.243,3.094,10.112,2.221a31.189,31.189,0,0,0,9.68-4.465c2-1.284,4.1-2.787,6.518-4.644,1.326-1.017,5.544-4.357,6.237-4.892a32.823,32.823,0,0,1,4.288-2.962,3.71,3.71,0,0,0,1.581-4.891,3.488,3.488,0,0,0-4.743-1.638,37.5,37.5,0,0,0-5.327,3.635c-.737.568-4.96,3.912-6.237,4.891-2.279,1.747-4.206,3.123-6.02,4.286-5.7,3.655-9.451,4.531-11.369,3.007a2.556,2.556,0,0,1-.087-.337,12.193,12.193,0,0,1-.152-2.715,50.459,50.459,0,0,1,1.213-8.481c.6-2.769,1.38-5.653,2.123-8.01.312-.99.595-1.815.8-2.333.068-.169.119-.266.108-.247-.027.05-.063.111-.108.179s-.119.134-.173.2a3.72,3.72,0,0,0-.13-4.958,3.51,3.51,0,0,0-1.668-.965M144.909.019c-9.047-.2-20.38,1.187-33.739,3.9C89.505,8.329,63.355,16.249,40.056,25.148c-10.5,4.01-19.766,7.987-26.592,11.4C5.6,40.472,1.365,43.3.255,46.171A3.7,3.7,0,0,0,2.2,50.928a3.5,3.5,0,0,0,4.591-2.042c-.087.224-.024.157.195-.045a15.8,15.8,0,0,1,1.906-1.459,75.141,75.141,0,0,1,7.645-4.263c6.6-3.3,15.639-7.171,25.942-11.106,22.969-8.772,48.764-16.608,70.032-20.933,24.563-5,41.855-5.055,47.922.09,2.691,2.282,3.095,5.9.563,11.914-3.126,7.422-10.494,17.289-22.348,29.571a3.744,3.744,0,0,0,0,5.161,3.438,3.438,0,0,0,4.981,0C156.053,44.945,163.925,34.427,167.473,26c3.683-8.745,2.857-15.854-2.577-20.462C160.71,1.987,153.956.214,144.909.019" transform="translate(0 0)" fill="#fff"/>
    </g>
  </g>
</svg>
