<svg xmlns="http://www.w3.org/2000/svg" xmlns:xlink="http://www.w3.org/1999/xlink" width="186.994" height="140.917" viewBox="0 0 186.994 140.917">
  <defs>
    <clipPath id="clip-path">
      <rect id="Rectangle_396" data-name="Rectangle 396" width="176.95" height="65.513" fill="#fff"/>
    </clipPath>
  </defs>
  <g id="arrow_3_svg" transform="matrix(-0.883, -0.469, 0.469, -0.883, 156.238, 140.917)">
    <g id="Group_82" data-name="Group 82" transform="translate(0 0)" clip-path="url(#clip-path)">
      <path id="Path_268" data-name="Path 268" d="M36.861,27.6c.05.009.109.057.159.064a1.942,1.942,0,0,0,.274.021,3.674,3.674,0,0,1-.434-.085m.434-6.847a5.751,5.751,0,0,1,.8.042,3.918,3.918,0,0,1,1.8.683,3.388,3.388,0,0,1,1.164,4.33,3.521,3.521,0,0,1-1.277,1.429,8.894,8.894,0,0,1-2.258,1c-1.415.474-3.616,1.1-6.227,1.77a125.473,125.473,0,0,1-13.824,2.9c-5.789.6-8.863,1.957-9.74,3.477-.647,1.122-.249,3.04,1.574,5.717C13.225,47.861,22.6,54.966,31.09,58.935a3.39,3.39,0,0,1,1.665,4.672,3.851,3.851,0,0,1-5,1.536c-9.6-4.489-19.979-12.366-24.7-19.3C-3.782,35.795.9,27.658,16.65,26.021a124.808,124.808,0,0,0,12.683-2.709c2.287-.586,4.092-1.1,5.315-1.494a3.814,3.814,0,0,1,2.647-1.066M131.046.04c10.071-.4,24.024,2.248,43.363,8.277a3.433,3.433,0,0,1,2.35,4.395,3.783,3.783,0,0,1-4.7,2.2c-24.367-7.6-39.253-9.476-47.492-6.89-5.7,1.79-7.874,4.97-10.972,14.122-.074.218-1.206,3.477-1.437,4.117-1.955,5.4-3.973,9.229-7.14,12.671-3.967,4.311-9.368,7.415-16.606,9.279-16.192,4.17-42.023,2.212-81.229-6.954a3.452,3.452,0,0,1-2.692-4.2,3.739,3.739,0,0,1,4.494-2.539c38.072,8.9,62.795,10.775,77.465,7,10.622-2.736,15.14-7.633,18.7-17.47.217-.6,1.294-3.769,1.369-3.988,1.783-5.264,2.885-7.92,4.791-10.687a19.952,19.952,0,0,1,10.9-7.913A33.96,33.96,0,0,1,131.046.04" transform="translate(0.001 0)" fill="#fff"/>
    </g>
  </g>
</svg>
