<svg id="left_1_svg" xmlns="http://www.w3.org/2000/svg" xmlns:xlink="http://www.w3.org/1999/xlink" width="99.99" height="110.416" viewBox="0 0 99.99 110.416">
  <defs>
    <clipPath id="clip-path">
      <rect id="Rectangle_365" data-name="Rectangle 365" width="99.99" height="110.416" fill="#fff" stroke="#fff" stroke-width="1"/>
    </clipPath>
  </defs>
  <g id="Group_17" data-name="Group 17" clip-path="url(#clip-path)">
    <path id="Path_9" data-name="Path 9" d="M46.079,146.01H15.392a1.075,1.075,0,0,1-.929-.535L.391,121.27a2.851,2.851,0,0,1,2.465-4.284H29.434A2.861,2.861,0,0,1,31.9,118.4l15.109,25.99a1.075,1.075,0,0,1-.93,1.616m-30.068-2.151h28.2L30.04,119.485a.7.7,0,0,0-.606-.349H2.856a.7.7,0,0,0-.606,1.053Z" transform="translate(0 -67.656)" fill="#fff" stroke="#fff" stroke-width="1"/>
    <path id="Path_10" data-name="Path 10" d="M121.123,182.867H107.8a1.075,1.075,0,0,1,0-2.151h13.322a1.075,1.075,0,0,1,0,2.151" transform="translate(-61.722 -104.513)" fill="#fff" stroke="#fff" stroke-width="1"/>
    <path id="Path_11" data-name="Path 11" d="M85.607,110.25H73.71a1.075,1.075,0,1,1,0-2.151h11.9a6.84,6.84,0,0,0,6.833-6.832V86.839A10.925,10.925,0,0,0,81.528,75.927H55.585a10.8,10.8,0,0,0-7.7,3.207,10.941,10.941,0,0,0-3.133,6.434,1.075,1.075,0,0,1-2.136-.249,13.1,13.1,0,0,1,3.747-7.7,12.939,12.939,0,0,1,9.224-3.839H81.528A13.078,13.078,0,0,1,94.59,86.839v14.428a8.993,8.993,0,0,1-8.983,8.983" transform="translate(-24.64 -42.666)" fill="#fff" stroke="#fff" stroke-width="1"/>
    <path id="Path_12" data-name="Path 12" d="M113.734,121.864H101.394a1.075,1.075,0,0,1,0-2.151h11.264v-5.505a1.075,1.075,0,0,1,2.151,0v6.581a1.075,1.075,0,0,1-1.075,1.075" transform="translate(-58.017 -65.428)" fill="#fff" stroke="#fff" stroke-width="1"/>
    <path id="Path_13" data-name="Path 13" d="M87.057,24.911A12.455,12.455,0,1,1,99.513,12.455,12.469,12.469,0,0,1,87.057,24.911m0-22.76a10.3,10.3,0,1,0,10.3,10.3,10.317,10.317,0,0,0-10.3-10.3" transform="translate(-43.144)" fill="#fff" stroke="#fff" stroke-width="1"/>
    <path id="Path_14" data-name="Path 14" d="M44.214,225.474a8.463,8.463,0,0,1-8.188-8.7V200.026a1.075,1.075,0,1,1,2.151,0v16.752a6.314,6.314,0,0,0,6.037,6.545,6.317,6.317,0,0,0,6.044-6.545V200.026a1.075,1.075,0,1,1,2.151,0v16.752a8.465,8.465,0,0,1-8.194,8.7" transform="translate(-20.835 -115.058)" fill="#fff" stroke="#fff" stroke-width="1"/>
    <path id="Path_15" data-name="Path 15" d="M77.972,225.475a8.462,8.462,0,0,1-8.191-8.691V200.037a1.075,1.075,0,1,1,2.151-.008v16.754a6.06,6.06,0,1,0,12.081,0V200.037a1.075,1.075,0,1,1,2.151-.008v16.754a8.462,8.462,0,0,1-8.191,8.691" transform="translate(-40.356 -115.062)" fill="#fff" stroke="#fff" stroke-width="1"/>
    <path id="Path_16" data-name="Path 16" d="M129.33,154.145c-1.217,0-2.42-.036-3.6-.108-1.812-.113-3.726-.3-5.687-.569a1.075,1.075,0,0,1,.288-2.131c1.91.258,3.771.444,5.531.554,11.22.685,30.33-2.163,36.961-12.834,6.4-10.291,4.635-45.007-2.69-53.065a20.429,20.429,0,0,0-17.456-6.163,1.075,1.075,0,1,1-.24-2.137,22.578,22.578,0,0,1,19.286,6.853c7.911,8.7,9.8,44.587,2.926,55.647-3.141,5.055-9.146,9.01-17.364,11.438a65.112,65.112,0,0,1-17.954,2.515" transform="translate(-68.884 -44.842)" fill="#fff" stroke="#fff" stroke-width="1"/>
    <path id="Path_17" data-name="Path 17" d="M149.088,181.944a1.075,1.075,0,0,1-.067-2.148,7.61,7.61,0,0,0,6.174-3.581,11.481,11.481,0,0,0,1.5-8.947,1.075,1.075,0,0,1,2.022-.732c.944,2.608.559,7.383-1.719,10.858a9.787,9.787,0,0,1-7.837,4.548l-.069,0" transform="translate(-85.6 -95.902)" fill="#fff" stroke="#fff" stroke-width="1"/>
  </g>
</svg>
