<svg id="left_2_svg" xmlns="http://www.w3.org/2000/svg" xmlns:xlink="http://www.w3.org/1999/xlink" width="126.265" height="123.782" viewBox="0 0 126.265 123.782">
  <defs>
    <clipPath id="clip-path">
      <rect id="Rectangle_368" data-name="Rectangle 368" width="126.265" height="123.782" fill="#fff" stroke="#fff" stroke-width="0.6"/>
    </clipPath>
  </defs>
  <g id="Group_23" data-name="Group 23" clip-path="url(#clip-path)">
    <path id="Path_39" data-name="Path 39" d="M93.547,158.856a5.973,5.973,0,0,1-5.589-8.07l5.711-15.239a1.272,1.272,0,1,1,2.381.893l-5.71,15.238a3.432,3.432,0,0,0,6.427,2.411l4.714-12.569a1.271,1.271,0,0,1,2.381.893L99.148,154.98a5.98,5.98,0,0,1-5.6,3.876" transform="translate(-43.911 -67.548)" fill="#fff" stroke="#fff" stroke-width="0.6"/>
    <path id="Path_40" data-name="Path 40" d="M161.549,97.266a6,6,0,0,1-2.891-.741,1.271,1.271,0,1,1,1.226-2.227,3.428,3.428,0,0,0,4.61-4.745L160,81.924a1.271,1.271,0,1,1,2.19-1.291l4.5,7.629a5.967,5.967,0,0,1-5.136,9" transform="translate(-79.22 -40.115)" fill="#fff" stroke="#fff" stroke-width="0.6"/>
    <path id="Path_41" data-name="Path 41" d="M116.719,114.71a5.992,5.992,0,0,1-5.9-5.043l-1.736-11.035L95.929,88.6a7.7,7.7,0,0,1-.694-.532l-.187-.14a1.282,1.282,0,0,1-.273-.284A8.43,8.43,0,0,1,92.368,80L95.48,63.769l-2.48.71-5.612,9.655a5.978,5.978,0,0,1-10.332-6.016L83.889,56.36a5.935,5.935,0,0,1,2.746-2.453v0c.332-.123,2.093-.633,15.958-4.615a1.268,1.268,0,0,1,.209-.041,8.476,8.476,0,0,1,10.871,9.67L109.02,83.19c-.02.1-.042.207-.067.312,8.512,6.5,9.656,7.379,9.887,7.587v0a5.936,5.936,0,0,1,1.672,3.285l2.111,13.427a5.979,5.979,0,0,1-5.906,6.912M96.792,86.058l.037.028a6.585,6.585,0,0,0,.581.446L111.027,96.92a1.271,1.271,0,0,1,.485.813l1.814,11.537a3.435,3.435,0,0,0,6.786-1.075h0L118,94.762a3.378,3.378,0,0,0-.907-1.827c-.347-.27-2.509-1.93-10.381-7.945a1.271,1.271,0,0,1-.427-1.433,5.883,5.883,0,0,0,.238-.846l4.654-24.265a5.914,5.914,0,0,0-7.81-6.7,1.276,1.276,0,0,1-.35.072c-5.94,1.706-14.586,4.192-15.421,4.443a3.375,3.375,0,0,0-1.506,1.371l-6.834,11.76a3.435,3.435,0,1,0,5.936,3.458l5.869-10.1a1.272,1.272,0,0,1,.749-.583l4.96-1.419a1.272,1.272,0,0,1,1.6,1.462l-3.5,18.259A5.91,5.91,0,0,0,96.7,85.96a1.363,1.363,0,0,1,.1.1" transform="translate(-38.23 -24.495)" fill="#fff" stroke="#fff" stroke-width="0.6"/>
    <path id="Path_42" data-name="Path 42" d="M137.927,20.191q-.346,0-.7-.023a10.1,10.1,0,0,1-5.96-17.676A10.1,10.1,0,0,1,144.554,17.7a10.021,10.021,0,0,1-6.627,2.493M137.9,2.542a7.553,7.553,0,0,0-5.678,12.521,7.552,7.552,0,1,0,6.2-12.5c-.174-.012-.348-.018-.52-.018" transform="translate(-64.086 0)" fill="#fff" stroke="#fff" stroke-width="0.6"/>
    <path id="Path_43" data-name="Path 43" d="M1.273,102.628a1.272,1.272,0,0,1-.595-2.4L21.856,89.055A1.271,1.271,0,1,1,23.043,91.3L1.865,102.481a1.269,1.269,0,0,1-.592.147" transform="translate(0 -44.578)" fill="#fff" stroke="#fff" stroke-width="0.6"/>
    <path id="Path_44" data-name="Path 44" d="M1.273,134.142a1.272,1.272,0,0,1-.595-2.4l21.178-11.177a1.272,1.272,0,0,1,1.187,2.249L1.865,133.995a1.269,1.269,0,0,1-.592.147" transform="translate(0 -60.378)" fill="#fff" stroke="#fff" stroke-width="0.6"/>
    <path id="Path_45" data-name="Path 45" d="M1.273,165.655a1.272,1.272,0,0,1-.595-2.4l21.178-11.177a1.271,1.271,0,0,1,1.187,2.249L1.865,165.508a1.269,1.269,0,0,1-.592.147" transform="translate(0 -76.179)" fill="#fff" stroke="#fff" stroke-width="0.6"/>
    <path id="Path_46" data-name="Path 46" d="M78.349,207.438a1.271,1.271,0,0,1-1.271-1.271V193.485a1.271,1.271,0,0,1,1.271-1.271h27.159V180.8a1.271,1.271,0,0,1,1.271-1.271h27.159V168.119a1.271,1.271,0,0,1,1.271-1.271h28.43a1.271,1.271,0,1,1,0,2.543H136.481V180.8a1.272,1.272,0,0,1-1.271,1.271H108.051v11.411a1.271,1.271,0,0,1-1.271,1.271H79.621v11.411a1.271,1.271,0,0,1-1.271,1.271" transform="translate(-38.646 -83.656)" fill="#fff" stroke="#fff" stroke-width="0.6"/>
  </g>
</svg>
