<svg id="left_3_svg" xmlns="http://www.w3.org/2000/svg" xmlns:xlink="http://www.w3.org/1999/xlink" width="89.787" height="105.938" viewBox="0 0 89.787 105.938">
  <defs>
    <clipPath id="clip-path">
      <rect id="Rectangle_369" data-name="Rectangle 369" width="89.787" height="105.938" fill="#fff" stroke="#fff" stroke-width="1"/>
    </clipPath>
  </defs>
  <g id="Group_25" data-name="Group 25" clip-path="url(#clip-path)">
    <path id="Path_47" data-name="Path 47" d="M47.647,127.493H10.454A10.467,10.467,0,0,1,0,117.037V48.466A10.467,10.467,0,0,1,10.454,38.012h9.787a1.1,1.1,0,1,1,0,2.208H10.454a8.256,8.256,0,0,0-8.246,8.246v68.571a8.256,8.256,0,0,0,8.246,8.247H47.647a8.256,8.256,0,0,0,8.247-8.247V84.49a1.1,1.1,0,0,1,2.208,0v32.548a10.467,10.467,0,0,1-10.455,10.455" transform="translate(0 -21.555)" fill="#fff" stroke="#fff" stroke-width="1"/>
    <path id="Path_48" data-name="Path 48" d="M64.7,224.549H58.544a1.1,1.1,0,0,1,0-2.208H64.7a1.1,1.1,0,1,1,0,2.208" transform="translate(-32.572 -126.079)" fill="#fff" stroke="#fff" stroke-width="1"/>
    <path id="Path_49" data-name="Path 49" d="M63.305,63.6a1.105,1.105,0,0,1-1.1-1.1V10.455A10.466,10.466,0,0,1,72.655,0H114.6a10.466,10.466,0,0,1,10.454,10.455V45.8A10.466,10.466,0,0,1,114.6,56.251H71.111l-7.026,7.026a1.1,1.1,0,0,1-.781.324m9.35-61.392a8.256,8.256,0,0,0-8.246,8.247V59.831l5.465-5.465a1.1,1.1,0,0,1,.781-.323H114.6A8.256,8.256,0,0,0,122.85,45.8V10.455A8.256,8.256,0,0,0,114.6,2.208Z" transform="translate(-35.271)" fill="#fff" stroke="#fff" stroke-width="1"/>
    <path id="Path_50" data-name="Path 50" d="M127.771,86.927a1.1,1.1,0,0,1-1.1-1.1V79.878a8.459,8.459,0,0,0-8.449-8.45H101.332a8.459,8.459,0,0,0-8.449,8.45v5.945a1.1,1.1,0,0,1-2.208,0V79.878A10.669,10.669,0,0,1,101.332,69.22h16.886a10.669,10.669,0,0,1,10.657,10.658v5.945a1.1,1.1,0,0,1-1.1,1.1" transform="translate(-51.418 -39.251)" fill="#fff" stroke="#fff" stroke-width="1"/>
    <path id="Path_51" data-name="Path 51" d="M123.349,36.145a8.738,8.738,0,1,1,8.738-8.738,8.747,8.747,0,0,1-8.738,8.738m0-15.267a6.529,6.529,0,1,0,6.53,6.529,6.536,6.536,0,0,0-6.53-6.529" transform="translate(-64.991 -10.587)" fill="#fff" stroke="#fff" stroke-width="1"/>
  </g>
</svg>
