<svg id="right_3_svg" xmlns="http://www.w3.org/2000/svg" xmlns:xlink="http://www.w3.org/1999/xlink" width="102.879" height="99.807" viewBox="0 0 102.879 99.807">
  <defs>
    <clipPath id="clip-path">
      <rect id="Rectangle_370" data-name="Rectangle 370" width="102.879" height="99.807" fill="#38bcb1" stroke="#38bcb1" stroke-width="1"/>
    </clipPath>
  </defs>
  <g id="Group_27" data-name="Group 27" clip-path="url(#clip-path)">
    <path id="Path_52" data-name="Path 52" d="M34.49,198.777a1.21,1.21,0,0,1-1.143-.814c-2.268-6.545-10.626-7.251-14.113-7.251-7.269,0-12.549,2.711-14.123,7.251a1.21,1.21,0,1,1-2.286-.792c1.927-5.559,8.061-8.879,16.409-8.879s14.472,3.319,16.4,8.879a1.211,1.211,0,0,1-1.143,1.606" transform="translate(-1.45 -98.97)" fill="#38bcb1" stroke="#38bcb1" stroke-width="1"/>
    <path id="Path_53" data-name="Path 53" d="M27.926,161.76a8.623,8.623,0,1,1,8.623-8.623,8.632,8.632,0,0,1-8.623,8.623m0-14.826a6.2,6.2,0,1,0,6.2,6.2,6.21,6.21,0,0,0-6.2-6.2" transform="translate(-10.147 -75.96)" fill="#38bcb1" stroke="#38bcb1" stroke-width="1"/>
    <path id="Path_54" data-name="Path 54" d="M110.653,198.777a1.211,1.211,0,0,1-1.143-.813c-.952-2.74-3.105-4.759-6.4-6a24.387,24.387,0,0,0-15.448,0,12.741,12.741,0,0,0-2.21,1.069,1.21,1.21,0,0,1-1.276-2.056,15.173,15.173,0,0,1,2.629-1.277,26.772,26.772,0,0,1,17.155,0c3.942,1.483,6.651,4.065,7.833,7.467a1.21,1.21,0,0,1-1.143,1.607" transform="translate(-43.945 -98.97)" fill="#38bcb1" stroke="#38bcb1" stroke-width="1"/>
    <path id="Path_55" data-name="Path 55" d="M98.88,161.76a8.623,8.623,0,1,1,8.623-8.623,8.632,8.632,0,0,1-8.623,8.623m0-14.826a6.2,6.2,0,1,0,6.2,6.2,6.21,6.21,0,0,0-6.2-6.2" transform="translate(-47.441 -75.96)" fill="#38bcb1" stroke="#38bcb1" stroke-width="1"/>
    <path id="Path_56" data-name="Path 56" d="M181.605,198.777a1.211,1.211,0,0,1-1.142-.812c-2.28-6.546-10.637-7.253-14.123-7.253a19.427,19.427,0,0,0-9.949,2.324,1.21,1.21,0,0,1-1.247-2.073,21.8,21.8,0,0,1,11.2-2.671c8.337,0,14.471,3.318,16.407,8.877a1.211,1.211,0,0,1-1.142,1.608" transform="translate(-81.239 -98.97)" fill="#38bcb1" stroke="#38bcb1" stroke-width="1"/>
    <path id="Path_57" data-name="Path 57" d="M169.834,161.76a8.623,8.623,0,1,1,8.623-8.623,8.632,8.632,0,0,1-8.623,8.623m0-14.826a6.2,6.2,0,1,0,6.2,6.2,6.21,6.21,0,0,0-6.2-6.2" transform="translate(-84.736 -75.96)" fill="#38bcb1" stroke="#38bcb1" stroke-width="1"/>
    <path id="Path_58" data-name="Path 58" d="M14.312,79.387a1.209,1.209,0,0,1-1.21-1.21V28.258a1.21,1.21,0,0,1,1.21-1.21h88.019a1.21,1.21,0,0,1,1.21,1.21v49.91a1.21,1.21,0,0,1-2.419,0v-48.7h-85.6v48.71a1.209,1.209,0,0,1-1.21,1.21" transform="translate(-6.887 -14.217)" fill="#38bcb1" stroke="#38bcb1" stroke-width="1"/>
    <path id="Path_59" data-name="Path 59" d="M98.779,15.251H4.1a4.1,4.1,0,0,1-4.1-4.1V4.1A4.1,4.1,0,0,1,4.1,0H98.779a4.1,4.1,0,0,1,4.1,4.1v7.052a4.1,4.1,0,0,1-4.1,4.1M4.1,2.419A1.682,1.682,0,0,0,2.419,4.1v7.052a1.682,1.682,0,0,0,1.68,1.68H98.779a1.682,1.682,0,0,0,1.68-1.68V4.1a1.682,1.682,0,0,0-1.68-1.68Z" fill="#38bcb1" stroke="#38bcb1" stroke-width="1"/>
    <path id="Path_60" data-name="Path 60" d="M105.116,54.989H68.5a1.21,1.21,0,1,1,0-2.419h36.616a1.21,1.21,0,1,1,0,2.419" transform="translate(-35.369 -27.632)" fill="#38bcb1" stroke="#38bcb1" stroke-width="1"/>
    <path id="Path_61" data-name="Path 61" d="M62.386,79.975H36.14a1.21,1.21,0,1,1,0-2.419H62.386a1.21,1.21,0,0,1,0,2.419" transform="translate(-18.36 -40.765)" fill="#38bcb1" stroke="#38bcb1" stroke-width="1"/>
    <path id="Path_62" data-name="Path 62" d="M151.515,101.687H130.834a3.43,3.43,0,0,1-3.426-3.426V80.982a3.43,3.43,0,0,1,3.426-3.426h20.681a3.431,3.431,0,0,1,3.426,3.427V98.26a3.431,3.431,0,0,1-3.426,3.426M130.834,79.975a1.008,1.008,0,0,0-1.007,1.007V98.26a1.008,1.008,0,0,0,1.007,1.007h20.681a1.009,1.009,0,0,0,1.007-1.007V80.983a1.009,1.009,0,0,0-1.007-1.008Z" transform="translate(-66.968 -40.765)" fill="#38bcb1" stroke="#38bcb1" stroke-width="1"/>
    <path id="Path_63" data-name="Path 63" d="M62.386,113.868H36.14a1.21,1.21,0,0,1,0-2.419H62.386a1.21,1.21,0,1,1,0,2.419" transform="translate(-18.36 -58.58)" fill="#38bcb1" stroke="#38bcb1" stroke-width="1"/>
  </g>
</svg>
