<svg id="right_1_svg" xmlns="http://www.w3.org/2000/svg" xmlns:xlink="http://www.w3.org/1999/xlink" width="106.977" height="113.461" viewBox="0 0 106.977 113.461">
  <defs>
    <clipPath id="clip-path">
      <rect id="Rectangle_366" data-name="Rectangle 366" width="106.977" height="113.461" fill="#38bcb1" stroke="#38bcb1" stroke-width="1"/>
    </clipPath>
  </defs>
  <g id="Group_19" data-name="Group 19" clip-path="url(#clip-path)">
    <path id="Path_18" data-name="Path 18" d="M28.951,215.189a1.2,1.2,0,0,1-1.2-1.2V200.637a1.2,1.2,0,0,1,1.2-1.2H45.11a2.693,2.693,0,1,0,0-5.386l-35.46,0a7.265,7.265,0,0,0-7.257,7.257V213.99a1.2,1.2,0,0,1-2.393,0V201.309a9.661,9.661,0,0,1,9.65-9.65l35.46,0a5.086,5.086,0,0,1,0,10.172H30.148v12.159a1.2,1.2,0,0,1-1.2,1.2" transform="translate(0 -101.728)" fill="#38bcb1" stroke="#38bcb1" stroke-width="1"/>
    <path id="Path_19" data-name="Path 19" d="M28.745,156.5A10.883,10.883,0,1,1,39.628,145.62,10.9,10.9,0,0,1,28.745,156.5m0-19.373a8.49,8.49,0,1,0,8.49,8.49,8.5,8.5,0,0,0-8.49-8.49" transform="translate(-9.481 -71.515)" fill="#38bcb1" stroke="#38bcb1" stroke-width="1"/>
    <path id="Path_20" data-name="Path 20" d="M142.253,215.189a1.2,1.2,0,0,1-1.2-1.2V201.833H126.094a5.086,5.086,0,0,1,0-10.172l35.46,0a9.662,9.662,0,0,1,9.651,9.65V213.99a1.2,1.2,0,0,1-2.393,0V201.309a7.266,7.266,0,0,0-7.258-7.257l-35.46,0a2.693,2.693,0,1,0,0,5.386h16.159a1.2,1.2,0,0,1,1.2,1.2v13.356a1.2,1.2,0,0,1-1.2,1.2" transform="translate(-64.228 -101.728)" fill="#38bcb1" stroke="#38bcb1" stroke-width="1"/>
    <path id="Path_21" data-name="Path 21" d="M174.619,156.5A10.883,10.883,0,1,1,185.5,145.62,10.9,10.9,0,0,1,174.619,156.5m0-19.373a8.49,8.49,0,1,0,8.49,8.49,8.5,8.5,0,0,0-8.49-8.49" transform="translate(-86.907 -71.515)" fill="#38bcb1" stroke="#38bcb1" stroke-width="1"/>
    <path id="Path_22" data-name="Path 22" d="M112.639,10.992a1.2,1.2,0,0,1-1.2-1.2V1.2a1.2,1.2,0,0,1,2.393,0V9.8a1.2,1.2,0,0,1-1.2,1.2" transform="translate(-59.15)" fill="#38bcb1" stroke="#38bcb1" stroke-width="1"/>
    <path id="Path_23" data-name="Path 23" d="M152.209,29.063a1.2,1.2,0,0,1-.854-2.035l5.672-5.771a1.2,1.2,0,0,1,1.707,1.677L153.063,28.7a1.193,1.193,0,0,1-.854.358" transform="translate(-80.154 -11.092)" fill="#38bcb1" stroke="#38bcb1" stroke-width="1"/>
    <path id="Path_24" data-name="Path 24" d="M66.652,29.063A1.193,1.193,0,0,1,65.8,28.7l-5.672-5.771a1.2,1.2,0,0,1,1.707-1.677l5.672,5.771a1.2,1.2,0,0,1-.854,2.035" transform="translate(-31.732 -11.092)" fill="#38bcb1" stroke="#38bcb1" stroke-width="1"/>
    <path id="Path_25" data-name="Path 25" d="M181.127,71.406H172.8a1.2,1.2,0,0,1,0-2.393h8.331a1.2,1.2,0,0,1,0,2.393" transform="translate(-91.081 -36.63)" fill="#38bcb1" stroke="#38bcb1" stroke-width="1"/>
    <path id="Path_26" data-name="Path 26" d="M43.058,71.406H34.727a1.2,1.2,0,1,1,0-2.393h8.331a1.2,1.2,0,1,1,0,2.393" transform="translate(-17.797 -36.63)" fill="#38bcb1" stroke="#38bcb1" stroke-width="1"/>
    <path id="Path_27" data-name="Path 27" d="M103.356,145.885a9.413,9.413,0,0,1-9.4-9.4v-4.308a1.2,1.2,0,0,1,1.2-1.2h16.412a1.2,1.2,0,0,1,1.2,1.2v4.308a9.413,9.413,0,0,1-9.4,9.4m-7.009-12.514v3.112a7.009,7.009,0,0,0,14.019,0v-3.112Z" transform="translate(-49.868 -69.52)" fill="#38bcb1" stroke="#38bcb1" stroke-width="1"/>
    <path id="Path_28" data-name="Path 28" d="M101.63,89.083H85.239a1.2,1.2,0,0,1-1.193-1.105l-.4-5.238a4.008,4.008,0,0,0-1.52-2.806,18.037,18.037,0,0,1-6.856-14.771A18.289,18.289,0,0,1,92.257,47.575h0a18.033,18.033,0,0,1,13.616,4.884,18.174,18.174,0,0,1-1.151,27.494,3.887,3.887,0,0,0-1.492,2.718l-.407,5.307a1.2,1.2,0,0,1-1.193,1.105M86.347,86.69h14.174l.322-4.2a6.284,6.284,0,0,1,2.391-4.41A15.78,15.78,0,0,0,92.408,49.963h0A15.876,15.876,0,0,0,77.661,65.233a15.663,15.663,0,0,0,5.954,12.829,6.407,6.407,0,0,1,2.416,4.5Zm5.985-37.921h0Z" transform="translate(-39.946 -25.231)" fill="#38bcb1" stroke="#38bcb1" stroke-width="1"/>
  </g>
</svg>
