<svg id="right_2_svg" xmlns="http://www.w3.org/2000/svg" xmlns:xlink="http://www.w3.org/1999/xlink" width="102.837" height="105.311" viewBox="0 0 102.837 105.311">
  <defs>
    <clipPath id="clip-path">
      <rect id="Rectangle_367" data-name="Rectangle 367" width="102.837" height="105.311" fill="#38bcb1" stroke="#38bcb1" stroke-width="1"/>
    </clipPath>
  </defs>
  <g id="Group_21" data-name="Group 21" clip-path="url(#clip-path)">
    <path id="Path_29" data-name="Path 29" d="M47.653,36.169c-3.347,0-6.09-2.326-6.245-5.295L40.156,6.941A6.147,6.147,0,0,1,41.9,2.369a8.167,8.167,0,0,1,11.5,0A6.144,6.144,0,0,1,55.15,6.941L53.9,30.875c-.155,2.969-2.9,5.295-6.246,5.295m0-33.893a5.637,5.637,0,0,0-4.1,1.66A3.892,3.892,0,0,0,42.43,6.822l1.252,23.934c.092,1.759,1.836,3.137,3.972,3.137s3.881-1.378,3.972-3.137L52.876,6.822a3.889,3.889,0,0,0-1.122-2.885,5.638,5.638,0,0,0-4.1-1.66" transform="translate(-22.228)" fill="#38bcb1" stroke="#38bcb1" stroke-width="1"/>
    <path id="Path_30" data-name="Path 30" d="M48.734,102.665a6.634,6.634,0,1,1,6.634-6.634,6.641,6.641,0,0,1-6.634,6.634m0-10.991a4.357,4.357,0,1,0,4.358,4.357,4.363,4.363,0,0,0-4.358-4.357" transform="translate(-23.309 -49.496)" fill="#38bcb1" stroke="#38bcb1" stroke-width="1"/>
    <path id="Path_31" data-name="Path 31" d="M83.231,81.8a1.138,1.138,0,0,1-1.138-1.138V70.519A12.639,12.639,0,0,1,94.757,57.635l25.864.037,17.527-13.978a6.189,6.189,0,0,1,8.769.922,6.456,6.456,0,0,1,1.373,3.989,6.349,6.349,0,0,1-2.279,4.921L124.866,71.173v4.369a1.138,1.138,0,0,1-2.276,0v-4.9a1.137,1.137,0,0,1,.409-.874l21.556-17.991a4.083,4.083,0,0,0,1.458-3.17,4.187,4.187,0,0,0-.885-2.582,3.9,3.9,0,0,0-2.664-1.442,3.856,3.856,0,0,0-2.878.878L121.728,59.7a1.136,1.136,0,0,1-.71.249h0l-26.261-.038A10.268,10.268,0,0,0,84.369,70.519V80.664A1.138,1.138,0,0,1,83.231,81.8" transform="translate(-45.451 -23.411)" fill="#38bcb1" stroke="#38bcb1" stroke-width="1"/>
    <path id="Path_32" data-name="Path 32" d="M130.338,31.758a12.82,12.82,0,1,1,12.819-12.819,12.834,12.834,0,0,1-12.819,12.819m0-23.363a10.543,10.543,0,1,0,10.543,10.544A10.555,10.555,0,0,0,130.338,8.4" transform="translate(-65.065 -3.388)" fill="#38bcb1" stroke="#38bcb1" stroke-width="1"/>
    <path id="Path_33" data-name="Path 33" d="M105.316,212.1a1.138,1.138,0,0,1-1.138-1.138v-4.3a11.521,11.521,0,0,0-11.509-11.508h-13.4a11.521,11.521,0,0,0-11.508,11.508v4.3a1.138,1.138,0,0,1-2.276,0v-4.3a13.8,13.8,0,0,1,13.785-13.785h13.4a13.8,13.8,0,0,1,13.785,13.785v4.3a1.138,1.138,0,0,1-1.138,1.138" transform="translate(-36.253 -106.785)" fill="#38bcb1" stroke="#38bcb1" stroke-width="1"/>
    <path id="Path_34" data-name="Path 34" d="M98.026,155.009a10.765,10.765,0,1,1,10.765-10.765,10.777,10.777,0,0,1-10.765,10.765m0-19.254a8.489,8.489,0,1,0,8.489,8.489,8.5,8.5,0,0,0-8.489-8.489" transform="translate(-48.313 -73.902)" fill="#38bcb1" stroke="#38bcb1" stroke-width="1"/>
    <path id="Path_35" data-name="Path 35" d="M183.991,201.12a1.138,1.138,0,0,1-1.138-1.138,10.78,10.78,0,0,0-10.767-10.768H159.468a10.66,10.66,0,0,0-3.189.487,1.138,1.138,0,0,1-.68-2.173,12.942,12.942,0,0,1,3.869-.59h12.619a13.058,13.058,0,0,1,13.043,13.044,1.138,1.138,0,0,1-1.138,1.138" transform="translate(-85.707 -103.5)" fill="#38bcb1" stroke="#38bcb1" stroke-width="1"/>
    <path id="Path_36" data-name="Path 36" d="M166.745,151.424a10.2,10.2,0,1,1,10.2-10.2,10.212,10.212,0,0,1-10.2,10.2m0-18.126a7.925,7.925,0,1,0,7.925,7.925,7.933,7.933,0,0,0-7.925-7.925" transform="translate(-86.672 -72.541)" fill="#38bcb1" stroke="#38bcb1" stroke-width="1"/>
    <path id="Path_37" data-name="Path 37" d="M1.138,201.12A1.138,1.138,0,0,1,0,199.982a13.058,13.058,0,0,1,13.043-13.044H25.662a12.942,12.942,0,0,1,3.869.59,1.138,1.138,0,0,1-.68,2.173,10.66,10.66,0,0,0-3.189-.487H13.043A10.78,10.78,0,0,0,2.276,199.982a1.138,1.138,0,0,1-1.138,1.138" transform="translate(0 -103.5)" fill="#38bcb1" stroke="#38bcb1" stroke-width="1"/>
    <path id="Path_38" data-name="Path 38" d="M30.708,151.424a10.2,10.2,0,1,1,10.2-10.2,10.212,10.212,0,0,1-10.2,10.2m0-18.126a7.925,7.925,0,1,0,7.924,7.925,7.934,7.934,0,0,0-7.924-7.925" transform="translate(-11.354 -72.541)" fill="#38bcb1" stroke="#38bcb1" stroke-width="1"/>
  </g>
</svg>
