<svg id="title1_svg" xmlns="http://www.w3.org/2000/svg" xmlns:xlink="http://www.w3.org/1999/xlink" width="293.999" height="45.737" viewBox="0 0 293.999 45.737">
  <defs>
    <clipPath id="clip-path">
      <rect id="Rectangle_437" data-name="Rectangle 437" width="293.999" height="45.737" fill="none"/>
    </clipPath>
  </defs>
  <g id="Group_150" data-name="Group 150" transform="translate(0 0)" clip-path="url(#clip-path)">
    <path id="Path_281" data-name="Path 281" d="M235.766,23.706l-2.815-1.054c-4.356,3.907-8.787,7.879-13.212,11.86a6.227,6.227,0,0,0-.659.775c-1.584,1.989-1.892,1.974-3.959-.428a15.574,15.574,0,0,1,1.73-1.989c4.256-3.529,8.507-7.069,12.867-10.467,1.069-.832,2.543-1.145,4.25-1.877.589-2.12,1.318-4.717,2.03-7.319.474-1.734.638-1.809,2.446-1.746,1.083.037,2.173-.132,3.26-.2a43.413,43.413,0,0,1,6.335-.335c3.013.255,4.42,2.043,4.025,5.054a43.262,43.262,0,0,1-1.631,6.934,75.884,75.884,0,0,1-7.893,18.221c-.27.433-.511.889-.821,1.293-1.36,1.772-2.2,1.807-4.122.206,5.629-7.468,8.728-16.05,10.866-25.018.849-3.566.021-4.371-3.656-3.613a31.482,31.482,0,0,0-5.934,2.183c-.423.182-.69.907-.868,1.437-.379,1.128-.6,2.311-.99,3.433a28.3,28.3,0,0,1-1.252,2.652" transform="translate(14.165 0.716)"/>
    <path id="Path_282" data-name="Path 282" d="M87.774,17.011c-.126-1.285-.176-2.465-.374-3.62a1.32,1.32,0,0,1,1.275-1.767c1.143-.172,1.843.285,2,1.37.125.892.148,1.8.244,3.056,1.524-.57,2.693-1,3.851-1.448.392-.152.764-.545,1.132-.528.7.032,1.721.055,2.012.486.594.879-.162,1.6-.964,2-1.745.86-3.527,1.641-5.286,2.451,0,1.32-.075,2.586.013,3.842.412,5.943.879,11.882,1.3,17.825a10.212,10.212,0,0,1-.143,2.277c-.144.925-.367,2.182-1.488,2a6.3,6.3,0,0,1-2.65-1.718c-.177-.151.079-.887.231-1.321.207-.587.757-1.156.726-1.711-.269-4.92-.633-9.836-1.388-14.956-.329.578-.707,1.133-.982,1.736a34.806,34.806,0,0,1-5.662,8.756c-.751.846-1.581,1.633-2.839,1.329a2.071,2.071,0,0,1-1.167-.766c-.124-.189.151-.794.406-1.056a32.609,32.609,0,0,0,6.8-10.679c.641-1.587,1.213-3.368,3.022-4.34-1.808.563-3.617,1.119-5.423,1.69a24.663,24.663,0,0,1-2.667.853,3.164,3.164,0,0,1-1.937-.139,2.3,2.3,0,0,1-1.052-1.506c-.044-.3.708-.9,1.2-1.05,2.269-.7,4.581-1.26,6.86-1.931.964-.284,1.883-.716,2.966-1.137" transform="translate(5.054 0.763)"/>
    <path id="Path_283" data-name="Path 283" d="M38.34,27.14c-1.4.325-2.717.343-3.426-1.3.681-1.507,2.26-1.631,3.7-2.317.041-.761.088-1.589.126-2.418.056-1.267.652-1.86,1.866-1.845,1.17.014,1.525.452,1.6,1.949a3.885,3.885,0,0,0,.2.673c1.17-.421,2.363-.78,3.486-1.292a1.7,1.7,0,0,0,.852-1.116c.22-1.621,1.479-1.7,2.474-1.4a5.552,5.552,0,0,0,3.186.166,1.626,1.626,0,0,1,1.006.037c.42.188,1.1.559,1.081.8A1.843,1.843,0,0,1,53.7,20.4c-1.131.552-2.357.91-3.742,1.418a27.916,27.916,0,0,1-.029,3.366,13.43,13.43,0,0,1-.807,3.173,1.687,1.687,0,0,1-2.283,1.07c-.945-.393-.8-1.264-.545-2.187A38.538,38.538,0,0,0,46.966,23c-1.812.774-3.134,1.293-4.407,1.911a1.427,1.427,0,0,0-.719.957c-.242,2.957-.741,5.982,1.413,8.537,3.1,3.677,6.972,4.211,10.208.559.962-1.087,1.588-2.7,3.626-2.686.079.5.355,1.053.191,1.4-1.265,2.667-2.961,4.915-5.866,6.053-4.738,1.859-12.09-2.422-12.752-7.9-.181-1.5-.21-3.018-.319-4.69" transform="translate(2.299 1.181)"/>
    <path id="Path_284" data-name="Path 284" d="M123.889,21.883c1.807-.514,3.408-1.01,5.029-1.423,3.208-.815,4.067-.264,4.153,3.044s.174,6.656-1.02,9.841a8.751,8.751,0,0,1-1.048,2,1.925,1.925,0,0,1-2.7.645c-.973-.595-2.561-.913-1.946-2.878l1.849.218a13.92,13.92,0,0,0,1.192-9.715c-1.868.027-3.55.881-5.262,1.5-.45.163-.762,1.042-.909,1.649-.913,3.788-1.762,7.591-2.616,11.316-2.43.266-2.833.01-2.563-1.89.336-2.353.87-4.678,1.315-7.015.158-.827.307-1.655.439-2.374l-2.226-2.409a16.294,16.294,0,0,1,1.338-1.036,13,13,0,0,1,1.471-.633c0-1.17-.026-2.425.007-3.678.033-1.223.694-1.783,1.971-1.735,1.159.043,1.678.594,1.548,1.8-.088.824-.017,1.666-.017,2.769" transform="translate(7.742 1.14)"/>
    <path id="Path_285" data-name="Path 285" d="M148.565,23.933c-1.552.3-2.866.576-4.191.781-.567.088-1.318.248-1.7-.025a8.373,8.373,0,0,1-1.487-1.849c.528-.356,1.015-.92,1.59-1.031,1.822-.351,3.675-.532,5.746-.809.08-1.54.153-2.944.226-4.333,2.678-1.5,3.338-.951,3.39,3.192.917-.223,1.777-.4,2.619-.645a11.209,11.209,0,0,1,2.419-.75c.549-.023,1.123.537,1.686.837-.314.54-.5,1.333-.968,1.573a26.289,26.289,0,0,1-3.808,1.447c-2.049.674-1.971.658-2.146,2.822-.327,4.062-.743,8.116-1.175,12.168a5.674,5.674,0,0,1-.667,2.171,1.674,1.674,0,0,1-1.3.8,1.643,1.643,0,0,1-1.041-1.175,28.479,28.479,0,0,1,.213-3.814c.245-2.88.535-5.755.747-8.636a21.96,21.96,0,0,0-.155-2.723" transform="translate(9.297 1.047)"/>
    <path id="Path_286" data-name="Path 286" d="M265.835,15.7c-2.929-1.333-3.314-2.981-1.032-4.663A8.842,8.842,0,0,1,273.935,9.7c2.626,1.118,3.3,2.894,2.254,5.569a20.482,20.482,0,0,1-5.364,7.346c-.492.464-1.078.828-1.808,1.38,1.547,1.165,3.48,1.429,3.6,3.322.035.535-.493,1.106-.894,1.929A5.75,5.75,0,0,0,267.2,27.4c-1.517-.012-1.944-.491-3.274-2.467.55-.524,1.13-1.094,1.727-1.644,2.567-2.361,5.183-4.692,6.849-7.818.405-.76.823-1.933.513-2.558-.535-1.081-1.847-.925-2.974-.763a5.407,5.407,0,0,0-4.206,3.547" transform="translate(17.34 0.591)"/>
    <path id="Path_287" data-name="Path 287" d="M23.68,32.374c1.2.556,2.391,1.074,3.536,1.68.187.1.165.589.276,1.05l-4.943.242c-.557,1.14-1.039,2.222-1.6,3.259-.925,1.7-2.149,3.292-4.254,3.127a5.464,5.464,0,0,1-4.657-3.475c-1.357-3.043-.7-4.481,2.514-5.1,1.817-.353,3.677-.486,5.624-.73a21.265,21.265,0,0,0,1.373-7.441c.016-1.6.317-2.007,1.523-2.021,1.326-.016,1.865.588,1.674,2.155-.3,2.429-.7,4.844-1.065,7.257m-4.789,3.22a5.094,5.094,0,0,0-4.177.776c.1,1.128.386,2.157,1.478,2.425,1.277.314,1.636-.881,2.106-1.741a14.219,14.219,0,0,0,.593-1.46" transform="translate(0.749 1.512)"/>
    <path id="Path_288" data-name="Path 288" d="M167.964,26.333c-1.442,1.705-2.5,3.142-3.749,4.382-1.379,1.367-1.812,1.273-3.751-.228a48.712,48.712,0,0,0,3.416-4c2.076-3,3.962-6.139,6.02-9.158a3.848,3.848,0,0,1,1.94-1.413,2.047,2.047,0,0,1,1.714.64c.24.274.043,1.149-.225,1.6a22.9,22.9,0,0,1-1.745,2.192,3.091,3.091,0,0,0-.573,3.161c1.082,3.917,1.7,7.968,2.389,11.985.163.942.317,2.151-.945,2.632-.777.3-1.67-.583-2.072-2.144-.679-2.634-1.25-5.3-1.88-7.943-.112-.471-.29-.926-.538-1.7" transform="translate(10.566 1.046)"/>
    <path id="Path_289" data-name="Path 289" d="M.473,16.673c1.423-.655,2.966-1,3.945-1.928.878-.837,1.135-2.325,1.68-3.556,1.519-.4,2.127.446,2.335,1.872,1.419-.128,2.8-1.3,4.256.125-.674,1.244-2.014,1.435-3.117,1.786A2.889,2.889,0,0,0,7.26,17.889c-.278,6.437-2.092,12.55-3.984,18.647-.226.729-.415,1.47-.635,2.2-.508,1.682-.513,1.681-2.575,1-.3-1.885.479-3.621.958-5.4C2,30.722,3.1,27.14,3.946,23.5a50.273,50.273,0,0,0,.695-5.941c-1.388-1.118-3.009,1.88-4.167-.884" transform="translate(0 0.73)"/>
    <path id="Path_290" data-name="Path 290" d="M206.429,21.746c-1.665,2.191-3.178,4.325-4.838,6.339-3.185,3.865-6.47,7.647-9.678,11.494-1.49,1.787-2.051,1.787-3.785-.385a21.124,21.124,0,0,1,1.266-1.723Q195.412,30.721,201.46,24c.735-.822,1.476-1.642,2.176-2.494.786-.956,1.565-.8,2.793.244" transform="translate(12.388 1.374)"/>
    <path id="Path_291" data-name="Path 291" d="M110.78,26.217c.289.228.978.553.951.8a1.827,1.827,0,0,1-.818,1.311,46.113,46.113,0,0,1-4.78,1.726c-1.543.469-3.152.724-4.684,1.219a2.324,2.324,0,0,1-2.5-.807c-.806-.761-.637-1.637.412-1.922.892-.242,1.861-.188,2.77-.382,2.329-.495,4.644-1.055,6.964-1.586.5-.113,1-.211,1.686-.356" transform="translate(6.482 1.726)"/>
    <path id="Path_292" data-name="Path 292" d="M187.733,24.038a32.469,32.469,0,0,1,4.753,1.564,5.205,5.205,0,0,1,1.863,2.278c.184.346-.134,1.134-.466,1.507-.163.183-1.082.048-1.3-.229-1.429-1.768-3.341-1.722-5.338-1.739a5.64,5.64,0,0,1-2.509-.9,1.379,1.379,0,0,1-.485-1.244,1.674,1.674,0,0,1,1.116-.835,14,14,0,0,1,2.278-.169l.093-.231" transform="translate(12.131 1.583)"/>
    <path id="Path_293" data-name="Path 293" d="M17.155,18.548a1.6,1.6,0,0,1,2.09-1.209c3,.421,5.991.929,8.983,1.417a2.61,2.61,0,0,1,1.208.317,1.654,1.654,0,0,1,.636,1.193,1.3,1.3,0,0,1-1.006.794c-3.276-.352-6.553-.739-9.806-1.262-.732-.117-1.375-.8-2.105-1.249" transform="translate(1.13 1.138)"/>
    <path id="Path_294" data-name="Path 294" d="M247.518,2.92a3.941,3.941,0,0,1,1.237.432c1.908,1.4,3.792,2.828,5.635,4.307.589.473,1.176,1.167.489,1.949-.653.747-1.346.294-2.023-.139-1.639-1.05-3.331-2.019-4.951-3.1A5.855,5.855,0,0,1,246.3,4.807c-.677-1.015-.175-1.86,1.218-1.887" transform="translate(16.199 0.192)"/>
    <path id="Path_295" data-name="Path 295" d="M252.463.886c.941-.9,2.012-1.221,2.847-.452,1.859,1.713,3.574,3.588,5.275,5.464a1.528,1.528,0,0,1,.02,1.337,1.154,1.154,0,0,1-1.1.193c-2.159-1.62-4.293-3.277-6.364-5.009-.39-.326-.469-1.025-.682-1.532" transform="translate(16.624 0)"/>
    <path id="Path_296" data-name="Path 296" d="M192.74,19.755c-2.141-.319-4.286-.608-6.416-.981a2.192,2.192,0,0,1-1.277-.732c-.362-.477-.821-1.266-.647-1.663a1.9,1.9,0,0,1,1.6-.853,40.186,40.186,0,0,1,5.879,1.413c1.252.416,1.369,1.183.859,2.815" transform="translate(12.14 1.022)"/>
    <path id="Path_297" data-name="Path 297" d="M130.969,12.317c1.762-1.483,2.484-1.569,3.686-.562,1.235,1.035,2.457,2.086,3.685,3.129.129.11.333.2.376.334.189.6.331,1.208.491,1.813-.551.053-1.194.319-1.636.125a15.441,15.441,0,0,1-6.6-4.839" transform="translate(8.624 0.73)"/>
    <path id="Path_298" data-name="Path 298" d="M213.924,21.158a4.308,4.308,0,0,1,5.095.879c1.131,1.081,1.414,2.769.7,4.787-.4-.358-.742-.649-1.063-.966-.954-.941-1.763-2-3.19-2.4a2.142,2.142,0,0,1-1.538-2.3" transform="translate(14.086 1.362)"/>
    <path id="Path_299" data-name="Path 299" d="M211.4,12.775c-2.238-1.552-4.172-2.822-6-4.228-.314-.242-.355-1.117-.2-1.591.092-.277.832-.484,1.276-.475,2.418.05,5.085,3.1,4.921,6.295" transform="translate(13.506 0.427)"/>
    <path id="Path_300" data-name="Path 300" d="M199.111,8.373a7.872,7.872,0,0,1,1.39.59c1.31.936,2.628,1.869,3.855,2.908a1.826,1.826,0,0,1,.64,1.451c-.244.9-1.122.7-1.7.393-1.713-.917-3.4-1.889-5.018-2.959-.385-.255-.766-1.156-.6-1.448.264-.467.989-.671,1.431-.935" transform="translate(13.014 0.551)"/>
    <path id="Path_301" data-name="Path 301" d="M52.3,14.594c2.5-1.381,2.795-1.244,3.769.836.453.968,1.359,1.715,1.911,2.65a4.01,4.01,0,0,1,.169,1.585c-.537.021-1.241.273-1.584.026a10.316,10.316,0,0,1-4.266-5.1" transform="translate(3.444 0.901)"/>
    <path id="Path_302" data-name="Path 302" d="M137.881,9.439c1.82-1.487,2.4-1.5,3.592-.069a35.53,35.53,0,0,1,2.279,3.007,1.209,1.209,0,0,1-.09,1.135,1.167,1.167,0,0,1-1.095.261c-1.786-1.193-3.911-2.063-4.687-4.334" transform="translate(9.079 0.547)"/>
    <path id="Path_303" data-name="Path 303" d="M269.361,39.479a13.066,13.066,0,0,1-2.149-2.352c-.322-.615,1.29-2.421,2.328-2.737a4.059,4.059,0,0,1,1.742-.173,1.186,1.186,0,0,1,.87,1.9c-.7,1.039-1.6,1.949-2.79,3.363" transform="translate(17.593 2.251)"/>
    <path id="Path_304" data-name="Path 304" d="M62.66,16.748c-1.642-.313-4.387-2.767-4.462-3.988-.021-.347.241-.962.487-1.027.683-.181,1.826-.451,2.077-.13,1.146,1.463,2.382,3.008,1.9,5.146" transform="translate(3.832 0.754)"/>
    <path id="Path_305" data-name="Path 305" d="M18.684,34.822a14.219,14.219,0,0,1-.593,1.46c-.47.859-.829,2.055-2.106,1.741-1.092-.268-1.381-1.3-1.478-2.425a5.094,5.094,0,0,1,4.177-.776" transform="translate(0.955 2.283)" fill="#fff"/>
  </g>
</svg>
