<svg xmlns="http://www.w3.org/2000/svg" width="61.451" height="84.275" viewBox="0 0 61.451 84.275">
  <path id="Path_45" data-name="Path 45" d="M1032.573,3483.134a36.635,36.635,0,0,0-16.1-16.98,4.8,4.8,0,0,0-2.111-.432,16.794,16.794,0,0,0,4.446-16.668,7.6,7.6,0,1,0-8.524-10.427,16.791,16.791,0,0,0-14.678-.372,7.578,7.578,0,1,0-9.225,10.519,16.859,16.859,0,0,0,4.412,16.982,4.807,4.807,0,0,0-2.66.4,36.634,36.634,0,0,0-16.1,16.98,4.835,4.835,0,1,0,8.76,4.094,27.367,27.367,0,0,1,4.014-6.208c-1.113,5.277-1.2,10.587,1.29,14.572a12.3,12.3,0,0,0-.5,11.365c1.232,2.566.419,3.469.072,3.854-1.994,2.217-1.378,5.315,1.376,6.921,1.091.635,3.922,1.212,7.073-1.167,2.985-2.254,5.928-8.709,4.391-13.123a6.2,6.2,0,0,1-.3-1.494,37.864,37.864,0,0,0,4.379.246,37.179,37.179,0,0,0,4.316-.244,6.127,6.127,0,0,1-.3,1.492c-1.537,4.414,1.4,10.869,4.391,13.123,3.15,2.379,5.982,1.8,7.073,1.167,2.754-1.606,3.37-4.7,1.375-6.921-.347-.385-1.159-1.288.073-3.854a12.356,12.356,0,0,0-.6-11.557c2.236-3.868,2.166-8.924,1.269-13.925a27.379,27.379,0,0,1,3.628,5.753,4.835,4.835,0,1,0,8.76-4.094Z" transform="translate(-971.578 -3434.015)" fill="#e45560"/>
</svg>
