<svg xmlns="http://www.w3.org/2000/svg" width="75.142" height="82.55" viewBox="0 0 75.142 82.55">
  <g id="Group_17" data-name="Group 17" transform="translate(-1333.319 -3429.639)">
    <path id="Path_46" data-name="Path 46" d="M1395.212,3500.717c-.043.363-.085.59-.085.59s-.33,4.73,1.072,6.362l.036,0A37.82,37.82,0,0,0,1395.212,3500.717Z" fill="#e45560"/>
    <path id="Path_47" data-name="Path 47" d="M1408.46,3438.914c-.073-.644-1.038-.65-2.97-.326a10.688,10.688,0,0,0-2.056.554c-1.446.012-5.416.682-5.416.682s.686-1.175,4.1-3.928,2.006-4.2,2.006-4.2a3.062,3.062,0,0,0-.331-1.748c-.448-.64-1.606-.1-1.606-.1-1.214-.208-7.829,5.107-10.471,4.832a7.1,7.1,0,0,0-4.671,1.54c-.186.14-.288.231-.288.231-.956-.592-1.707-3.8-1.707-3.8-2.9-.261-2.37,3.127-2.37,3.127s-5.171-3.108-5.762-.938c-.387,1.42.98,3.12,1.971,4.125a5.455,5.455,0,0,1,1.245,2.022,14.081,14.081,0,0,0,1.358,2.7c-.981,6.107,4.606,6.853-.857,21.732a7.589,7.589,0,0,1-1.024,2.506c-19.836,22.834-22.145,26.244-22.236,32.248-.063,4.095-1.752,5.892-1.752,5.892-2.943.35-8.142-2.536-14.193-2.02-4.542.387-8.259,2.359-8.1,4.678.437,6.572,12.066,1.79,12.066,1.79-8.206.3-7.076-1.79-6.653-2.135a4.389,4.389,0,0,1,2.969-.651c7.108.978,9.128,2.714,16.333,3.733,5.694.8,20.965.983,21.227-.4s-1.631-1.624-1.631-1.624a7.716,7.716,0,0,0,5.78-8.252c1.477.889,4.219-.7,6.343-2.275,1.322,3.142,1.691,7.7,1.792,9.9a1.671,1.671,0,0,0,1.4,1.572c1.41.233,3.472.395,3.957-.526l-.149-.307a1.683,1.683,0,0,0,.919.478c1.411.232,3.473.394,3.958-.527l-.164-.337c.972.012,1.1-.556,1.1-.556-.138-1.224-1.651-1.293-1.651-1.293-1.4-1.632-1.073-6.362-1.073-6.362a9.906,9.906,0,0,0-.261-4.688c-.787-1.953-.87-10.357-.87-10.357,3.153-4.26,4.875-12.984,3.914-23.318-.366-3.943-.045-4.266-3.921-11.832-1.818-3.549-1-5.067-1-5.067.169-1.062,6.267-2.644,7.909-3.716s.6-1.942.6-1.942S1408.534,3439.557,1408.46,3438.914Zm-13.333,62.393s.042-.227.085-.59a37.82,37.82,0,0,1,1.023,6.954l-.036,0C1394.8,3506.037,1395.127,3501.307,1395.127,3501.307Z" fill="#e45560"/>
  </g>
</svg>
