<svg xmlns="http://www.w3.org/2000/svg" width="47.151" height="73.288" viewBox="0 0 47.151 73.288">
  <path id="scissors_クリッピングパス" data-name="scissors クリッピングパス" d="M635.9,3489.03c5.063,0,9.168,5.278,9.168,11.788s-4.105,11.788-9.168,11.788-9.168-5.277-9.168-11.788a13.038,13.038,0,0,1,3.8-9.524l-9.043-12.98-9.046,12.98a13.032,13.032,0,0,1,3.807,9.524c0,6.511-4.106,11.788-9.169,11.788s-9.168-5.277-9.168-11.788,4.106-11.788,9.168-11.788a7.251,7.251,0,0,1,1.525.2l9.1-16.339-9.514-13.652c-7.756-13.436-1.622-19.918-1.622-19.918l14.917,26.781,14.916-26.781s6.134,6.482-1.622,19.918l-9.513,13.652,9.1,16.339A7.233,7.233,0,0,1,635.9,3489.03Zm-28.815,5.186c-2.893,0-5.239,2.931-5.239,6.548s2.346,6.549,5.239,6.549,5.239-2.931,5.239-6.549S609.975,3494.216,607.081,3494.216Zm14.408-23.3a2.62,2.62,0,1,0,2.619,2.617A2.617,2.617,0,0,0,621.489,3470.914Zm9.168,29.85c0,3.618,2.346,6.549,5.239,6.549s5.239-2.931,5.239-6.549-2.346-6.548-5.239-6.548S630.657,3497.147,630.657,3500.764Z" transform="translate(-597.913 -3439.318)" fill="#e45560" fill-rule="evenodd"/>
</svg>
