<svg id="bottom_part" xmlns="http://www.w3.org/2000/svg" xmlns:xlink="http://www.w3.org/1999/xlink" width="11.469" height="191.703" viewBox="0 0 11.469 191.703">
  <defs>
    <clipPath id="clip-path">
      <rect id="Rectangle_422" data-name="Rectangle 422" width="11.469" height="191.703" fill="#fff"/>
    </clipPath>
  </defs>
  <g id="Group_124" data-name="Group 124" clip-path="url(#clip-path)">
    <path id="Path_280" data-name="Path 280" d="M3.342,15.17a24.846,24.846,0,0,1-.84,2.638v8.1H1.4V20.194q-.291.527-.79,1.282l-.47-1.26a13.352,13.352,0,0,0,1.372-2.935q.325-.963.683-2.386l1.148.274ZM3.662,1.178q-.151.369-.347.767h7.023V2.953h-7.6A8.621,8.621,0,0,1,1.276,4.639l-.93-.857A6.108,6.108,0,0,0,2.362.959l1.3.219ZM7.2,97.732h1.26v2.375H10.8v1.148H8.456a15.354,15.354,0,0,1-.263,2.974,4.629,4.629,0,0,1-1.271,2.43A5.91,5.91,0,0,1,4.843,107.9l-.79-.986A4.23,4.23,0,0,0,6.7,104.761a9.577,9.577,0,0,0,.493-3.506H3.9v3.1H2.643v-3.1H.542v-1.148h2.1v-2.3H3.9v2.3H7.2ZM.654,10.833A8.318,8.318,0,0,0,3.863,9.046,20.592,20.592,0,0,0,1.494,7.78l.8-.823A22.339,22.339,0,0,1,4.659,8.189,9.951,9.951,0,0,0,5.74,6.5l1.142.459A10.193,10.193,0,0,1,5.694,8.833q.986.638,2,1.451l-.818.952q-1.008-.84-2-1.523a9.634,9.634,0,0,1-3.433,2.05l-.8-.93Zm8.72-5.645v.151a16.83,16.83,0,0,0,.381,4.267q.162.56.246.56.051,0,.14-.3A6.621,6.621,0,0,0,10.36,8.5l1.075.8a8.521,8.521,0,0,1-.409,1.8q-.325.784-.874.784a1.3,1.3,0,0,1-.946-.56,4.209,4.209,0,0,1-.812-1.938A18.191,18.191,0,0,1,8.12,6.324v-.14H.761v-1ZM6.8,29.124H8.08v2.162h2.66v1.148H8.08v5.539a1.437,1.437,0,0,1-.218.891,1.266,1.266,0,0,1-1.03.325q-.879,0-1.73-.056l-.3-1.215q.812.079,1.663.078.263,0,.308-.118a.554.554,0,0,0,.028-.2V33a17.684,17.684,0,0,1-2.391,2.834,13.886,13.886,0,0,1-2.834,2.044l-.8-1.092a14.461,14.461,0,0,0,5.152-4.357H1.013V31.285H6.8ZM5.314,70.379H6.6v2.627h4.245v1.171H6.6a14.069,14.069,0,0,1-.179,2.554,5.436,5.436,0,0,1-3.478,3.948L2.15,79.637a4.868,4.868,0,0,0,2.654-2.2,4.915,4.915,0,0,0,.459-1.764q.045-.521.051-1.5H.839V73.006H5.314ZM.85,187.429q.386-.011,1.064-.062a72.62,72.62,0,0,0,2.94-7.891l1.282.336a70.577,70.577,0,0,1-2.823,7.465q2.845-.207,5.046-.5-.829-1.462-1.686-2.7l1.1-.695a34.591,34.591,0,0,1,3.1,5.147l-1.26.655q-.308-.65-.678-1.355-3.271.554-7.812.974ZM1.114,58.817H4.53q.045-1.243.045-2.223h1.3q-.011,1.277-.062,2.223H9.934A51.077,51.077,0,0,1,9.609,64.9a2.166,2.166,0,0,1-.521,1.322,2.1,2.1,0,0,1-1.405.37,10.716,10.716,0,0,1-1.535-.118l-.207-1.26a9.36,9.36,0,0,0,1.585.174.825.825,0,0,0,.554-.129,1.832,1.832,0,0,0,.241-.874,37.486,37.486,0,0,0,.291-4.424H5.756a9.485,9.485,0,0,1-.98,3.7,7.632,7.632,0,0,1-3,2.934l-.851-1a7.531,7.531,0,0,0,2.14-1.73,5.153,5.153,0,0,0,.986-1.775,9.732,9.732,0,0,0,.42-2.128H1.114ZM8.54,153.871l1.008,1a10.283,10.283,0,0,1-2.268,5A9.97,9.97,0,0,1,2.643,162.5l-.7-1.131a8.808,8.808,0,0,0,4.195-2.184,8,8,0,0,0,2.139-4.161H4.558a9.841,9.841,0,0,1-2.682,2.705l-.907-.93a9.09,9.09,0,0,0,2.089-1.786,8.59,8.59,0,0,0,1.467-2.688l1.2.336a10.5,10.5,0,0,1-.515,1.215ZM1,126.435H8.192l1.389,1.26a10.444,10.444,0,0,1-.969,3.87,6.011,6.011,0,0,1-2.705,2.582,14.223,14.223,0,0,1-3.046,1.03l-.644-1.137a11.4,11.4,0,0,0,2.962-.885,5.042,5.042,0,0,0,2.52-2.677,8.522,8.522,0,0,0,.527-2.873H1ZM5.616,93.9V88.153A17.634,17.634,0,0,1,1.73,90.079l-.678-1.137A16.842,16.842,0,0,0,5.4,86.792a17.813,17.813,0,0,0,3.271-2.962l1.081.677a20.348,20.348,0,0,1-2.834,2.683V93.9Zm-4.43,75.3h9.325a9.955,9.955,0,0,1-1.019,3.819,4.944,4.944,0,0,1-1.456,1.652,9.762,9.762,0,0,1-4.3,1.445l-.566-1.137a8.192,8.192,0,0,0,3.814-1.143,4.564,4.564,0,0,0,1.966-3.489H1.186Zm.263-29.829h8.787v8.647H1.45Zm.538,27.09H9.374v1.148H1.987ZM2.413,3.63H9.167v.9H2.413Zm.342,136.931v6.261H8.932v-6.261Zm.33-123.4H4.127v7.213H3.085Zm5.36,3.3v1.249h2.811v1.008H8.764a5.163,5.163,0,0,0,2.649,2.145l-.683,1.03a5.673,5.673,0,0,1-2.75-2.6,4.213,4.213,0,0,1-1.12,1.624,6,6,0,0,1-1.938,1.086l-.689-.952a3.785,3.785,0,0,0,2.828-2.33h-2.5V21.717H7.263V20.468H6.1a6.991,6.991,0,0,1-.834,1.148l-.818-.722a5.973,5.973,0,0,0,1.333-2.318l1.03.241q-.123.375-.252.711h4.167v.941Zm1.467-4.945L9.57,17.545H11.3v.986H4.451v-.986H8.394l.19-1.081H5.471v-.941ZM5.185,43h1.3v9.98h-1.3Zm0,68.373h1.3v9.98h-1.3Zm3.8-52.908a8.359,8.359,0,0,0-1.131-1.983l.879-.325a11.684,11.684,0,0,1,1.148,1.938ZM8.9,153.983a8.011,8.011,0,0,0-1-1.871l.941-.213a7.523,7.523,0,0,1,1.019,1.842ZM9.329,99.4a9.529,9.529,0,0,0-.767-2.055l.834-.157a7.416,7.416,0,0,1,.8,1.971Zm.028,25.286a1.4,1.4,0,0,1,.778-.23,1.362,1.362,0,0,1,.717.207,1.342,1.342,0,0,1,.521.549,1.381,1.381,0,0,1-.224,1.624,1.348,1.348,0,0,1-1.025.443,1.33,1.33,0,0,1-.582-.134,1.417,1.417,0,0,1-.566-.47,1.391,1.391,0,0,1-.258-.812,1.365,1.365,0,0,1,.174-.661,1.438,1.438,0,0,1,.465-.515Zm1.277.666a.674.674,0,0,0-.5-.207.717.717,0,0,0-.392.118.675.675,0,0,0-.331.61.717.717,0,0,0,.722.717.708.708,0,0,0,.331-.078.671.671,0,0,0,.392-.638.7.7,0,0,0-.218-.521Zm.056-67.024A9.549,9.549,0,0,0,9.565,56.33l.834-.263a6.875,6.875,0,0,1,1.137,1.893Zm-.1,95.591a8.556,8.556,0,0,0-.986-1.994l.918-.2a7.759,7.759,0,0,1,.986,1.893Zm.129-54.694a11.12,11.12,0,0,0-.773-2.016l.807-.174a7.326,7.326,0,0,1,.8,1.938Z" transform="translate(-0.106 -0.728)" fill="#fff"/>
  </g>
</svg>
