<svg xmlns="http://www.w3.org/2000/svg" xmlns:xlink="http://www.w3.org/1999/xlink" width="55.396" height="81.414" viewBox="0 0 55.396 81.414">
  <defs>
    <clipPath id="clip-path">
      <rect id="Rectangle_391" data-name="Rectangle 391" width="55.396" height="81.414" fill="none"/>
    </clipPath>
  </defs>
  <g id="Group_71" data-name="Group 71" clip-path="url(#clip-path)">
    <path id="logo" d="M44.93,35.4l.24.415h5.963a24.79,24.79,0,0,1-1.25,2.961h-3l-3.4.032L40.5,43.957,38.794,41l2.975-5.151L38.776,30.66l-1.487,2.576L35.8,35.812l-1.71-2.961L37.066,27.7H55.4A27.7,27.7,0,0,0,44.031,5.331L42.823,7.422l-5.313,9.2h5.95l1.4-2.425,1.581-2.738a24.781,24.781,0,0,1,1.938,2.563l-1.5,2.6-1.674,2.962,2.975,5.151H44.762l-2.974-5.151H35.8l1.487,2.575,1.486,2.576H35.356l-2.974-5.151,1.71-2.962L41.544,3.715A27.654,27.654,0,0,0,16.494,2.37l6.52,11.292,2.734-4.737.24-.415-1.4-2.426-1.58-2.738a24.875,24.875,0,0,1,3.19-.4l1.5,2.6,1.729,2.929h5.949l-1.71,2.961H27.717l-2.993,5.184h5.948l-1.71,2.962H23.014L21.3,16.624,13.849,3.711A27.754,27.754,0,0,0,.155,24.737H13.2L10.465,20l-.239-.414H4.264a24.671,24.671,0,0,1,1.249-2.962h3l3.4-.033,2.974-5.151L16.6,14.4l-2.973,5.151,2.994,5.184,1.486-2.575,1.487-2.575,1.71,2.961L18.33,27.7H0A27.7,27.7,0,0,0,11.365,50.066l1.207-2.092,5.313-9.2H11.936l-1.4,2.426L8.954,43.937a24.812,24.812,0,0,1-1.939-2.563l1.5-2.6,1.672-2.961L7.214,30.66h3.419l2.974,5.151h5.986l-1.486-2.576L16.621,30.66h3.419l2.975,5.151L21.3,38.773,13.852,51.681A27.654,27.654,0,0,0,38.9,53.028l-1.207-2.091-5.313-9.2-2.735,4.737-.24.415,1.4,2.425,1.58,2.738a24.716,24.716,0,0,1-3.19.4l-1.5-2.6-1.729-2.929H20.021l1.709-2.96h5.949l2.993-5.185H24.724l1.71-2.961h5.948l1.71,2.961,7.455,12.913A27.753,27.753,0,0,0,55.241,30.659H42.2Zm2.824-17.134a2.4,2.4,0,1,1,.8,3.3,2.4,2.4,0,0,1-.8-3.3M33.2,6.588a2.4,2.4,0,1,1,.919-3.273A2.4,2.4,0,0,1,33.2,6.588M9.4,15.18a2.4,2.4,0,1,1,2.4-2.4,2.4,2.4,0,0,1-2.4,2.4M7.853,37.373a2.4,2.4,0,1,1-.681-3.331,2.4,2.4,0,0,1,.681,3.331M22.31,48.534a2.4,2.4,0,1,1-1.037,3.238,2.4,2.4,0,0,1,1.037-3.238M45.539,44.9a2.4,2.4,0,1,1,2.489-2.316A2.4,2.4,0,0,1,45.539,44.9" transform="translate(0 0)" fill="#fff"/>
    <text id="KIKOOP" transform="translate(2.455 73.159)" fill="#fff" font-size="12" font-family="Poppins-ExtraBold, Poppins" font-weight="800"><tspan x="0" y="0">KIKOOP</tspan></text>
  </g>
</svg>
