<svg xmlns="http://www.w3.org/2000/svg" xmlns:xlink="http://www.w3.org/1999/xlink" width="520.344" height="153" viewBox="0 0 520.344 153">
  <defs>
    <clipPath id="clip-path">
      <rect id="Rectangle_372" data-name="Rectangle 372" width="520.344" height="153" fill="#404040"/>
    </clipPath>
  </defs>
  <g id="left_1" transform="translate(0 0)">
    <g id="Group_31" data-name="Group 31" transform="translate(0 0)" clip-path="url(#clip-path)">
      <path id="Path_112" data-name="Path 112" d="M161.912,70.256l1.807,2.454c.517-.41,1.346-.73,1.5-1.249.784-2.687,3.089-2.709,4.656-1.88,2.98,1.58,5.886,3.57,7.133,7.034.127.35-.142.841-.253,1.395-2.818,1.369-4.7-1.288-7.223-1.668l-4.353,2.584c.35,1.03.7,2.052,1.1,3.218a8.38,8.38,0,0,0,1.447-.756c.665-.584,1.211-1.685,1.906-1.771,1.365-.167,3.1-.234,4.13.47,1.563,1.069.65,2.715-.279,3.937-1.067,1.4-2.28,2.7-3.568,4.2,2.833,3.933,5.495,7.612,9.982,9.973a30.693,30.693,0,0,1,3.153-3.827,10.488,10.488,0,0,1,3.027-1.32,21.717,21.717,0,0,1,1.121,3.186,5.121,5.121,0,0,1-.3,2.207c-2.123,7.723-4.767,7.9-9.964,4.388a46.77,46.77,0,0,1-5.257-4.121c-1.64-1.488-3.078-3.2-4.9-5.124-1.685,1.928-3.274,3.834-4.961,5.65a26.531,26.531,0,0,1-3.581,3.377c-2.454,1.812-3.439,1.507-5.94-1.721,3.488-4.207,7.959-7.829,10.632-13.233-3.115,0-5.71.056-8.3-.017a5.891,5.891,0,0,0-5.441,2.486,9.728,9.728,0,0,1-1.17,1.359c-2.9,2.846-4,2.67-6.569-1.17,1.485-2.093,3.014-4.254,4.4-6.2-1.926-7.682-7.944-7.077-13.691-7.691,0,5.6.026,10.954-.007,16.307-.024,3.587-.084,7.176-.228,10.759a5.229,5.229,0,0,1-.74,2.969c-.668.8-2.119,1.724-2.868,1.481-1.03-.335-1.818-1.648-2.5-2.681-.247-.374.073-1.155.193-1.739,1.37-6.7.382-13.367-.719-20.394-1.035,1.462-2.086,2.915-3.1,4.392-.592.863-1.073,1.8-1.691,2.645-1.816,2.473-2.7,2.458-4.746-.058a9.888,9.888,0,0,1-.773-1.5c1.206-2.19,2.541-4.5,3.763-6.869,1.842-3.57,3.553-7.208,5.433-10.758a36.49,36.49,0,0,1,2.746-3.84c-2.451-.805-5.163-1.413-5.658-5.152a20.183,20.183,0,0,1,2.932-1.835,4.443,4.443,0,0,0,3.08-3.409c.461-2.116,2.593-2.767,4.572-1.865,1.056.481,2.11.97,3.136,1.511.846.446,2.366,1.032,2.331,1.449-.086,1.041-.64,2.533-1.453,2.932-3,1.473-3.3,3.993-3.168,6.768.1,2.243,1.573,3.411,4.944,4.289,2.052.534,3.063-.6,3.862-2.181.541-1.063,1.054-2.14,1.561-3.177-4.993-6.225-4.993-6.225.086-12.459.472-.579.985-1.129,1.4-1.747,2.009-2.982,1.99-2.949,5.212-2.108a5.155,5.155,0,0,0,2.413,0c3.8-.925,3.789-.957,6.246,3.063a39.226,39.226,0,0,0,4.042-4.641c1.236-1.945,2.879-2.836,4.86-2.061,2.335.915,2.02,3.007,1.2,5.283,2.406,1.4,4.166,3.3,2.087,6.624,2.662.154,4.795.652,5.9,3,.8,1.694.125,4-1.522,3.817-4.993-.547-8.32,2.743-13.07,5.014M146,76.539q.334.441.667.886c3.452-.977,6.9-1.953,11.242-3.179l-8.142-1.633c-1.185,1.234-2.475,2.58-3.767,3.926m5.186-11.458,4.5,3.07c-.734-2.655-1.168-4.22-1.782-6.437-1.157,1.432-1.842,2.278-2.72,3.366m4.3,17.067,4.937.962c-1.5-3.937-3.347-2.4-4.937-.962m-2.992-26.905-.781-1.148-1.135.876c.262.249.5.653.794.706s.667-.242,1.121-.434" transform="translate(100.27 40.33)" fill="#404040"/>
      <path id="Path_113" data-name="Path 113" d="M82.307,68.355c1.38-.5,2.863-1.022,4.338-1.567,1.543-.569,3.05-1.245,4.619-1.715,1.779-.534,4.351.811,4.6,2.426.285,1.863-.951,2.55-2.554,3.044a34.563,34.563,0,0,0-5.384,2.174c-.732.371-1.2,1.273-2.406,2.636l9.559-1.337c.378,4.493,2.056,3.134-8.854,8.457,6.064,4.463,11.857,8.533,19.8,8.483,3.643-7.912,6.41-15.7,6.515-24.522.073-6.242,1.563-12.585,6.174-17.481a4.687,4.687,0,0,1,2.692-1.344,68.666,68.666,0,0,1,7.947-.384c4.965.051,6.231,2.022,4.611,6.906-.137.418-.208.857-.382,1.589l8.037,1.056c.389,2.778-1.5,3.183-2.926,3.731-4.035,1.55-8.133,2.934-12.208,4.372-.564.2-1.144.346-1.717.519-3.664,1.091-5.779,2.849-6.41,7.3-1.464,10.316-5.791,19.727-11.415,28.5a9.812,9.812,0,0,1-.781,1.093c-1.05,1.23-2.351,2.1-3.885,1.1a2.776,2.776,0,0,1-.921-3.93c.6-1.163,1.121-2.372,1.87-3.973C95.4,95.627,89.665,91.3,83.3,87.93c-3.681,4.9-5.454,11.111-10.718,14.654-.494.333-1.406.045-2.374.045-1.142-6.678,5.51-10.123,6.1-15.436l-5.725-4.36c1.187-1.487,1.971-2.471,2.75-3.447-2.376-3.711-2.376-3.711-.021-7.382-1.118-1.885-2.217-3.737-3.529-5.948,3.344-2.175,6.36-4.139,9.376-6.1-.125-.35-.253-.7-.378-1.054-1.011.182-2.026.339-3.033.545a3.357,3.357,0,0,1-4.366-2.593c-.689-2.278.876-3.048,2.537-3.362a32.582,32.582,0,0,1,7.06-.717c2.823.094,5.407.974,5.663,4.242.535.277.786.436,1.056.543,1.271.5,3.332-.5,3.726,1.614s-1.588,2.683-2.934,3.465c-1.672.974-3.516,1.648-5.227,2.563-1.039.556-2.183,1.23-.955,3.156m44.775-14.618c-5.448,1.545-6.9,2.776-8.591,7.064,7.249-1.251,7.695-1.6,8.591-7.064" transform="translate(60.862 41.187)" fill="#404040"/>
      <path id="Path_114" data-name="Path 114" d="M224.03,17.17a46.193,46.193,0,0,0-4.585,2.146c-4.28,2.608-4.969,2.342-6.751-3.422,1.981-.974,4.035-2.05,6.148-3,1.618-.726,3.258-1.148,4.091-3.117.672-1.586,2.322-1.535,3.915-1.1a37.42,37.42,0,0,0,5.594,1.2c1.822.212,3.381.663,3.391,2.752.009,2.308-1.7,2.449-3.5,2.307a5.7,5.7,0,0,0-1.451.32v3.782a8.8,8.8,0,0,0,1.541.374,7.929,7.929,0,0,0,1.786-.131c5.912-1.151,8.166,2.6,5.725,7.655-1.511,3.13-3.181,6.122-6.253,8.007a8.424,8.424,0,0,0-4.053,6.566c-.427,3.085-1.421,6.092-2.29,9.629A22.75,22.75,0,0,0,241.709,55.3c1.638-.039,3.267-.393,4.905-.528,1.372-.114,3.037-.133,3,1.685a3.557,3.557,0,0,1-2.1,2.393,22.7,22.7,0,0,1-14.942.58c-2.546-.8-5.032-1.782-7.442-2.645-2.355,2.724-4.446,5.444-6.856,7.844s-3.51,2.183-6.279-.354c2.548-3.344,5.1-6.7,7.974-10.467-2.123-1.6-3.776-2.8-5.373-4.07a23.238,23.238,0,0,1-3.671-3.224c-.637-.777-.695-2.029-1.011-3.068a14.938,14.938,0,0,1,3.645-.989c.749-.019,1.533.816,2.275,1.307,1.863,1.23,3.711,2.481,5.731,3.834,1.571-1.749,1.7-3.778,2-5.785a40.281,40.281,0,0,1-4.984-2.076,6.034,6.034,0,0,1-2.327-2.507c-1.511-3.22-2.819-6.534-4.171-9.825a7.424,7.424,0,0,1-.2-1.642c3.57-1.311,7.125-2.728,10.758-3.907,2.316-.751,2.746-2,1.384-4.686m-2.58,16.943c4.2-1.206,4.274-1.378,3-6.581l-4.28,2.256c.464,1.575.827,2.8,1.277,4.325m10.419-5.184c.818-1.419,1.327-2.3,2.153-3.737-2.818.253-3.248,1.183-2.153,3.737" transform="translate(183.082 7.341)" fill="#404040"/>
      <path id="Path_115" data-name="Path 115" d="M33.643,78.266,43.16,83.1c1.38-2.784,2.63-5.285,3.857-7.8.393-.807.648-1.685,1.086-2.462,1.069-1.9,3.344-2.816,4.849-1.911,1.814,1.088,1.526,2.812.914,4.37-.6,1.52-1.55,2.9-2.292,4.362-.929,1.837-1.8,3.7-2.752,5.66,2.393,1.339,4.475,2.5,6.676,3.731-1.8,2.8-3.932,2.582-5.867,1.8-2.821-1.138-4.39-.1-5.914,2.224a65.4,65.4,0,0,1-5.764,7.4,4.98,4.98,0,0,1-6.075,1.49c1.561-5.36,6.1-8.854,8.318-14.2-1.833-.818-3.542-1.586-5.257-2.342a17.944,17.944,0,0,1-2.458-1.075c-2.666-1.7-2.857-3.362-.779-5.976-.691-.955-1.41-1.891-2.058-2.876a7.645,7.645,0,0,1-.535-1.535,18.177,18.177,0,0,1,2.262-1.852A224.073,224.073,0,0,1,61.683,56.7a13.358,13.358,0,0,1,2.5-.944c2.984-.534,4.621,1.063,4.036,4.057-.457,2.342-1.2,4.628-1.812,6.94-1.887,7.116.74,13.223,4.4,19.042.481.766,1.625,1.114,2.409,1.623L80.1,80.4c.657,1.078,1.279,1.646,1.172,1.988a71.151,71.151,0,0,1-3.464,10.078c-1.239,2.554-4.574,2.906-7,.769C65.174,88.269,61.17,82.2,60.37,74.55c-.367-3.5-.062-7.081-.062-11.13A124.222,124.222,0,0,0,33.643,78.266" transform="translate(25.386 48.54)" fill="#404040"/>
      <path id="Path_116" data-name="Path 116" d="M23.867,63.206l5.295,1.857c1.151-3.083.393-19.574-1.183-24.3-.562.693-1,1.241-1.451,1.782Q17.821,53.054,9.11,63.561c-.285.344-.556.835-.929.947-.891.27-2.363.783-2.653.425-.625-.768-1.223-2.361-.829-3.016a85.024,85.024,0,0,1,5.652-8.037c3.735-4.843,7.728-9.5,11.291-14.461a48.32,48.32,0,0,0,4.845-9.035c.64-1.485.417-3.34.646-5.632-1.975.6-3.254.889-4.446,1.382C17.449,28.3,12.24,30.54,7.013,32.732,2.994,34.419,2.438,34.174,0,29.39c1.256-.61,2.468-1.307,3.756-1.8,7.069-2.741,14.157-5.431,21.575-8.268l-2.17-7.17c3.8-2.215,5-1.853,6.435,1.749.326.816.734,1.6,1.163,2.518,2.883-.55,5.6-1.224,8.348-1.507A3.465,3.465,0,0,1,41.965,16.2c.743,1.427-.328,2.511-1.721,3.07-2.6,1.043-5.212,2.046-7.648,3,1.217,14.474,2.4,28.51,3.578,42.545.024.3.1.593.1.889.03,1.915.6,4.13-1.252,5.4-2.093,1.44-4.1-.006-5.766-1.146-2.149-1.475-4.431-3.007-5.394-6.755" transform="translate(0 9.392)" fill="#404040"/>
      <path id="Path_117" data-name="Path 117" d="M182,92.436c1.509-1.032,2.75-2.029,4.122-2.79,3.284-1.823,3.844-2.746,3.216-6.431-.376-2.207-.874-4.4-1.421-6.571-.449-1.784-.017-2.952,1.9-3.284,1.839-.318,3.379.137,3.8,2.149.706,3.346,1.247,6.723,1.943,10.563l5.182-1.2c-.438-10.374-.863-20.455-1.284-30.447,5.115-1.05,5.787-.451,5.783,3.883,0,3.409.346,6.818.562,10.628a21.8,21.8,0,0,1,4.132-.6,53.085,53.085,0,0,1,8.341.966,3.367,3.367,0,0,1,1.777,2.6c.062,1.494-1.355,1.565-2.636,1.659a38.025,38.025,0,0,0-7.448.915c-3.716,1.039-3.713,1.266-3.673,4.993.015,1.324.206,2.644.369,4.6,2.539,0,4.894.135,7.225-.03,3.767-.27,6.964,1.473,10.3,2.69,1.981.721,1.472,2.26.685,4.342a54.315,54.315,0,0,1-6.36-.612c-8.827-1.859-17.185-.3-25.325,3.164-1.37.584-2.728,1.2-4.093,1.8-3.887,1.7-3.887,1.7-7.107-2.988" transform="translate(158.737 47.077)" fill="#404040"/>
      <path id="Path_118" data-name="Path 118" d="M218.35,61.291c2.791-.622,5.023-.887,6.337-3.52.859-1.719,3.273-1.378,5.062.223a10.917,10.917,0,0,0,2.614,2.183c5.817,2.443,8.681,6.736,8.151,12.785a24.175,24.175,0,0,1-4.166,11.7,5.38,5.38,0,0,1-1.453,1.666c-1.382.82-3.128,2.106-4.368.417-.631-.859-.251-2.784.195-4.044.938-2.653,2.514-5.1,3.261-7.792a14.413,14.413,0,0,0,.1-6.161c-.33-1.867-1.827-2.958-3.889-3.134-1.936-.165-2.66,1.1-3.215,2.526-.607,1.561-2.022,2.917-.708,4.941a2.072,2.072,0,0,1-1.436,3.171c-2.688.344-3.533,2.542-5.036,4.1-1.348,1.393-2.589,2.894-3.988,4.235-1.507,1.447-3.312,2.172-5.3,1.018-2.114-1.226-4.405-2.752-3.617-5.553a73.464,73.464,0,0,1,4.3-11.609c1.069-2.258,2.254-4.128.743-6.613-.706-1.161-1.067-2.617.451-3.568a3.356,3.356,0,0,1,4.463.681,13.507,13.507,0,0,1,1.5,2.348m-5.2,15.741.945.483c1.369-1.522,3.288-2.761,1.9-5.733q-1.421,2.626-2.844,5.25" transform="translate(180.308 49.391)" fill="#404040"/>
      <path id="Path_119" data-name="Path 119" d="M245.711,103.067a17.474,17.474,0,0,1,2.574-1.406c10.273-3.383,16.818-10.51,20.01-20.609a20.249,20.249,0,0,0,.206-8.835c-.494-3.252-2.681-4.445-5.97-3.724-4.783,1.048-8.977,3.16-11.991,7.249-1.936,2.627-2.979,2.894-4.643,1.582-2.3-1.814-2.395-3.651-.178-6.023,1.631-1.745,3.617-3.207,5.012-5.113,2.831-3.874,3.218-6.476,2.61-12.592,4.087-1.6,6.309-.247,6.339,4.042a32.532,32.532,0,0,1-.741,4.989c1.213,0,2.235.092,3.239-.015,6.9-.723,10.443,3.456,12.036,9.007a20.694,20.694,0,0,1-1.078,14.051,38.03,38.03,0,0,1-18.907,20.1c-3.971,1.926-5.813,1.322-8.517-2.7" transform="translate(212.908 46.178)" fill="#404040"/>
      <path id="Path_120" data-name="Path 120" d="M155.6,60.019c7.652-7.122,19.673-34.967,18.9-43.429-6.03-1.719-11.448,1.224-13.027,7.006-.668,2.447-1.427,4.875-2.284,7.264-.526,1.466-1.533,2.816-3.3,2.368-2.082-.526-2.095-2.542-1.814-4.081.771-4.248,1.8-8.453,2.844-12.645a3.447,3.447,0,0,1,1.47-2.048c4.916-2.585,9.928-4.838,15.738-4.345,5.517.468,7.858,2.8,6.762,8.122a111.746,111.746,0,0,1-4.733,16.294,176.853,176.853,0,0,1-7.743,17.63,37.942,37.942,0,0,1-6.156,8.726c-2.3,2.462-4.473,1.979-6.659-.861" transform="translate(134.27 8.758)" fill="#404040"/>
      <path id="Path_121" data-name="Path 121" d="M58.605,36.939c-.663,3.525-1.181,6.59-1.831,9.627-.406,1.889-.987,3.742-1.533,5.6A3.034,3.034,0,0,1,52,54.653c-2.383-2.267-1.586-4.969-1.213-7.58.461-3.228.915-6.461,1.505-9.666a6.365,6.365,0,0,0-1.384-5.364c-1.709-2.282-1.382-2.69.921-4.621a5.439,5.439,0,0,0,1.623-2.791,10.873,10.873,0,0,0-.242-3.093c-.133-1.7.388-2.878,2.316-3.147,1.977-.275,3.194.453,3.61,2.395.243,1.14.371,2.307.62,3.918C63.3,23.435,66.6,22.25,69.9,21.066a16.472,16.472,0,0,1,2.947-1c2.971-.447,4.894.945,4.551,3.872a119.145,119.145,0,0,1-2.934,17.591c-1.522,5.555-5.615,6.268-9.735,2.217-1.994-1.96-3.757-4.158-6.128-6.807m-.084-3.922C62.4,34.587,63.6,39,67.884,40.2a24,24,0,0,0,2.4-13.512c-4.016,2.438-8.747,2.131-11.765,6.326" transform="translate(43.462 15.992)" fill="#404040"/>
      <path id="Path_122" data-name="Path 122" d="M194.06,15.55c.9,3.791-1.206,5.117-3.493,5.862-4.714,1.531-5.134,5.538-6.24,9.28,2.316,1.852,4.257,2.007,6.143-.056a29.972,29.972,0,0,1,2.481-2.561,3.471,3.471,0,0,1,4.549-.236c1.61,1.166,1.374,2.75.479,4.388a6.744,6.744,0,0,0-1.013,3.063c.013,2.235-.874,3.587-3.108,3.361-2.846-.29-4.006,1.657-5.162,3.523-.472.764-.738,2.37-.3,2.818a3.964,3.964,0,0,0,3.1.992,39.273,39.273,0,0,0,5.474-1.885c2.754-.957,5.377-2.516,8.825-2.076-.071.985.193,2.151-.24,2.537-4.845,4.323-10.018,8.122-17.042,7.21-5.656-.736-8.415-6.023-6.047-11.282.361-.8.833-1.548,1.183-2.192-.238-.466-.3-.859-.5-.949-6.294-2.82-6.614-3.6-4.267-10.037a5.133,5.133,0,0,0-.1-4.639c-1.661-3.117-1.221-3.713,2.067-4.68.567-.167,1.342-.118,1.683-.483,3.366-3.613,7.521-1.354,11.529-1.956" transform="translate(154.845 13.429)" fill="#404040"/>
      <path id="Path_123" data-name="Path 123" d="M103.977,71.609c-2,2.694-1.215,5.061-.638,7.335.528,2.089,2.451,2.642,4.222,2.7a88.442,88.442,0,0,0,11.184-.23c3.261-.315,3.877-1.342,4.5-4.911a6.084,6.084,0,0,1,1.155-2.8,1.969,1.969,0,0,1,3.527.64,23.391,23.391,0,0,1,1.275,6.543c.037,2.307-1.537,3.874-3.83,4.336-3.5.706-7.015,1.346-10.548,1.829-1.913.262-3.926-.124-5.809.232-9.484,1.792-13.16-7.4-12.56-13.826a56.058,56.058,0,0,1,1.681-8.685,3.636,3.636,0,0,1,1.925-2.209c4.471-1.625,8.97-3.224,13.558-4.461,2.627-.71,4.094.607,3.853,3.289a14.419,14.419,0,0,1-6.781,11.523c-2.41,1.507-4.568.418-6.714-1.3m5.4-5.946c-.564-.045-1.091-.255-1.357-.077a8.855,8.855,0,0,0-1.736,1.634,2.359,2.359,0,0,0,.666.878,9.379,9.379,0,0,0,2.076-1.2c.242-.193.217-.719.35-1.238" transform="translate(84.071 50.508)" fill="#404040"/>
      <path id="Path_124" data-name="Path 124" d="M166.428,77.242c-8.749-2.6-9.179-3.628-5.392-11.774-1.013-1.7-2.046-3.434-3.48-5.841,4.783-.992,7.719-5.56,12.985-3.756,2.79.957,3.484,2.556,1.14,4.312-3.4,2.546-4.115,6.414-5.9,9.765,3.6,2.016,4.677,1.887,7.545-.348a16.6,16.6,0,0,1,4.512-2.707,3.333,3.333,0,0,1,4.5,1.855c.71,1.764-.68,2.677-1.964,3.5-.5.32-.985.661-1.558,1.047a6.4,6.4,0,0,0,.1,1.249c.906,3.258.584,3.756-2.522,3.709-.741-.011-1.829-.451-2.157-.112a8.091,8.091,0,0,0-2.205,3.45c-.12.507,1.391,1.88,2.3,2.033a9.262,9.262,0,0,0,3.866-.661c1.713-.5,3.346-1.307,5.075-1.7a2.622,2.622,0,0,1,2.265.738,2.738,2.738,0,0,1-.03,2.426c-3.87,6.607-14.876,6.676-18.93.227-1.5-2.38-1.187-4.763-.139-7.414" transform="translate(137.417 48.366)" fill="#404040"/>
      <path id="Path_125" data-name="Path 125" d="M257.119,80.473c-5.3,2.658-9.395-.273-13.856.665-.582.775-1.354,1.838-2.164,2.872-2.737,3.493-11.031,4.808-14.371.414-2.058-2.707-2.273-4.9.436-6.908,1.833-1.361,4.244-1.99,6.461-2.765a17.31,17.31,0,0,1,3.739-.331c0-1.743-.03-3.454.006-5.165q.087-4.016.249-8.028c.084-2.016,1.3-2.876,3.2-2.975q4.875-.253,9.748-.53c1.4-.081,2.878-.1,3.143,1.668a2.68,2.68,0,0,1-2.1,3.014c-1.683.59-3.347,1.23-5.029,1.825-3.01,1.065-3.52,1.73-3.456,4.845.024,1.191.268,2.378.277,3.568a2.837,2.837,0,0,0,2.518,3.1,81.369,81.369,0,0,1,8.108,2.492c.932.335,1.676,1.189,3.085,2.235" transform="translate(196.377 50.319)" fill="#404040"/>
      <path id="Path_126" data-name="Path 126" d="M85.154,25.408c0-2.413.062-4.194-.017-5.97-.088-2.005.732-3.147,2.782-3.224,1.91-.071,3.2.813,3.434,2.748a43.778,43.778,0,0,1,.03,4.7c2.316-.734,4.2-1.314,6.062-1.928.565-.187,1.091-.483,1.648-.7,2.745-1.073,4.712-.865,5.081.655.6,2.456-1.219,3.529-2.98,4.366a34.449,34.449,0,0,1-7.049,2.791c-2.724.608-3.439,2.217-3.885,4.641-1.133,6.152-2.477,12.265-3.81,18.377a17.689,17.689,0,0,1-1.438,4.227c-.414.811-1.715,2.039-1.994,1.893a5.477,5.477,0,0,1-2.7-2.511c-.388-1.15.058-2.634.318-3.937,1-4.961,2.1-9.9,3.083-14.861.281-1.408.3-2.866.511-4.986-2.114.62-3.632,1.058-5.147,1.511-3.986,1.193-4.832.676-6.307-4.327l12.375-3.465" transform="translate(63.476 14.138)" fill="#404040"/>
      <path id="Path_127" data-name="Path 127" d="M264.535,53.63c-3.405.086-4.9-2.026-6.047-4.531-3.58-7.833-4.16-15.8-.994-23.926a29.525,29.525,0,0,0,.876-2.984c.028-.1-.1-.247-.41-.915l-12.946,3.366c-2.739-3.692-2.527-5.272,1.348-6.32a136.872,136.872,0,0,1,16.2-3.346c3.89-.56,5.506,1.91,4.123,5.62a27.433,27.433,0,0,1-1.715,3.649c-4.074,7.389-4.7,14.964-1.505,22.852.807,2,1.919,4.063,1.069,6.536" transform="translate(212.09 12.99)" fill="#404040"/>
      <path id="Path_128" data-name="Path 128" d="M204.905,42.614c-5.135-1.052-6.077-2.833-4.886-7.214,1.683-6.184,3.055-12.448,2.365-18.948a14.7,14.7,0,0,1-.007-1.621c4.692-1.391,5.71-.773,5.944,3.5a20.489,20.489,0,0,1-.028,4.909c-.676,3.516-1.591,6.89,1.648,9.821.719.653.865,2.273.79,3.415-.389,5.929-.726,11.873-1.511,17.758-.414,3.1-1.754,3.909-3.638,3.4-2.007-.543-2.533-1.7-2.125-4.546.485-3.379.938-6.764,1.449-10.469" transform="translate(174.05 12.355)" fill="#404040"/>
      <path id="Path_129" data-name="Path 129" d="M107.913,17.479l4.559.962c.666,3.312-1.273,5.079-3.263,6.581-2.413,1.822-3.162,3.527-2.29,6.777,1.5,5.592,2.123,11.432,2.936,17.192.191,1.348-.33,2.8-.545,4.357-3.552-.472-4.654-2.614-5.192-5.19-.642-3.069-1.127-6.171-1.749-9.245-.29-1.432-.745-2.829-1.337-5.032-1.359,1.38-2.181,2.308-3.1,3.125a26.163,26.163,0,0,1-4.164,3.331,2.759,2.759,0,0,1-2.647-.432c-.511-.608-.29-1.865-.3-2.84,0-.213.393-.423.59-.648q8.231-9.444,16.5-18.937" transform="translate(79.179 15.245)" fill="#404040"/>
      <path id="Path_130" data-name="Path 130" d="M61.57,78.241C57.4,76.981,56.6,75.7,57.318,72.106c.96-4.817,1.941-9.634,2.756-14.478.32-1.9,1.4-2.477,3.059-2.52,1.82-.045,2.954.981,2.879,2.683a49.563,49.563,0,0,1-.994,7.5,6.8,6.8,0,0,0,.485,4.637C68.055,75.4,67.99,81.212,66.629,87c-.2.842-1.142,2.011-1.853,2.1a3.08,3.08,0,0,1-2.37-1.526,10.04,10.04,0,0,1-.8-3.806c-.125-1.756-.032-3.527-.032-5.519" transform="translate(49.787 48.064)" fill="#404040"/>
      <path id="Path_131" data-name="Path 131" d="M29.007,67.9c-1.43-5.968,1.6-11.561,1.457-17.263,4.645-1.794,5.135-1.47,6.214,3.991,2.664-.983,5.257-2.069,7.931-2.887,2.411-.736,4.916-1.163,7.373-1.754,1.3-.315,2.466-.206,2.936,1.224S54.5,53.4,53.287,53.943c-2.587,1.157-5.16,2.351-7.732,3.542-3.52,1.633-7.067,3.211-10.529,4.958A7.411,7.411,0,0,0,32.965,64.6c-.979,1.23-1.883,2.52-2.819,3.784-.38-.163-.758-.328-1.138-.492" transform="translate(24.964 43.31)" fill="#404040"/>
      <path id="Path_132" data-name="Path 132" d="M115.015,46.184c6.59-5.2,11.645-11.422,16.194-18.106,3.435-5.046,3.625-5.113,8.483-6.779.6,1.651-.534,2.887-1.133,4.078-4.242,8.425-9.164,16.38-16.093,22.942-3.537,3.351-5.046,3.035-7.451-2.134" transform="translate(100.314 18.577)" fill="#404040"/>
      <path id="Path_133" data-name="Path 133" d="M269.875,85.34c1.039-5.184,1.541-9.584,2.84-13.732,2.125-6.79,4.77-13.418,7.236-20.225,4.405-.814,5.92.522,4.493,4.66-1.986,5.757-4.317,11.4-6.532,17.074-.972,2.492-1.962,4.978-3.059,7.414-.811,1.8-1.475,3.817-4.978,4.81" transform="translate(235.379 44.617)" fill="#404040"/>
      <path id="Path_134" data-name="Path 134" d="M25.6,32.08a14.87,14.87,0,0,1,2.9-1.55c7.6-1.958,14.908-5.134,22.872-5.618,1.561-.1,3.705-1,4.3.992.779,2.6-1.872,2.512-3.4,3.037-6.461,2.211-12.948,4.347-19.433,6.483-4.255,1.4-4.261,1.382-7.242-3.344" transform="translate(22.327 21.478)" fill="#404040"/>
      <path id="Path_135" data-name="Path 135" d="M139.062,39.066c2.08-1.857,4.021-3.632,6.006-5.356,2.7-2.348,5.529-4.561,8.14-7.006,4.2-3.935,4.149-4,9.84-5.388,1.178,1.312.152,2.037-.7,2.924-5.665,5.909-11.329,11.821-16.908,17.812a2.523,2.523,0,0,1-3.894.311,19.686,19.686,0,0,1-2.486-3.3" transform="translate(121.287 18.592)" fill="#404040"/>
      <path id="Path_136" data-name="Path 136" d="M236.076,37c.7-1.38,1.4-2.76,2.211-4.353-5.3.582-5.549.459-7.56-3.651,2.907-2.786,6.5-3.4,10.276-2.844,4.25.627,5.69,3.479,3.842,7.461a17.375,17.375,0,0,1-3,4.37C239.2,40.841,238.1,40.6,236.076,37" transform="translate(201.235 22.646)" fill="#404040"/>
      <path id="Path_137" data-name="Path 137" d="M69.517,81.76a36.813,36.813,0,0,1-2.1-5.581c-.938-4.5-1.537-9.069-2.395-13.588-.3-1.561-.655-2.984,1.211-3.746A3.527,3.527,0,0,1,70.8,60.509a9.911,9.911,0,0,1,1,3.405c.374,4.149.79,8.307.805,12.465.006,1.777-.932,3.557-1.443,5.338l-1.642.043" transform="translate(56.499 51.075)" fill="#404040"/>
      <path id="Path_138" data-name="Path 138" d="M131.434,29.82c-4.84-2.067-9.434-.929-13.993.507-4.6,1.447-4.589,1.479-7.228-3.321.335-.361.661-1.054,1.1-1.138,4.952-.947,9.893-2.125,14.9-2.576,3.658-.33,5.742,1.726,5.873,4.649a6.375,6.375,0,0,1-.652,1.88" transform="translate(96.125 20.285)" fill="#404040"/>
      <path id="Path_139" data-name="Path 139" d="M34.625,67.6l-4.106-4.2c5.48-4.1,10.756-7.228,16.99-8.588,1.32-.288,2.621-.93,3.587.743.1,2.778-2.265,3.595-4.083,4.723-3.8,2.361-7.7,4.563-12.388,7.318" transform="translate(26.618 47.495)" fill="#404040"/>
      <path id="Path_140" data-name="Path 140" d="M165.022,2.558c1.1-.3,1.838-.754,2.453-.62,4.353.955,7.68,3.7,10.784,6.665.517.494.386,1.947.137,2.842a2.034,2.034,0,0,1-1.8.857c-4.078-1.941-8.8-3-11.108-7.532a10.717,10.717,0,0,1-.462-2.213" transform="translate(143.928 1.67)" fill="#404040"/>
      <path id="Path_141" data-name="Path 141" d="M65.135,12.093c1.84-2.4,3.975-2.2,5.665-.769a37.019,37.019,0,0,1,5.311,5.987c.515.678.754,2.483.416,2.707a4.107,4.107,0,0,1-3.153.616c-3.525-1.245-6.352-4.321-8.239-8.541" transform="translate(56.809 8.952)" fill="#404040"/>
      <path id="Path_142" data-name="Path 142" d="M71.3,9.21C75.21,7.2,76.062,7.385,77.665,10.7a34.747,34.747,0,0,1,2.6,6.148c.266,1.03-.562,2.344-.895,3.529-.953-.513-2.234-.79-2.8-1.58C74.42,15.829,72.014,12.949,71.3,9.21" transform="translate(62.189 6.896)" fill="#404040"/>
      <path id="Path_143" data-name="Path 143" d="M171,.348c2.224-.348,4.126-.91,5.514,1.084,2.1,3.022,5.3,5.617,4.373,10.055C176.544,10.81,171.785,5.47,171,.348" transform="translate(149.146 0.001)" fill="#404040"/>
      <path id="Path_144" data-name="Path 144" d="M135.977,18.016c-.966.479-2.262,1.661-2.969,1.378-3.106-1.245-6.433-2.456-7.985-5.809-.419-.906-.58-2.831-.195-3.035,1.037-.55,2.838-1,3.611-.461a71.1,71.1,0,0,1,6.978,6.056c.273.253.26.818.56,1.87" transform="translate(108.681 8.586)" fill="#404040"/>
      <path id="Path_145" data-name="Path 145" d="M131.243,9.874c4.2-1.6,4.679-1.55,6.435,1.453a33.481,33.481,0,0,1,2.8,6.013c.245.717-.481,1.765-.764,2.662-.786-.258-1.88-.273-2.3-.814-2.239-2.853-5.678-4.935-6.169-9.314" transform="translate(114.467 7.699)" fill="#404040"/>
      <path id="Path_146" data-name="Path 146" d="M124.666,20.633c-.178,1.979-1.236,2.263-2.557,2.123-1.752-.187-3.5-.474-5.253-.588a3.6,3.6,0,0,1-3.477-2.913,2.834,2.834,0,0,1,1.078-2.439c2.007-1.164,7.625.069,9.147,1.857a9.23,9.23,0,0,1,1.062,1.96" transform="translate(98.859 14.27)" fill="#404040"/>
      <path id="Path_147" data-name="Path 147" d="M140.827,20.773a8.51,8.51,0,0,1,6.5,3.55,3.257,3.257,0,0,1,.271,2.745c-.208.511-1.533.944-2.243.807a17.7,17.7,0,0,1-5.418-1.7,5.44,5.44,0,0,1-2.516-3.306c-.331-2.093,1.614-2,3.409-2.095" transform="translate(119.82 18.118)" fill="#404040"/>
      <path id="Path_148" data-name="Path 148" d="M266.068,75.066c1.687-.638,2.967-1.6,4.014-1.395,1.209.242,3,1.419,3.117,2.366a5.516,5.516,0,0,1-1.651,4.145c-1.314,1.193-2.78.146-3.625-1.239-.6-.987-1.013-2.091-1.855-3.877" transform="translate(232.059 64.23)" fill="#404040"/>
    </g>
  </g>
</svg>
