<svg xmlns="http://www.w3.org/2000/svg" viewBox="0 0 300 300"><defs><style>.cls-1{fill:#ea5515;}.cls-2{fill:#fff;}</style></defs><g id="Layer_2" data-name="Layer 2"><g id="レイアウト"><circle class="cls-1" cx="150" cy="150" r="150"/><path class="cls-2" d="M128.45,159.06c-.82,4.43-5.41,23.29-6.88,27.88H36.46V181c14.92-1.48,15.9-2.3,15.9-16.07V102.33c0-13.94-2-14.93-13.12-15.91V80.35h53.3c17.22,0,23-.16,25.25-.33.17,3,1,16.4,1.64,26.57l-6.39.82c-1.48-5.58-4.27-12.3-7.05-15.25-3-3.28-5.09-4.27-13.45-4.27H81.88c-6.23,0-6.89.33-6.89,5.91v34.27H91.06c9.19,0,10.83-2.46,13.29-14.1h6.39v36.57h-6.39c-2.63-12.14-3.94-14.11-13.45-14.11H75v28.21c0,11.32.33,14.76,10.5,14.92H97.13c9.18,0,11.64-1.15,15.25-5.57,4.1-4.76,7.38-10.83,10-16.4Z"/><path class="cls-2" d="M201.64,225.75c-2.3,8.2-6.56,20.66-9.18,26.4-4.27,1-17.71,4.26-30.18,4.26C118.17,256.41,100,228,100,202c0-33.94,25.91-56.9,65.26-56.9,14.27,0,26.9,3.44,31,3.93.82,7.71,2,19.85,3.11,27.06l-6.56,1.15c-3.44-12.79-8.36-18.86-17.05-22.3-3.94-1.64-9.84-2.3-14.27-2.3-23.77,0-35.75,19.84-35.75,45.59,0,30,15.42,50.34,37.89,50.34,13.77,0,23-7.21,31.81-25.25Z"/><path class="cls-2" d="M150.38,117.09v-2.27c2.8-.4,3-.66,3-5.26V98.17c0-4.72-2.33-6.19-4.67-6.19a8.15,8.15,0,0,0-5,2v16.11c0,4.07.27,4.33,3,4.73v2.27H131.27v-2.27c3.46-.6,3.86-.66,3.86-5V96c0-4-.53-4.2-3.46-4.8V89.05a68.83,68.83,0,0,0,12.18-2.53c-.06.93-.13,3.26-.13,4.8,1.33-.94,2.73-1.94,4.26-2.87a9.14,9.14,0,0,1,5.2-1.73c5.39,0,8.79,3.93,8.79,10.72V110c0,4.13.4,4.33,3.59,4.79v2.27Z"/><path class="cls-2" d="M169.09,89.05a87.4,87.4,0,0,0,12.52-2.4V108.3c0,5.12-.53,7.72-1.86,10.85-2.67,6.33-7.66,11.85-9.33,13a4.18,4.18,0,0,1-2.39.93c-1.27,0-2.73-1.53-2.73-3.73a1.61,1.61,0,0,1,1.53-1.79c3-.2,4.66-.6,5.12-1.34a13.49,13.49,0,0,0,.8-4.66c.2-3.73.27-8.19.27-12.65V96.71c0-4.8-.47-4.86-3.93-5.53Zm7.73-6.46a4.85,4.85,0,0,1-4.8-4.73,4.77,4.77,0,0,1,4.86-4.72,4.67,4.67,0,0,1,4.8,4.72A4.78,4.78,0,0,1,176.82,82.59Z"/><path class="cls-2" d="M204.25,86.72c9.39,0,15.32,7.06,15.32,15,0,10.72-7.73,16.11-15.59,16.11-10,0-15.78-7.59-15.78-15.38C188.2,92.31,196.59,86.72,204.25,86.72Zm-.8,2.66c-2.86,0-5.66,3-5.66,11.19s2.73,14.58,6.93,14.58c2.53,0,5.26-1.73,5.26-11.45C210,94.45,207.58,89.38,203.45,89.38Z"/><path class="cls-2" d="M253.93,89.78c-3.2.47-3.87,1.14-5.53,4.73S244.87,103,241,112.22a201.25,201.25,0,0,0-7.06,19,2.31,2.31,0,0,1-2.4,1.93c-2.59,0-5.26-1.93-5.26-4.26,0-1.06.4-1.6,1.8-2.46,2.6-1.47,4.39-2.73,5.59-4.8a24,24,0,0,0,1.67-3.73,3.44,3.44,0,0,0-.27-2.53c-3.46-9.58-7.72-18.71-8.92-21.5s-2-3.6-5.2-4.07V87.52h16.65v2.26c-2.86.47-3.33.94-2.59,3l5.19,14c1.46-3.66,3.86-9.79,5.06-13.52.67-2.13-.2-3-3.53-3.53V87.52h12.19Z"/><path class="cls-2" d="M160.67,213.36H145v-2c3.14-.35,3.43-.65,3.43-4.2v-13c0-3-.23-3.26-3-3.85V188.5a58,58,0,0,0,10.65-2.25v6.39c2.66-4.09,4.79-6.28,7.22-6.28a3.6,3.6,0,0,1,3.85,3.56,5.76,5.76,0,0,1-3,5,1.64,1.64,0,0,1-1.84-.3c-1-.83-1.77-1.77-2.78-1.77s-2.37.77-3.43,3v11.25c0,3.55.41,3.73,4.56,4.2Z"/><path class="cls-2" d="M192.45,207.55c-3.61,5.33-8.34,6.52-10.83,6.52-7.93,0-12.43-5.86-12.43-12.91a15.52,15.52,0,0,1,4.44-10.65,13.23,13.23,0,0,1,9.23-4.15,9.71,9.71,0,0,1,9.77,9.65c0,1-.06,2-.77,2.19-1.12.3-9.47.71-15.21,1,.24,6.27,3.73,9.47,8,9.47a10.23,10.23,0,0,0,6.75-2.66Zm-10.77-18.76c-2.37,0-4.38,2.78-4.74,7.46l7.17-.18c.83-.06,1.18-.18,1.18-1.18C185.35,191.93,184,188.79,181.68,188.79Z"/><path class="cls-2" d="M215.6,214.07a5.45,5.45,0,0,1-3.67-1.25,5.89,5.89,0,0,1-1.54-2.19c-2.25,1.48-5.15,3.44-6.28,3.44a7.79,7.79,0,0,1-8.05-7.64c0-3.14,1.42-4.56,4.56-5.8,3.49-1.3,8.17-2.72,9.53-3.91v-2.6c0-3.08-1.12-4.8-3.67-4.8a2.94,2.94,0,0,0-2.37,1.19,11.48,11.48,0,0,0-1.42,3.9,2.34,2.34,0,0,1-2.54,2c-1.54,0-3.49-1.42-3.49-3.08,0-1.07.71-1.84,2.07-2.78a29.18,29.18,0,0,1,9.47-4.21,10.38,10.38,0,0,1,6.09,1.72c2.55,1.78,3.26,4.26,3.26,7.28V205.6c0,2.84.95,3.55,1.89,3.55a4.36,4.36,0,0,0,1.84-.47l.65,2Zm-5.45-14.92L206.84,201c-1.84,1-2.9,2-2.9,4,0,3.31,2.3,4.5,3.61,4.5a3.33,3.33,0,0,0,2.6-.95Z"/><path class="cls-2" d="M236.79,213.41a6.44,6.44,0,0,1-2.37.66c-4.56,0-7.28-2.14-7.28-7.52V190h-3.79l-.35-.71,1.71-2.24h2.43v-4.92c2-1.42,4.91-3.31,7-4.73l.77.47c-.06,1.6-.17,4.74-.11,9.18h5.91a2.52,2.52,0,0,1-.47,2.95h-5.44v14.51c0,4.61,1.89,5.15,3,5.15a7.08,7.08,0,0,0,2.84-.6l.6,2.13Z"/><path class="cls-2" d="M267.15,207.55c-3.61,5.33-8.34,6.52-10.83,6.52-7.93,0-12.43-5.86-12.43-12.91a15.52,15.52,0,0,1,4.44-10.65,13.23,13.23,0,0,1,9.23-4.15,9.71,9.71,0,0,1,9.77,9.65c0,1-.06,2-.77,2.19-1.12.3-9.47.71-15.21,1,.24,6.27,3.73,9.47,8,9.47a10.23,10.23,0,0,0,6.75-2.66Zm-10.77-18.76c-2.37,0-4.38,2.78-4.73,7.46l7.16-.18c.83-.06,1.18-.18,1.18-1.18C260.05,191.93,258.69,188.79,256.38,188.79Z"/></g></g></svg>