<svg xmlns="http://www.w3.org/2000/svg" width="108.409" height="49.685" viewBox="0 0 108.409 49.685">
  <g id="logo" transform="translate(-107.736 -436.77)">
    <path id="Path_203" data-name="Path 203" d="M156.883,481.239a4.662,4.662,0,0,1-1.318,3.254,3.793,3.793,0,0,1-2.769,1.424q-4.194,0-8.657-3.871a23.064,23.064,0,0,1-7.313-13.281.6.6,0,0,0-.645-.538h-2.1v14.948a2.914,2.914,0,0,1-1.21,2.286,4.8,4.8,0,0,1-3.146.994,4.715,4.715,0,0,1-3.092-.994,2.914,2.914,0,0,1-1.21-2.286V468.227H120.8a35.743,35.743,0,0,1-3.119,12.475q-2.474,5.107-5.108,5.108a4.11,4.11,0,0,1-3.065-1.344,5.217,5.217,0,0,1-1.291-3.764,5.45,5.45,0,0,1,1.237-3.226,15.077,15.077,0,0,0,2.8-9.249h-1.344a2.843,2.843,0,0,1-2.179-1.183,4.87,4.87,0,0,1-.027-5.861A2.816,2.816,0,0,1,110.909,460h1.505v-2.42H111.5a2.707,2.707,0,0,1-2.286-1.1,5.125,5.125,0,0,1-.833-3.145,4.3,4.3,0,0,1,.619-2.366,2.309,2.309,0,0,1,1.854-1.075,36.121,36.121,0,0,0,5.619-.995q2.5-.672,5.028-1.371a2.5,2.5,0,0,1,2.124,1.21,4.761,4.761,0,0,1,.834,2.769,3.676,3.676,0,0,1-.968,2.8,8.477,8.477,0,0,1-2.527,1.237V460h4.462V446.719H110.909a2.845,2.845,0,0,1-2.179-1.184,4.857,4.857,0,0,1,0-5.888,2.829,2.829,0,0,1,2.179-1.21h30.273a3.8,3.8,0,0,1,2.8,1.13,3.735,3.735,0,0,1,1.129,2.742q0,9.626,7.528,11.883,3.5,1.023,3.5,4.194a4.933,4.933,0,0,1-1.022,3.066q1.666.377,1.667,3.011a3.155,3.155,0,0,1-.457,1.667,2.3,2.3,0,0,1-1.21,1.021l-3.763.861a.461.461,0,0,0-.269.484.417.417,0,0,0,.269.43l3.817,1.022a1.965,1.965,0,0,1,1.129.967,3.3,3.3,0,0,1,.431,1.667,3.812,3.812,0,0,1-.592,2.2,1.906,1.906,0,0,1-1.667.86l-1.129-.161-4.678-1.828a4.486,4.486,0,0,1-1.909-1.882,6.631,6.631,0,0,1-.726-3.28,6.5,6.5,0,0,1,.726-3.226,4.489,4.489,0,0,1,1.909-1.883l1.075-.43a14.2,14.2,0,0,1-6.882-4.409,24.17,24.17,0,0,1-5.432-11.346.552.552,0,0,0-.591-.483h-2.742V460h6.56a3.914,3.914,0,0,1,2.8,1.129,3.652,3.652,0,0,1,1.183,2.742q0,7.368,3.172,10.378,1.237,1.184,5.861,2.9Q156.883,478.39,156.883,481.239Zm-.108-40.113a3.155,3.155,0,0,1-.457,1.667,2.294,2.294,0,0,1-1.21,1.021l-3.763.861a.461.461,0,0,0-.269.484.417.417,0,0,0,.269.43l3.817,1.022a1.967,1.967,0,0,1,1.129.968,3.3,3.3,0,0,1,.431,1.667,3.947,3.947,0,0,1-.565,2.2,1.84,1.84,0,0,1-1.64.86,3.445,3.445,0,0,1-1.183-.214l-4.678-1.829a4.133,4.133,0,0,1-1.909-1.855,6.786,6.786,0,0,1-.726-3.307,6.5,6.5,0,0,1,.726-3.226A4.486,4.486,0,0,1,148.656,440l4.624-1.829,1.129-.161Q156.776,438.007,156.775,441.126Z" fill="#e33c0b"/>
    <path id="Path_204" data-name="Path 204" d="M176.623,476.024a32.4,32.4,0,0,1-.349,3.737,39.549,39.549,0,0,1-.727,4.113q-.431,2.472-3.6,2.474a4.884,4.884,0,0,1-2.93-.834,2.616,2.616,0,0,1-1.156-2.231q.431-2.259.726-4.087a21.44,21.44,0,0,0,.3-3.387,2.5,2.5,0,0,1,1.048-2.017,4.508,4.508,0,0,1,2.877-.833,4.146,4.146,0,0,1,2.769.887A2.744,2.744,0,0,1,176.623,476.024Zm39.522-13.712a2.768,2.768,0,0,1-.618,1.855,1.885,1.885,0,0,1-1.479.726H180.064v1.29q0,.484.538.484h30.273a3.855,3.855,0,0,1,3.871,3.872v5.807q0,4.572-1.935,6.883t-6.022,2.312h-3.657a2.8,2.8,0,0,1-2.554-1.344,6.663,6.663,0,0,1-.833-3.549,7,7,0,0,1,.806-3.576,2.771,2.771,0,0,1,2.581-1.371h1.452q1.29,0,1.29-1.452v-1.774a.475.475,0,0,0-.537-.538H175.009a3.769,3.769,0,0,1-3.871-3.872v-24.9a3.855,3.855,0,0,1,3.871-3.871H183.4a3.569,3.569,0,0,1,1.344-1.909,5.177,5.177,0,0,1,2.85-.619,8.872,8.872,0,0,1,3.576.512,1.67,1.67,0,0,1,1.048,1.586l-.053.43h15.378a3.769,3.769,0,0,1,3.872,3.871v10.862a3.855,3.855,0,0,1-3.872,3.872H180.064v1.774h33.984a1.885,1.885,0,0,1,1.479.726A2.85,2.85,0,0,1,216.145,462.312Zm-32.532,20.165q0,2.418-2.958,2.419a3.36,3.36,0,0,1-2.177-.672,2.141,2.141,0,0,1-.834-1.747v-6.292q0-2.42,3.011-2.42a3.35,3.35,0,0,1,2.151.645,2.15,2.15,0,0,1,.807,1.775Zm18.927-36.4v-1.291c0-.322-.179-.484-.537-.484H180.6c-.359,0-.538.162-.538.484v1.291Zm0,6.291v-1.29H180.064V452.9H202A.475.475,0,0,0,202.54,452.364ZM191.2,482.477q0,2.418-2.9,2.419a3.574,3.574,0,0,1-2.2-.645,2.1,2.1,0,0,1-.861-1.774v-6.292a2.1,2.1,0,0,1,.834-1.8,3.66,3.66,0,0,1,2.231-.619,3.22,3.22,0,0,1,2.151.645,2.218,2.218,0,0,1,.753,1.775Zm7.635,0q0,2.418-2.9,2.419a3.575,3.575,0,0,1-2.205-.645,2.1,2.1,0,0,1-.861-1.774v-6.292a2.1,2.1,0,0,1,.834-1.8,3.661,3.661,0,0,1,2.232-.619,3.22,3.22,0,0,1,2.151.645,2.218,2.218,0,0,1,.752,1.775Z" fill="#e33c0b"/>
  </g>
</svg>
