<svg xmlns="http://www.w3.org/2000/svg" width="40.325" height="40.325" viewBox="0 0 40.325 40.325">
  <path id="svg_phone_reverse" d="M2986.912,690.443a20.163,20.163,0,1,1-20.162-20.162A20.163,20.163,0,0,1,2986.912,690.443Zm-7.754-7.008c-1.057-1.465-3.566-4-12.413-4s-11.339,2.537-12.405,4a10.206,10.206,0,0,0-1.029,3.336,1.322,1.322,0,0,0,1.339,1.465h4a1.417,1.417,0,0,0,1.426-1.465s-.031-1.179-.036-1.754c-.005-1.286,1.465-1.5,1.951-1.5v2.419c0,2.51-2.5,3.515-4.793,7.463a17.7,17.7,0,0,0-1.789,5.7,2.223,2.223,0,0,0,2.234,2.358h18.236a2.224,2.224,0,0,0,2.225-2.358,17.7,17.7,0,0,0-1.789-5.7c-2.292-3.948-4.8-4.953-4.8-7.463v-2.419c.481,0,1.96.215,1.956,1.5,0,.575-.031,1.754-.031,1.754a1.414,1.414,0,0,0,1.425,1.465h3.992a1.332,1.332,0,0,0,1.34-1.465A10.081,10.081,0,0,0,2979.158,683.435Zm-14.823.081h4.815v1.9h-4.815Zm7.97,10.511a5.552,5.552,0,1,1-5.56-5.548A5.554,5.554,0,0,1,2972.3,694.027Z" transform="translate(-2946.587 -670.281)" fill="#fff"/>
</svg>
