<svg xmlns="http://www.w3.org/2000/svg" width="39.227" height="32.116" viewBox="0 0 39.227 32.116">
  <path id="svg_icon_phone" d="M2399.992,421.915c-1.54-2.136-5.2-5.836-18.1-5.836-12.884,0-16.536,3.7-18.09,5.836-1.009,1.4-1.5,4.865-1.5,4.865a1.929,1.929,0,0,0,1.954,2.137h5.829a2.067,2.067,0,0,0,2.079-2.137s-.046-1.719-.053-2.558c-.007-1.875,2.137-2.19,2.846-2.19v3.529c0,3.659-3.639,5.126-6.99,10.884a25.813,25.813,0,0,0-2.609,8.312,3.242,3.242,0,0,0,3.258,3.438h26.594a3.245,3.245,0,0,0,3.246-3.438,25.841,25.841,0,0,0-2.609-8.312c-3.344-5.758-7-7.225-7-10.884v-3.529c.7,0,2.859.315,2.852,2.19,0,.839-.045,2.558-.045,2.558a2.062,2.062,0,0,0,2.078,2.137h5.822a1.944,1.944,0,0,0,1.955-2.137S2401.015,423.318,2399.992,421.915Zm-21.616.117h7.022V424.8h-7.022ZM2390,437.362a8.1,8.1,0,1,1-8.108-8.091A8.1,8.1,0,0,1,2390,437.362Z" transform="translate(-2362.289 -416.079)" fill="#fff"/>
</svg>
