<svg xmlns="http://www.w3.org/2000/svg" width="40.325" height="40.325" viewBox="0 0 40.325 40.325">
  <g id="svg_mail_reverse" transform="translate(-3322.141 -670.281)">
    <g id="Group_167" data-name="Group 167">
      <path id="Path_243" data-name="Path 243" d="M3362.466,690.443a20.162,20.162,0,1,1-20.162-20.162A20.163,20.163,0,0,1,3362.466,690.443Z" fill="#fff"/>
    </g>
    <g id="Group_168" data-name="Group 168">
      <path id="Path_244" data-name="Path 244" d="M3353.33,683.347h-22.054a.881.881,0,0,0-.884.883v14.6a.886.886,0,0,0,.884.883h22.054a.886.886,0,0,0,.885-.883v-14.6A.881.881,0,0,0,3353.33,683.347Zm-2.253,1.768-6.092,5.786c0,.008-.016,0-.024.008s0,.015-.008.021l-2.63,2.5-8.788-8.316Zm-18.916,1.138,5.577,5.278-5.577,5.278Zm1.369,11.694,5.493-5.2,2.692,2.546a.878.878,0,0,0,.608.246.893.893,0,0,0,.611-.246l2.677-2.54,5.466,5.194Zm18.916-1.147-5.547-5.269,5.547-5.27Z" fill="#f38200"/>
    </g>
  </g>
</svg>
