<svg xmlns="http://www.w3.org/2000/svg" width="38.602" height="26.523" viewBox="0 0 38.602 26.523">
  <path id="svg_icon_mail" d="M2508.84,420.634H2473.1a1.428,1.428,0,0,0-1.433,1.432v23.659a1.436,1.436,0,0,0,1.433,1.432h35.735a1.437,1.437,0,0,0,1.434-1.432V422.066A1.428,1.428,0,0,0,2508.84,420.634Zm-3.651,2.865-9.872,9.375c-.006.013-.025,0-.037.013s-.007.024-.014.035L2491,436.973,2476.764,423.5Zm-30.65,1.844,9.036,8.553-9.036,8.551Zm2.218,18.948,8.9-8.425,4.361,4.126a1.427,1.427,0,0,0,.986.4,1.454,1.454,0,0,0,.99-.4l4.337-4.116,8.857,8.415Zm30.65-1.857-8.987-8.538,8.987-8.539Z" transform="translate(-2471.672 -420.634)" fill="#fff"/>
</svg>
