<svg xmlns="http://www.w3.org/2000/svg" width="530.847" height="345.088" viewBox="0 0 530.847 345.088">
  <g id="Group_543" data-name="Group 543" transform="translate(-210.705 -1991.121)">
    <path id="Path_1229" data-name="Path 1229" d="M377.61,2105.248l-20.75,106.459h51.876v9.924h-53.68L333.4,2331.7H322.577l21.653-110.067H272.957l-21.2,110.067H240.478l21.652-110.067H210.705v-9.924h53.23l21.2-106.459H233.711v-10.375h53.681l19.4-99.241h10.375l-19.4,99.241h71.724l19.4-99.241h10.375l-19.4,99.241H430.84v10.375Zm-10.375,0H295.962l-20.75,106.459h71.273Z" fill="#ebebeb"/>
    <path id="Path_1230" data-name="Path 1230" d="M639.7,2163.439c0,110.519-32.118,172.77-91.3,172.77-58.825,0-90.944-62.7-90.944-172.77,0-110.518,31.758-172.318,90.944-172.318S639.7,2052.921,639.7,2163.439Zm-8.3,0c0-106.007-28.149-162.845-83-162.845s-82.644,56.838-82.644,162.845c0,106.459,27.789,163.3,82.644,163.3S631.4,2269.447,631.4,2163.439Z" fill="#ebebeb"/>
    <path id="Path_1231" data-name="Path 1231" d="M740.2,2297.415c0,11.277,0,22.554,1.353,34.283H728.47c1.354-11.729,1.354-23.006,1.354-34.283v-288.7l-78.942,52.778c-6.767,4.511-12.18,8.571-14.435,11.277v-13.533a62.267,62.267,0,0,0,9.924-5.864l73.077-48.718a47.281,47.281,0,0,0,10.826-9.022h11.278c-1.353,11.728-1.353,23.006-1.353,34.283Z" fill="#ebebeb"/>
  </g>
</svg>
