<svg xmlns="http://www.w3.org/2000/svg" width="105.27" height="99.611" viewBox="0 0 105.27 99.611">
  <g id="Group_55" data-name="Group 55" transform="translate(-873.66 -1559.147)">
    <g id="Group_54" data-name="Group 54">
      <path id="Path_78" data-name="Path 78" d="M926.295,1585.31a32.519,32.519,0,0,1-14.438-3.049,24.775,24.775,0,0,1-13.291-16.9l4.778-.809a19.964,19.964,0,0,0,10.779,13.419,30.951,30.951,0,0,0,24.472-.063,19.959,19.959,0,0,0,10.65-13.356,2.423,2.423,0,1,1,4.779.809,24.782,24.782,0,0,1-13.291,16.9A32.522,32.522,0,0,1,926.295,1585.31Z" fill="#009389"/>
      <path id="Path_79" data-name="Path 79" d="M927.259,1658.757q-.484,0-.964-.019a30.291,30.291,0,0,1-17.753-5.463,31.869,31.869,0,0,1-12.044-14.323c-2.543-6.413-2.358-15.47-2.209-22.748.019-.891.036-1.732.047-2.532.073-5.255.27-10.469.585-15.505l-7.008,6.68a2.424,2.424,0,0,1-3.653-.357l-10.157-14.4a2.424,2.424,0,0,1-.164-2.526,52.608,52.608,0,0,1,9.5-12.66,71.444,71.444,0,0,1,10.778-8.754,73.069,73.069,0,0,1,12.607-6.839,2.423,2.423,0,0,1,3.227,1.637,18.508,18.508,0,0,0,3.343,6.119,17.153,17.153,0,0,0,25.919-.136,18.5,18.5,0,0,0,3.232-5.983,2.422,2.422,0,0,1,3.226-1.637,73.069,73.069,0,0,1,12.607,6.839,71.441,71.441,0,0,1,10.778,8.754,52.632,52.632,0,0,1,9.5,12.66,2.424,2.424,0,0,1-.165,2.526l-10.157,14.4a2.423,2.423,0,0,1-3.652.357l-7.009-6.68c.316,5.037.513,10.251.586,15.505.011.8.028,1.641.046,2.532.149,7.278.335,16.335-2.208,22.748a31.871,31.871,0,0,1-12.045,14.323A30.71,30.71,0,0,1,927.259,1658.757Zm-.964-4.868c.037,0,.073,0,.11,0a25.394,25.394,0,0,0,14.948-4.645,27.37,27.37,0,0,0,10.233-12.081c2.183-5.5,2-14.38,1.868-20.861-.018-.9-.035-1.749-.047-2.565-.074-5.325-.277-10.607-.6-15.7-.011-.161-.024-.4-.041-.682-.07-1.216-.216-3.747-.387-4.958a2.423,2.423,0,0,1,4.072-2.092l9.54,9.092,7.665-10.865a48.658,48.658,0,0,0-7.872-10.147,66.447,66.447,0,0,0-10-8.138,75.472,75.472,0,0,0-9.541-5.429,24.014,24.014,0,0,1-3.162,5.156,21.987,21.987,0,0,1-33.573,0,24.007,24.007,0,0,1-3.161-5.156,75.472,75.472,0,0,0-9.541,5.429,66.4,66.4,0,0,0-10,8.138,48.629,48.629,0,0,0-7.873,10.147L886.6,1599.4l9.043-8.619c.746-.711.76-.724,1.085-.887a2.424,2.424,0,0,1,3.484,2.506c-.171,1.21-.317,3.739-.387,4.954-.017.288-.031.524-.041.686-.327,5.09-.53,10.372-.6,15.7-.011.816-.028,1.665-.047,2.565-.133,6.481-.314,15.357,1.868,20.861a27.379,27.379,0,0,0,10.234,12.081,25.389,25.389,0,0,0,14.947,4.645C926.221,1653.889,926.258,1653.889,926.295,1653.889Z" fill="#009389"/>
      <g id="Group_53" data-name="Group 53">
        <path id="Path_80" data-name="Path 80" d="M921.116,1657.431a2.423,2.423,0,0,1-2.413-2.236c-.545-7.006-3.831-11.846-9.769-14.387a24.2,24.2,0,0,0-9.354-1.826,2.424,2.424,0,1,1-.22-4.842,28.8,28.8,0,0,1,11.307,2.139c5.389,2.257,11.995,7.306,12.868,18.54a2.423,2.423,0,0,1-2.229,2.6C921.243,1657.428,921.179,1657.431,921.116,1657.431Z" fill="#009389"/>
        <path id="Path_81" data-name="Path 81" d="M931.474,1657.431c-.063,0-.127,0-.191-.008a2.422,2.422,0,0,1-2.228-2.6c.872-11.234,7.479-16.283,12.867-18.54a28.8,28.8,0,0,1,11.308-2.139,2.424,2.424,0,0,1-.221,4.842,24.189,24.189,0,0,0-9.353,1.826c-5.938,2.541-9.225,7.381-9.769,14.387A2.424,2.424,0,0,1,931.474,1657.431Z" fill="#009389"/>
      </g>
      <path id="Path_82" data-name="Path 82" d="M926.295,1624.491a2.426,2.426,0,0,1-.665-.093,24.438,24.438,0,0,1-10.584-6.167,15.433,15.433,0,0,1-4.843-10.608,11.322,11.322,0,0,1,1.811-6.294,9.9,9.9,0,0,1,5.621-4.175,10.919,10.919,0,0,1,7.96.89.765.765,0,0,0,1.4,0,10.922,10.922,0,0,1,7.961-.89,9.9,9.9,0,0,1,5.621,4.175,11.321,11.321,0,0,1,1.811,6.294,15.437,15.437,0,0,1-4.843,10.608,24.447,24.447,0,0,1-10.585,6.167A2.419,2.419,0,0,1,926.295,1624.491Zm-5.819-22.873a5.573,5.573,0,0,0-1.506.195,5.783,5.783,0,0,0-3.921,5.743,10.9,10.9,0,0,0,3.449,7.273,19.411,19.411,0,0,0,7.8,4.707,19.411,19.411,0,0,0,7.8-4.707,10.908,10.908,0,0,0,3.449-7.273,5.786,5.786,0,0,0-3.921-5.743h0a6.034,6.034,0,0,0-4.205.431c-.65.375-.74.729-.769.846a2.423,2.423,0,0,1-4.7,0c-.03-.117-.119-.471-.769-.846A5.666,5.666,0,0,0,920.476,1601.618Z" fill="#009389"/>
    </g>
  </g>
</svg>
