<svg xmlns="http://www.w3.org/2000/svg" width="90.542" height="82.67" viewBox="0 0 90.542 82.67">
  <g id="Group_48" data-name="Group 48" transform="translate(-881.024 -1198.46)">
    <g id="Group_47" data-name="Group 47">
      <path id="Path_65" data-name="Path 65" d="M949.62,1238.359h-1.4a5.567,5.567,0,0,1-5.558-5.294c-.161-3.161-.806-9.217-3.319-14.257-2.831-5.678-7.1-8.437-13.044-8.437s-10.214,2.759-13.045,8.437c-2.513,5.04-3.158,11.1-3.318,14.258a5.568,5.568,0,0,1-5.558,5.293h-1.405a5.561,5.561,0,0,1-5.562-5.766c.167-4.408,1.037-12.9,5-20.252a26.2,26.2,0,0,1,8.75-9.756,29.849,29.849,0,0,1,30.281,0,26.2,26.2,0,0,1,8.75,9.756c3.96,7.35,4.831,15.844,5,20.252a5.561,5.561,0,0,1-5.562,5.766Zm-23.325-32.685c7.683,0,13.647,3.817,17.247,11.038,2.749,5.513,3.587,11.806,3.807,16.115a.872.872,0,0,0,.867.835h1.4a.866.866,0,0,0,.63-.267.846.846,0,0,0,.239-.624c-.151-4-.929-11.688-4.439-18.2a21.573,21.573,0,0,0-7.172-8.044,25.2,25.2,0,0,0-25.167,0,21.573,21.573,0,0,0-7.172,8.044c-3.51,6.516-4.287,14.2-4.439,18.2a.852.852,0,0,0,.239.624.868.868,0,0,0,.63.267h1.405a.873.873,0,0,0,.867-.835c.219-4.309,1.057-10.6,3.806-16.115C912.648,1209.491,918.612,1205.674,926.295,1205.674Z" fill="#009389"/>
      <path id="Path_66" data-name="Path 66" d="M967.242,1269h-81.9a2.348,2.348,0,1,1,0-4.7h81.9a2.348,2.348,0,1,1,0,4.7Z" fill="#009389"/>
      <path id="Path_67" data-name="Path 67" d="M937.512,1250.215H915.078a2.349,2.349,0,0,1-2.349-2.349v-9.849a2.349,2.349,0,0,1,2.349-2.348h22.434a2.348,2.348,0,0,1,2.348,2.348v9.849A2.349,2.349,0,0,1,937.512,1250.215Zm-20.086-4.7h17.738v-5.153H917.426Z" fill="#009389"/>
      <path id="Path_68" data-name="Path 68" d="M966.66,1281.13H885.929a4.9,4.9,0,0,1-4.887-5.326l4.272-49.6a4.878,4.878,0,0,1,4.888-4.485h10.572a2.348,2.348,0,1,1,0,4.7H890.2a.211.211,0,0,0-.209.191l-4.272,49.6a.209.209,0,0,0,.208.227H966.66a.209.209,0,0,0,.208-.228l-4.272-49.6a.21.21,0,0,0-.208-.191H951.815a2.348,2.348,0,1,1,0-4.7h10.573a4.877,4.877,0,0,1,4.887,4.485l4.273,49.6a4.9,4.9,0,0,1-4.888,5.326Z" fill="#009389"/>
      <path id="Path_69" data-name="Path 69" d="M943.714,1226.412H908.876a2.348,2.348,0,1,1,0-4.7h34.838a2.348,2.348,0,0,1,0,4.7Z" fill="#009389"/>
    </g>
  </g>
</svg>
