<svg xmlns="http://www.w3.org/2000/svg" width="109.368" height="112.634" viewBox="0 0 109.368 112.634">
  <g id="Group_46" data-name="Group 46" transform="translate(-219.021 -1549.487)">
    <g id="Group_45" data-name="Group 45">
      <g id="Group_37" data-name="Group 37">
        <path id="Path_53" data-name="Path 53" d="M258.448,1570.991a2.692,2.692,0,0,1-1.829-.716l-10.363-9.6a2.69,2.69,0,0,1-.16-3.788l5.949-6.525a2.692,2.692,0,0,1,3.579-.359l10.747,7.869a2.692,2.692,0,0,1,.545,3.81l-6.333,8.252a2.691,2.691,0,0,1-1.908,1.044C258.6,1570.988,258.523,1570.991,258.448,1570.991Zm-6.575-12.447,6.237,5.774,2.859-3.725-6.575-4.814Z" fill="#009389"/>
        <path id="Path_54" data-name="Path 54" d="M270.73,1570.991q-.114,0-.228-.009a2.693,2.693,0,0,1-1.908-1.044l-6.333-8.252a2.691,2.691,0,0,1,.546-3.81l10.746-7.869a2.693,2.693,0,0,1,3.58.359l5.949,6.525a2.691,2.691,0,0,1-.161,3.788l-10.363,9.6A2.691,2.691,0,0,1,270.73,1570.991Zm-2.522-10.4,2.859,3.725,6.237-5.774-2.521-2.765Z" fill="#009389"/>
      </g>
      <g id="Group_39" data-name="Group 39">
        <g id="Group_38" data-name="Group 38">
          <path id="Path_55" data-name="Path 55" d="M264.589,1575.208a3.028,3.028,0,1,0,3.028,3.028,3.029,3.029,0,0,0-3.028-3.028Z" fill="#009389"/>
        </g>
      </g>
      <g id="Group_41" data-name="Group 41">
        <g id="Group_40" data-name="Group 40">
          <path id="Path_56" data-name="Path 56" d="M264.589,1587.724a3.029,3.029,0,1,0,3.028,3.029,3.029,3.029,0,0,0-3.028-3.029Z" fill="#009389"/>
        </g>
      </g>
      <g id="Group_43" data-name="Group 43">
        <g id="Group_42" data-name="Group 42">
          <path id="Path_57" data-name="Path 57" d="M264.589,1600.241a3.028,3.028,0,1,0,3.028,3.028,3.029,3.029,0,0,0-3.028-3.028Z" fill="#009389"/>
        </g>
      </g>
      <path id="Path_58" data-name="Path 58" d="M235.325,1608.894a2.706,2.706,0,0,1-.686-.089l-11.323-2.975a2.692,2.692,0,0,1,1.368-5.207l11.323,2.975a2.692,2.692,0,0,1-.682,5.3Z" fill="#009389"/>
      <path id="Path_59" data-name="Path 59" d="M293.87,1653.34l-.141,0-19.536-1.01a2.692,2.692,0,1,1,.278-5.376l19.535,1.009a2.692,2.692,0,0,1-.136,5.38Z" fill="#009389"/>
      <path id="Path_60" data-name="Path 60" d="M284.617,1618.009H244.56a4.83,4.83,0,0,1-4.823-5.042l.583-13.154-3.455,12.414a4.829,4.829,0,0,1-6.006,3.339l-8.365-2.445a4.843,4.843,0,0,1-3.292-5.946l12.284-43.519a11.006,11.006,0,0,1,2.725-4.7l1.275-1.3a11.032,11.032,0,0,1,6.378-3.195l6.822-.916a2.691,2.691,0,1,1,.717,5.335l-6.823.917a5.611,5.611,0,0,0-3.249,1.628l-1.276,1.3a5.613,5.613,0,0,0-1.388,2.4l-12.135,42.989,7.3,2.133,9.631-34.6a2.692,2.692,0,0,1,5.283.841l-1.6,36.146h38.9l-1.6-36.146a2.692,2.692,0,0,1,5.282-.841l9.632,34.6,7.3-2.133-12.134-42.989a5.61,5.61,0,0,0-1.389-2.4l-1.275-1.3a5.617,5.617,0,0,0-3.25-1.628l-6.822-.917a2.691,2.691,0,1,1,.717-5.335l6.822.916a11.026,11.026,0,0,1,6.377,3.195l1.276,1.3a11.012,11.012,0,0,1,2.725,4.7l12.283,43.519a4.843,4.843,0,0,1-3.291,5.946l-8.366,2.445a4.827,4.827,0,0,1-6.006-3.339l-3.455-12.414.583,13.154a4.828,4.828,0,0,1-4.823,5.042Zm20.177-9.372h0Z" fill="#009389"/>
      <path id="Path_61" data-name="Path 61" d="M293.853,1608.894a2.692,2.692,0,0,1-.682-5.3l11.322-2.975a2.692,2.692,0,0,1,1.368,5.207l-11.323,2.975A2.7,2.7,0,0,1,293.853,1608.894Z" fill="#009389"/>
      <path id="Path_62" data-name="Path 62" d="M304.841,1653.34a2.692,2.692,0,0,1-.137-5.38l19.535-1.009a2.692,2.692,0,1,1,.278,5.376l-19.535,1.01Z" fill="#009389"/>
      <g id="Group_44" data-name="Group 44">
        <path id="Path_63" data-name="Path 63" d="M293.712,1662.121l-.123,0-20.7-.94a2.693,2.693,0,0,1-2.562-2.89l2.655-35.542a2.691,2.691,0,1,1,5.368.4l-2.448,32.779,15.389.7,3.727-36.23a2.692,2.692,0,0,1,5.355.551l-3.987,38.759A2.691,2.691,0,0,1,293.712,1662.121Z" fill="#009389"/>
        <path id="Path_64" data-name="Path 64" d="M305,1662.121a2.69,2.69,0,0,1-2.675-2.416l-4.062-39.485a2.692,2.692,0,0,1,5.356-.551l3.8,36.956,15.389-.7-5.252-70.322h-9.3a2.692,2.692,0,0,1,0-5.384h11.8a2.692,2.692,0,0,1,2.684,2.491l5.645,75.577a2.693,2.693,0,0,1-2.562,2.89l-20.7.94Z" fill="#009389"/>
      </g>
    </g>
  </g>
</svg>
