<svg xmlns="http://www.w3.org/2000/svg" width="83.257" height="93.514" viewBox="0 0 83.257 93.514">
  <g id="Group_36" data-name="Group 36" transform="translate(-232.077 -1204.566)">
    <g id="Group_35" data-name="Group 35">
      <g id="Group_31" data-name="Group 31">
        <path id="Path_34" data-name="Path 34" d="M280.2,1284.49a2.124,2.124,0,0,1-2.1-2.435l1.753-11.917a2.129,2.129,0,0,1,1.274-1.649l21.478-9.1a2.129,2.129,0,0,1,2.071.232l9.779,7.033a2.126,2.126,0,0,1-.413,3.684l-33.009,13.981A2.125,2.125,0,0,1,280.2,1284.49Zm3.682-12.551-1.028,6.992,26.042-11.031-5.737-4.126Z" fill="#009389"/>
        <path id="Path_35" data-name="Path 35" d="M305.419,1298.08a2.129,2.129,0,0,1-1.009-.254l-25.221-13.59a2.127,2.127,0,0,1,.18-3.83l33.009-13.981a2.126,2.126,0,0,1,2.875,2.536l-7.788,27.571a2.125,2.125,0,0,1-2.046,1.548Zm-20.312-15.486,18.986,10.23,5.863-20.755Z" fill="#009389"/>
        <path id="Path_36" data-name="Path 36" d="M305.42,1298.08a2.124,2.124,0,0,1-1.708-.859L290,1278.756a2.128,2.128,0,0,1,.878-3.226l9.984-4.229a2.127,2.127,0,0,1,2.928,1.614l3.724,22.694a2.128,2.128,0,0,1-2.1,2.471Zm-10.391-19.689,6.872,9.257-1.867-11.376Z" fill="#009389"/>
        <path id="Path_37" data-name="Path 37" d="M291.711,1279.614a2.126,2.126,0,0,1-1.254-.408l-9.688-7.072a2.126,2.126,0,1,1,2.507-3.435l6.634,4.842.661-7.821a2.126,2.126,0,0,1,3.464-1.468l6.078,4.968,1.138-8.134a2.126,2.126,0,1,1,4.211.589l-1.662,11.879a2.126,2.126,0,0,1-3.451,1.351l-5.881-4.806-.639,7.568a2.124,2.124,0,0,1-2.118,1.947Z" fill="#009389"/>
      </g>
      <g id="Group_34" data-name="Group 34">
        <g id="Group_33" data-name="Group 33">
          <path id="Path_38" data-name="Path 38" d="M269.237,1217.84a6.578,6.578,0,1,1,6.431-5.207A6.585,6.585,0,0,1,269.237,1217.84Zm0-8.9a2.325,2.325,0,1,0,2.274,2.81h0a2.329,2.329,0,0,0-2.274-2.81Z" fill="#009389"/>
          <g id="Group_32" data-name="Group 32">
            <path id="Path_39" data-name="Path 39" d="M256.28,1217.722a6.578,6.578,0,1,1,6.431-5.207h0A6.589,6.589,0,0,1,256.28,1217.722Zm0-8.9a2.325,2.325,0,1,0,.485.051A2.3,2.3,0,0,0,256.278,1208.819Zm4.354,3.253h0Z" fill="#009389"/>
            <path id="Path_40" data-name="Path 40" d="M244.838,1222.984a6.578,6.578,0,1,1,6.432-5.207h0A6.589,6.589,0,0,1,244.838,1222.984Zm-.006-8.9a2.329,2.329,0,1,0,.49.052A2.338,2.338,0,0,0,244.832,1214.08Zm4.358,3.254h0Z" fill="#009389"/>
            <path id="Path_41" data-name="Path 41" d="M238.658,1234.147a6.578,6.578,0,1,1,6.432-5.207h0A6.589,6.589,0,0,1,238.658,1234.147Zm0-8.9a2.326,2.326,0,1,0,2.275,2.811h0a2.329,2.329,0,0,0-2.275-2.811Z" fill="#009389"/>
            <path id="Path_42" data-name="Path 42" d="M239.655,1246.774a6.666,6.666,0,0,1-1.385-.146,6.578,6.578,0,1,1,7.8-5.062h0a6.583,6.583,0,0,1-6.42,5.208Zm-.018-8.905a2.327,2.327,0,0,0-2.269,1.841,2.325,2.325,0,0,0,4.548.969h0a2.329,2.329,0,0,0-2.279-2.81Zm4.358,3.254h0Z" fill="#009389"/>
            <path id="Path_43" data-name="Path 43" d="M242.862,1258.791a6.579,6.579,0,1,1,6.432-5.207A6.529,6.529,0,0,1,242.862,1258.791Zm0-8.9a2.325,2.325,0,1,0,2.274,2.81h0a2.325,2.325,0,0,0-1.789-2.759A2.377,2.377,0,0,0,242.861,1249.887Z" fill="#009389"/>
            <path id="Path_44" data-name="Path 44" d="M250.012,1268.865a6.58,6.58,0,1,1,6.42-5.208h0a6.583,6.583,0,0,1-6.42,5.208Zm-.018-8.905a2.327,2.327,0,0,0-2.269,1.84,2.325,2.325,0,1,0,2.759-1.789A2.4,2.4,0,0,0,249.994,1259.96Zm4.358,3.254h0Z" fill="#009389"/>
            <path id="Path_45" data-name="Path 45" d="M281.127,1223.019a6.659,6.659,0,0,1-1.385-.147,6.585,6.585,0,0,1-5.061-7.8h0a6.576,6.576,0,1,1,6.446,7.952Zm-.018-8.906a2.327,2.327,0,0,0-2.269,1.841h0a2.321,2.321,0,1,0,2.269-1.841Zm-4.349,1.4h0Z" fill="#009389"/>
            <path id="Path_46" data-name="Path 46" d="M289.427,1232.49a6.659,6.659,0,0,1-1.385-.147,6.584,6.584,0,0,1-5.061-7.8h0a6.576,6.576,0,1,1,6.446,7.951Zm-.018-8.906a2.327,2.327,0,0,0-2.269,1.841h0a2.321,2.321,0,1,0,2.269-1.841Zm-4.348,1.4h0Z" fill="#009389"/>
            <path id="Path_47" data-name="Path 47" d="M290.505,1245.2a6.58,6.58,0,0,1-6.435-7.95h0a6.578,6.578,0,1,1,6.435,7.95Zm-2.275-7.063a2.323,2.323,0,1,0,1.008-1.466,2.327,2.327,0,0,0-1.008,1.466Z" fill="#009389"/>
            <path id="Path_48" data-name="Path 48" d="M284.468,1256.329a6.651,6.651,0,0,1-1.385-.147,6.54,6.54,0,1,1,1.385.147Zm-.018-8.906a2.327,2.327,0,0,0-2.27,1.841h0a2.321,2.321,0,1,0,2.27-1.841Zm-4.349,1.4h0Z" fill="#009389"/>
            <path id="Path_49" data-name="Path 49" d="M276.627,1265.988a6.658,6.658,0,0,1-1.385-.146,6.587,6.587,0,0,1-5.062-7.805h0a6.576,6.576,0,1,1,6.447,7.951Zm-2.288-7.064h0a2.325,2.325,0,1,0,4.225-.78,2.3,2.3,0,0,0-1.466-1.009A2.328,2.328,0,0,0,274.339,1258.924Z" fill="#009389"/>
            <path id="Path_50" data-name="Path 50" d="M265.989,1272.273a6.578,6.578,0,1,1,6.432-5.207A6.529,6.529,0,0,1,265.989,1272.273Zm-.006-8.9a2.327,2.327,0,0,0-2.269,1.841h0a2.325,2.325,0,1,0,2.758-1.789A2.379,2.379,0,0,0,265.983,1263.368Zm-4.349,1.4h0Z" fill="#009389"/>
          </g>
        </g>
        <path id="Path_51" data-name="Path 51" d="M252.445,1297.15a7.175,7.175,0,0,1-1.488-.157c-5.423-1.157-8.339-8.311-6.638-16.288s7.28-13.32,12.7-12.164c2.771.591,4.96,2.741,6.164,6.055a18.923,18.923,0,0,1,.474,10.233C262.116,1292.076,257.368,1297.15,252.445,1297.15Zm3.108-24.51a5.071,5.071,0,0,0-3.571,1.872,16,16,0,0,0-3.193,14.973c.925,2.544,2.311,3.19,3.055,3.349s2.272.134,4.154-1.812a14.845,14.845,0,0,0,3.5-7.08h0a14.85,14.85,0,0,0-.311-7.893c-.925-2.544-2.311-3.19-3.055-3.349A2.793,2.793,0,0,0,255.553,1272.64Z" fill="#009389"/>
        <path id="Path_52" data-name="Path 52" d="M252.011,1282.732a2.1,2.1,0,0,1-.608-.089,2.125,2.125,0,0,1-1.43-2.645c1.111-3.726,3.194-4.816,3.6-5a2.126,2.126,0,0,1,1.834,3.835,4.382,4.382,0,0,0-1.359,2.377A2.127,2.127,0,0,1,252.011,1282.732Zm3.294-3.847h0Zm0,0h0Z" fill="#009389"/>
      </g>
    </g>
  </g>
</svg>
