<svg xmlns="http://www.w3.org/2000/svg" width="92.742" height="106.978" viewBox="0 0 92.742 106.978">
  <g id="Group_30" data-name="Group 30" transform="translate(-553.414 -1552.863)">
    <g id="Group_29" data-name="Group 29">
      <g id="Group_27" data-name="Group 27">
        <g id="Group_26" data-name="Group 26">
          <path id="Path_28" data-name="Path 28" d="M580.479,1592.815a2.388,2.388,0,0,1-2.388-2.388v-11.369a2.388,2.388,0,0,1,4.776,0v11.369A2.388,2.388,0,0,1,580.479,1592.815Z" fill="#009389"/>
          <path id="Path_29" data-name="Path 29" d="M587.211,1592.815a2.388,2.388,0,0,1-2.388-2.388v-11.369a2.388,2.388,0,0,1,4.776,0v11.369A2.388,2.388,0,0,1,587.211,1592.815Z" fill="#009389"/>
        </g>
        <path id="Path_30" data-name="Path 30" d="M616.087,1659.841a7.892,7.892,0,0,1-5.937-2.829,13.345,13.345,0,0,1-2.837-10.423c2.03-15.809,2.911-27.889,2.688-36.845-4.855-2.375-7.8-7.531-7.8-13.851a25.744,25.744,0,0,1,3.726-12.987c2.737-4.422,6.347-6.858,10.164-6.858s7.428,2.436,10.165,6.858a25.743,25.743,0,0,1,3.726,12.987c0,6.32-2.949,11.476-7.8,13.851-.224,8.956.658,21.036,2.688,36.845a13.345,13.345,0,0,1-2.837,10.423A7.893,7.893,0,0,1,616.087,1659.841Zm0-79.016c-4.429,0-9.114,7.745-9.114,15.068,0,4.939,2.293,8.669,6.134,9.976a2.388,2.388,0,0,1,1.616,2.164c.383,9.364-.492,22.175-2.673,39.164a8.781,8.781,0,0,0,1.686,6.66,2.893,2.893,0,0,0,4.7,0,8.777,8.777,0,0,0,1.685-6.66c-2.18-16.989-3.055-29.8-2.672-39.164a2.388,2.388,0,0,1,1.616-2.164c3.841-1.307,6.134-5.037,6.134-9.976C625.2,1588.57,620.517,1580.825,616.087,1580.825Z" fill="#009389"/>
        <path id="Path_31" data-name="Path 31" d="M583.845,1659.841a7.89,7.89,0,0,1-5.937-2.829,13.345,13.345,0,0,1-2.837-10.423c2.019-15.727,2.9-27.762,2.691-36.7a12.909,12.909,0,0,1-6.922-7.208,22.915,22.915,0,0,1-1.111-10.217,23.216,23.216,0,0,1,3.577-10.615,12.386,12.386,0,0,1,10.539-5.8h0a12.384,12.384,0,0,1,10.539,5.8,23.213,23.213,0,0,1,3.578,10.615,22.919,22.919,0,0,1-1.111,10.217,12.912,12.912,0,0,1-6.922,7.208c-.212,8.942.672,20.976,2.69,36.7a13.341,13.341,0,0,1-2.837,10.423A7.889,7.889,0,0,1,583.845,1659.841Zm0-79.016a7.7,7.7,0,0,0-6.592,3.711,20.3,20.3,0,0,0-1.968,16.4,8.25,8.25,0,0,0,5.5,4.985,2.387,2.387,0,0,1,1.7,2.192c.375,9.357-.5,22.143-2.676,39.088a8.777,8.777,0,0,0,1.686,6.66,2.893,2.893,0,0,0,4.7,0,8.781,8.781,0,0,0,1.685-6.66c-2.175-16.945-3.05-29.73-2.676-39.088a2.387,2.387,0,0,1,1.7-2.192,8.249,8.249,0,0,0,5.5-4.985,20.3,20.3,0,0,0-1.969-16.4,7.7,7.7,0,0,0-6.592-3.711Z" fill="#009389"/>
      </g>
      <g id="Group_28" data-name="Group 28">
        <path id="Path_32" data-name="Path 32" d="M599.785,1645.6c-.651,0-1.355-.018-2.152-.054a2.388,2.388,0,0,1,.218-4.772c.724.034,1.357.05,1.934.05.726,0,1.472-.022,2.279-.065a2.388,2.388,0,1,1,.257,4.769C601.428,1645.581,600.6,1645.6,599.785,1645.6Z" fill="#009389"/>
        <path id="Path_33" data-name="Path 33" d="M571.126,1634.971a2.383,2.383,0,0,1-1.556-.577,46.4,46.4,0,1,1,60.783-.305,2.388,2.388,0,1,1-3.151-3.59,41.594,41.594,0,1,0-54.518.274,2.387,2.387,0,0,1-1.558,4.2Z" fill="#009389"/>
      </g>
    </g>
  </g>
</svg>
