<svg xmlns="http://www.w3.org/2000/svg" width="61.218" height="103.659" viewBox="0 0 61.218 103.659">
  <g id="Group_52" data-name="Group 52" transform="translate(-569.176 -1197.898)">
    <g id="Group_51" data-name="Group 51">
      <path id="Path_70" data-name="Path 70" d="M596.454,1277.448a27.276,27.276,0,1,1,19.288-7.989A27.1,27.1,0,0,1,596.454,1277.448Zm0-49.99a22.713,22.713,0,1,0,22.713,22.713A22.739,22.739,0,0,0,596.454,1227.458Z" fill="#009389"/>
      <path id="Path_71" data-name="Path 71" d="M596.454,1270.847a20.676,20.676,0,1,1,20.676-20.676A20.7,20.7,0,0,1,596.454,1270.847Zm0-36.788a16.112,16.112,0,1,0,16.111,16.112A16.13,16.13,0,0,0,596.454,1234.059Z" fill="#009389"/>
      <path id="Path_72" data-name="Path 72" d="M628.112,1258.089h-5.954a2.282,2.282,0,0,1-2.282-2.282v-9.854a2.282,2.282,0,0,1,2.282-2.282h5.954a2.282,2.282,0,0,1,2.282,2.282v9.854A2.282,2.282,0,0,1,628.112,1258.089Zm-3.671-4.565h1.389v-5.289h-1.389Z" fill="#009389"/>
      <g id="Group_49" data-name="Group 49">
        <path id="Path_73" data-name="Path 73" d="M608.686,1228.988a2.283,2.283,0,0,1-2.283-2.283V1200.18a2.283,2.283,0,0,1,4.565,0V1226.7A2.283,2.283,0,0,1,608.686,1228.988Z" fill="#009389"/>
        <path id="Path_74" data-name="Path 74" d="M584.222,1228.988a2.283,2.283,0,0,1-2.282-2.283V1200.18a2.282,2.282,0,1,1,4.564,0V1226.7A2.282,2.282,0,0,1,584.222,1228.988Z" fill="#009389"/>
      </g>
      <g id="Group_50" data-name="Group 50">
        <path id="Path_75" data-name="Path 75" d="M608.686,1301.557a2.283,2.283,0,0,1-2.283-2.282V1272.75a2.283,2.283,0,1,1,4.565,0v26.525A2.282,2.282,0,0,1,608.686,1301.557Z" fill="#009389"/>
        <path id="Path_76" data-name="Path 76" d="M584.222,1301.557a2.282,2.282,0,0,1-2.282-2.282V1272.75a2.282,2.282,0,1,1,4.564,0v26.525A2.282,2.282,0,0,1,584.222,1301.557Z" fill="#009389"/>
      </g>
      <path id="Path_77" data-name="Path 77" d="M595.745,1254.048a2.273,2.273,0,0,1-1.257-.377l-8.864-5.85a2.282,2.282,0,0,1,2.514-3.81l7.478,4.935,8.984-7.19a2.283,2.283,0,0,1,2.853,3.564l-10.282,8.228A2.281,2.281,0,0,1,595.745,1254.048Z" fill="#009389"/>
    </g>
  </g>
</svg>
